<svg id="Icon_simple-email" data-name="Icon simple-email" xmlns="http://www.w3.org/2000/svg" width="27" height="28.507" viewBox="0 0 27 28.507">
  <path id="Icon_simple-email-2" data-name="Icon simple-email" d="M28.651,13.157a14.121,14.121,0,0,1-.495,3.189,9.036,9.036,0,0,1-1.295,2.8,6.719,6.719,0,0,1-2.2,1.99,6.415,6.415,0,0,1-3.206.757,4.813,4.813,0,0,1-2.318-.543,3.884,3.884,0,0,1-1.567-1.537,5.04,5.04,0,0,1-4.2,2.02,4.482,4.482,0,0,1-2.095-.49,4.3,4.3,0,0,1-1.572-1.4A6.033,6.033,0,0,1,8.8,17.756,9.039,9.039,0,0,1,8.676,14.9a12.8,12.8,0,0,1,.908-3.495A9.43,9.43,0,0,1,11.263,8.73,7.071,7.071,0,0,1,13.57,7.024a6.678,6.678,0,0,1,2.806-.6,9.1,9.1,0,0,1,1.678.137,6.828,6.828,0,0,1,2.382.919c.329.2.661.413.99.627l-.815,8.978a2.859,2.859,0,0,0,.024,1.051,1.448,1.448,0,0,0,.335.648,1.212,1.212,0,0,0,.543.338,2.087,2.087,0,0,0,1.909-.36,3.928,3.928,0,0,0,1.023-1.247,7.808,7.808,0,0,0,.688-1.874,12.338,12.338,0,0,0,.3-2.334,14.3,14.3,0,0,0-.383-4.361,8.518,8.518,0,0,0-1.686-3.374A7.806,7.806,0,0,0,20.344,3.4a11.4,11.4,0,0,0-4.4-.771,10.083,10.083,0,0,0-4.354.908A9.93,9.93,0,0,0,8.28,6.06,11.943,11.943,0,0,0,6.114,9.849,16.429,16.429,0,0,0,5.2,14.57a15.055,15.055,0,0,0,.465,4.817,8.573,8.573,0,0,0,1.838,3.452,7.684,7.684,0,0,0,3.115,2.073,12.426,12.426,0,0,0,4.3.688,15.351,15.351,0,0,0,2.821-.29c.465-.089.906-.2,1.327-.314a10.279,10.279,0,0,0,1.142-.392l.59,2.54a6.669,6.669,0,0,1-1.278.606,12.726,12.726,0,0,1-1.511.419,15.37,15.37,0,0,1-3.156.338A17.217,17.217,0,0,1,9.1,27.62a10.637,10.637,0,0,1-4.194-2.64A10.965,10.965,0,0,1,2.39,20.621a17.844,17.844,0,0,1-.7-6.051A17.772,17.772,0,0,1,2.9,8.762,14.272,14.272,0,0,1,5.809,4.149,13.28,13.28,0,0,1,10.254,1.1,14.451,14.451,0,0,1,16.011,0a15.1,15.1,0,0,1,5.578.957A10.564,10.564,0,0,1,28,7.8,15.252,15.252,0,0,1,28.651,13.157ZM12.673,14.9A5.821,5.821,0,0,0,13,17.908a1.687,1.687,0,0,0,1.619,1.015,1.859,1.859,0,0,0,.554-.1,2,2,0,0,0,.638-.367,3.3,3.3,0,0,0,.647-.748,5.627,5.627,0,0,0,.6-1.265l.636-6.976a3.961,3.961,0,0,0-.99-.125,3.547,3.547,0,0,0-1.647.362,3.2,3.2,0,0,0-1.167,1.062,6.1,6.1,0,0,0-.774,1.746,14.239,14.239,0,0,0-.439,2.387Z" transform="translate(-1.67)" fill="#f37944"/>
</svg>
