<svg id="Group_9" data-name="Group 9" xmlns="http://www.w3.org/2000/svg" width="10" height="10" viewBox="0 0 10 10">
  <path id="Path_15" data-name="Path 15" d="M4.887.012c.006.01,0,.017-.006.017s-.014.019-.008.053L4.88.135H4.643C4.4.135,4.368.129,4.412.1,4.434.08,4.432.076,4.39.054,4.363.04,4.339.036,4.335.043s.016.036.034.025A.039.039,0,0,1,4.4.075c.017.011.014.014-.013.014S4.358.1,4.366.107s0,.015-.012.009A.047.047,0,0,0,4.31.125C4.3.134,4.3.128,4.316.11s.024-.034,0-.051S4.3.047,4.295.054s0,.02-.005.028,0,.032-.007.053S4.277.166,4.269.15A.052.052,0,0,0,4.238.122c-.017,0-.018,0,0,.017s.011.022-.02.022S4.179.158,4.2.137s.012-.019-.012,0-.053.034-.041,0c0-.012,0-.023-.008-.023s-.017.01-.017.023S4.1.165,4.064.165s-.052,0-.044.03,0,.03-.037.03-.046,0-.038-.034S3.952.159,3.933.183,3.906.21,3.9.21,3.9.2,3.906.189,3.914.119,3.895.12s-.053.029-.042.04.018,0,.026-.01.014-.018.014,0S3.886.18,3.878.18,3.867.19,3.872.2s-.021.029-.1.027c-.01,0-.019.005-.019.013,0,.026-.058.013-.08-.017S3.655.2,3.647.218s-.012.037.017.028.024-.007,0,.008a.036.036,0,0,0-.017.039c.005.013,0,.022-.013.022C3.6.315,3.554.274,3.568.26s.018,0,.025.01.018.017.024.011S3.6.236,3.557.246s-.052.046-.02.06c.01,0,0,0-.019,0A.2.2,0,0,1,3.451.272c-.029-.024-.029-.024,0,.007s.034.072-.005.062-.073,0-.073.044S3.23.44,3.213.4c0-.012,0-.023,0-.023s.016.008.02.019S3.256.4,3.28.376c.039-.041.04-.044.011-.062s-.043,0-.043.018.008.01.017,0,.013,0,.006.007S3.217.36,3.2.338,3.192.348,3.2.38C3.2.443,3.175.467,3.13.439c-.022-.014-.024-.01-.019.028a.043.043,0,0,1-.08.027c-.007-.012-.013-.012-.021,0S2.991.506,2.973.487s-.025-.02-.023,0c.007.051-.022.073-.054.04a.036.036,0,0,0-.033,0c-.015.006-.02,0-.013-.009C2.868.485,2.838.493,2.8.525S2.77.549,2.764.536s-.008-.014-.009,0c0,.03.025.036.05.011s.03-.018.026.011c0,.005.012.006.028,0s.029,0,.029.016S2.875.6,2.821.595s-.07,0-.082.032c-.032.084-.1.106-.131.041C2.589.627,2.57.629,2.545.675,2.532.7,2.536.7,2.568.7S2.6.7,2.6.712s-.02.016-.037.015a.041.041,0,0,0-.04.02c0,.012,0,.017.007.012s.015,0,.015.014S2.531.8,2.5.8c-.066,0-.122.033-.123.071S2.371.9,2.35.9s-.03.007-.03.017S2.31.931,2.3.926a.024.024,0,0,0-.032.013A.033.033,0,0,1,2.24.962.069.069,0,0,0,2.2.992a.069.069,0,0,1-.044.03c-.02,0-.02,0,0-.015s.02-.015,0-.015a.067.067,0,0,0-.044.029c-.017.023-.027.026-.05.013s-.028-.012-.021.017,0,.036-.013.041a.035.035,0,0,0-.021.03c0,.012-.007.018-.015.013s-.015,0-.015.022-.01.031-.022.031-.022.007-.022.015a.016.016,0,0,1-.016.015c-.009,0-.011-.008,0-.019.019-.03.019-.055,0-.066s-.012,0-.006,0,0,.025-.021.04-.024.028-.015.028.013.011.008.023a.023.023,0,0,1-.028.016.035.035,0,0,0-.042.045c.012.032-.022.024-.04-.009s-.011-.03,0-.03.014,0,.008-.01-.028.008-.049.03c-.039.039-.031.058.009.021.016-.015.018-.014.01.009a.19.19,0,0,0-.01.035s-.006,0-.014,0a.017.017,0,0,0-.023.006.017.017,0,0,0,.006.024.034.034,0,0,1,.015.025c0,.009-.01.008-.025,0s-.022-.015-.014,0,0,.019-.012.019a.023.023,0,0,0-.023.023.024.024,0,0,1-.026.022c-.022,0-.023,0,0-.015s.016-.015.009-.015a.127.127,0,0,0-.048.037c-.019.021-.028.038-.021.038s.01.011,0,.025-.012.022-.031,0S1.507,1.486,1.5,1.5s-.012.016-.019.012-.011.007-.01.025a.046.046,0,0,0,.024.04c.018.006.019,0,0-.015s-.014-.027-.009-.033.031-.009.031.028-.008.038-.023.038c-.033,0-.077.044-.068.068s-.005.019-.036.017-.042,0-.037.024,0,.027-.01.027-.017.014-.017.031-.007.027-.015.021a.017.017,0,0,1-.007-.022A.016.016,0,0,0,1.3,1.737c-.008-.005-.012.011-.008.037s0,.045-.017.045-.018.007-.013.015,0,.015-.02.015c-.036,0-.071.038-.048.052a.034.034,0,0,1,.016.025c0,.008-.007.011-.015.006s-.015,0-.015.022-.01.031-.022.031-.022.007-.022.016-.007.012-.015.007-.015,0-.015.01,0,.014-.015,0-.019-.006,0,.031.01.029-.028.029a.055.055,0,0,0-.053.024c-.013.034-.012.036.013.027s.029.02,0,.048S.974,2.2.971,2.179a.3.3,0,0,0-.006-.03L.96,2.123c0-.006-.009,0-.018.016a.037.037,0,0,0,0,.047c.013.015.012.022,0,.028s-.015.008,0,.009.019.018.019.039S.952,2.3.924,2.295s-.025,0-.015,0c.029.01.023.064-.007.064-.048,0-.068-.024-.058-.066.005-.022.007-.039,0-.039a.165.165,0,0,0-.042.1c.016.016.016.053,0,.053s-.012,0-.007.01.019,0,.032-.009.022-.013.02.012-.008.027-.014.023-.012,0-.012.009S.8,2.464.782,2.462s-.041,0-.043.041c0,.058,0,.056-.035.038s-.03-.011-.03,0,.012.016.026.016.023,0,0,.015-.015.015,0,.015A.035.035,0,0,0,.726,2.57a.018.018,0,0,1,.025-.006c.01.006.009.014,0,.021a.069.069,0,0,0-.018.052c0,.039,0,.04-.067.031S.6,2.661.62,2.683a.038.038,0,0,1,.01.051c-.008.015-.01.032,0,.039s0,.008-.012,0S.593,2.762.595,2.753.588,2.741.576,2.746s-.018.013.008.031.085,0,.067-.026A.075.075,0,0,1,.658,2.7c.012-.031.014-.028.013.021,0,.031-.007.056-.014.056s-.013.02-.013.045-.007.045-.024.045-.021,0-.005-.023.015-.027.011-.031S.609,2.822.6,2.84s-.022.028-.029.024S.56,2.875.563,2.9s0,.044-.008.048a.115.115,0,0,0-.018.06C.532,3.06.5,3.1.482,3.091S.461,3.1.451,3.115s-.016.03,0,.023.021.006.023.037,0,.044-.026.037-.029,0-.029,0S.4,3.226.385,3.222s-.031-.005,0,.007a.077.077,0,0,0,.046.007c.009,0,.017.013.018.039s-.006.046-.031.05-.031.014-.029.027-.05.066-.064.045,0-.015.009-.015.015,0,.011-.008-.057.01-.057.031.03.041.058.016.047-.03.047,0c0,.013-.006.02-.013.015s-.051.032-.04.051S.339,3.5.33,3.5a.032.032,0,0,1-.024-.021.062.062,0,0,0-.032-.03c-.018-.007-.019,0-.008.01a.11.11,0,0,1,.019.034c.014.059.02.069.035.063s.018.006.02.022-.008.028-.02.028S.3,3.614.307,3.623s0,.015-.013.015-.021.014-.014.075,0,.075-.008.075S.255,3.8.255,3.811s-.007.019-.015.014A.019.019,0,0,1,.234,3.8c.006-.009,0-.012-.006-.006s-.019,0-.022-.016S.2,3.757.192,3.784s0,.03.005.025.013,0,.012.011q-.008.06.02.05c.012,0,.02.006.022.027s0,.028-.01.014S.223,3.9.2,3.925c-.03.043-.031.058,0,.058.012,0,.022.007.022.015s-.015.013-.034.01-.025,0-.015,0,.024.029,0,.043-.013,0-.007-.006,0-.014-.013-.008-.016.036.015.036c.014,0,.02.013.018.036s-.008.033-.014.03-.015,0-.02.009-.014.013-.02.009-.01.01-.01.03.006.034.025.028a.032.032,0,0,1,.036.01c.006.01,0,.014,0,.009s-.023.009-.033.031S.13,4.3.119,4.283s-.014-.016-.014,0A.015.015,0,0,1,.087,4.3c-.01,0-.02.01-.022.026s0,.022,0,.011c.015-.034.1-.023.1.012,0,.017-.006.027-.014.022a.016.016,0,0,0-.022.005c0,.008,0,.017.012.022.044.017.031.3-.014.3S.09,4.7.087,4.777l0,.086-.021-.18v.105a.672.672,0,0,1-.011.135c-.01.03-.01.03.013,0S.09,4.9.092,4.916a.371.371,0,0,1,0,.169C.083,5.1.076,5.11.076,5.1a.019.019,0,0,0-.017-.019c-.009,0-.011.008-.005.017a.414.414,0,0,1,.008.118c0,.108.009.126.072.11.028-.007.031,0,.031.052,0,.076-.012.108-.04.108-.013,0-.017-.007-.011-.017s0-.013-.005-.008S.071,5.425.092,5.405.107,5.4.1,5.413s0,.024.011.024.022-.019.026-.043C.144,5.352.13,5.337.112,5.367a.033.033,0,0,1-.024.015c-.008,0-.011-.006-.006-.014a.017.017,0,0,0-.006-.023c-.008,0-.012,0-.009.02a.27.27,0,0,1-.007.084C.049,5.5.051,5.5.074,5.495s.072.03.038.043-.028.055.011.053.027,0,.007-.009-.034-.029,0-.041c.013,0,.019-.016.014-.024S.14,5.5.148,5.5s.014.04.013.094,0,.082-.008.068S.127,5.629.112,5.652c-.005.008,0,.015.007.015a.016.016,0,0,1,.016.016c0,.009-.008.011-.017.005S.1,5.684.111,5.7a.019.019,0,0,0,.024.01c.023-.014.033.023.013.049s-.015.022,0,.013.019,0,.019.006.005.014.011.01.012.029.013.073c0,.067,0,.079-.022.072s-.018,0-.007,0a.083.083,0,0,1,.023.043C.186,5.992.2,6,.206,6s.014.006.009.019,0,.02.015.013.024,0,.024.008-.006.014-.014.009-.017,0-.021.01-.008.014-.009,0S.18,6.054.18,6.08s.047.023.063,0,.009,0,.008.018-.007.03-.013.026-.015,0-.02.009,0,.015.014.015.023.013.023.03.007.03.015.03.014.02.012.045S.273,6.3.242,6.292s-.035,0-.027.027a.275.275,0,0,1,.009.052c0,.01.006.019.014.019s.014-.028,0-.056c-.008-.013,0-.019.019-.019s.041.022.016.038,0,.038.039.028.036,0,.036.03-.007.039-.034.039-.029,0-.012.014a.039.039,0,0,0,.034.006c.007,0,.012,0,.012.015a.042.042,0,0,1-.017.033c-.012.007-.01.015,0,.025s.016.013,0,.008S.307,6.537.307,6.528c0-.028-.018-.036-.027-.012a.027.027,0,0,0,0,.031.025.025,0,0,1,.006.029A.026.026,0,0,0,.3,6.607c.009.006.015,0,.014,0-.006-.035,0-.038.025-.008s.03.03.037.025.014,0,.014.006a.029.029,0,0,1-.019.022c-.011,0-.007.008.009.009.048,0,.1.106.052.106A.014.014,0,0,1,.419,6.75.015.015,0,0,0,.4,6.735c-.028,0,0,.042.036.051a.049.049,0,0,1,.006.092c-.015,0-.028.015-.028.023s.016.006.037,0,.1.019.079.041c0,0-.018,0-.032-.017s-.034-.007-.026.043c0,.007,0,.008-.013,0a.018.018,0,0,1-.007-.023c0-.008,0-.01-.015,0s-.022.012,0,.036.021.034.016.042.033.011.055-.012S.528,6.988.513,7,.494,7,.494,6.975c0-.043.036-.03.042.015a.051.051,0,0,1-.015.047c-.011.007-.016.015-.013.018L.561,7.1c.025.019.033.031.019.026s-.026,0-.026.014.006.019.014.015.008.038-.015.054-.017.014,0,.007.029,0,.033.006.005.006,0,0,.019-.072.037-.072.014.014.014.031c0,.039-.028.092-.043.083s-.012.006-.013.022.007.029.023.028S.628,7.3.618,7.3.608,7.281.626,7.26s.057-.041.041-.015c0,.008,0,.024.014.036A.08.08,0,0,1,.7,7.328c0,.013.007.02.015.015s.015.008.015.031a.126.126,0,0,0,.046.083c.025.024.042.05.036.059a.016.016,0,0,0,.011.023.041.041,0,0,1,0,.075.036.036,0,0,0-.01.064c.006.006.01,0,.009,0-.006-.03,0-.053.015-.053s.014.005.013.011c0,.028,0,.049.018.049s.012-.007.007-.015,0-.015.022-.015.031.01.031.026,0,.02-.011.009-.015-.013-.026,0c-.024.029-.024.054,0,.054s.02-.005.016-.012.006-.012.022-.012.029.01.029.021a.091.091,0,0,0,.032.049c.018.015.024.028.015.028a.016.016,0,0,0-.017.015c0,.008.012.015.027.015s.027.009.027.02a.481.481,0,0,0,.1.152c.014.016.026.025.026.018s.011,0,.023.012.02.029.016.036.009.045.035.051a.066.066,0,0,1,.056.072c-.005.02,0,.026.013.02s.021,0,.021.024.009.032.03.032.03.01.03.022a.042.042,0,0,0,.017.032c.011.007.013,0,.007-.007s0-.017.005-.017.016.014.016.031-.006.027-.014.022a.017.017,0,0,0-.023.007c-.005.008,0,.015.014.015.028,0,.03.031,0,.059-.011.012-.012.016,0,.011a.018.018,0,0,1,.025.012q.008.021.056.015a.087.087,0,0,1,.069.016c.012.012.028.018.036.014s.014.005.014.022.01.031.03.031.038.024.031.065c0,.007,0,.008.013,0A.018.018,0,0,0,1.7,8.613c0-.008,0-.014.007-.014s.016.017.016.038.008.038.026.038a.088.088,0,0,1,.054.037c.015.02.037.033.048.028s.021,0,.021.022A.04.04,0,0,0,1.9,8.8a.04.04,0,0,1,.03.04c0,.018.007.028.015.023a.017.017,0,0,0,.007-.023c0-.008,0-.014.008-.014s.013.012.006.034-.009.032.017.011.023-.014.017,0a.02.02,0,0,0,0,.027.027.027,0,0,1,.006.032c-.007.018,0,.022.034.017.058-.008.09.025.069.071-.014.031-.013.034.014.027s.024-.012.012-.019-.013-.014,0-.023.022,0,.025.006A.031.031,0,0,0,2.2,9.02c.014,0,.02.009.014.023s0,.019,0,.015a.017.017,0,0,1,.023.007.062.062,0,0,0,.046.015c.021,0,.037.009.037.021s.01.018.028.014.028,0,.026.039-.018.062-.029.02c-.005-.02-.007-.019-.009.007a.053.053,0,0,0,.012.041c.019.012.044-.024.039-.055,0-.014,0-.026.009-.026s.019.018.016.071c0,.019.005.034.014.034s.011-.006.007-.014a.018.018,0,0,1,.007-.024.018.018,0,0,0,.007-.024c0-.008,0-.014.009-.014s.014.01.009.023,0,.023.007.023-.017.038-.046.047-.016.01,0,.018a.034.034,0,0,0,.038-.011A.035.035,0,0,1,2.5,9.262c.016.009.023.006.023-.009s-.006-.018-.013-.013-.012,0-.012-.008.01-.016.022-.016a.023.023,0,0,1,.022.023c0,.013.007.019.016.013s.012,0,0,.021-.026.028-.039.023-.02,0-.014.013A.033.033,0,0,0,2.571,9.3c0-.015.013-.028.019-.028s.06.047.051.061,0,.014.014.014c.03,0,.045-.025.021-.035s0-.008.015-.009c.041,0,.045.039.007.069-.023.018-.02.018.017,0s.045-.015.064.01.021.026.021,0,.007-.025.015-.025.015.009.015.02.014.018.045.013.045-.005.045.056c0,.038.006.059.015.054s.011,0,.006.014,0,.023.008.023.017-.012.017-.026,0-.023.015,0,.015.019.015,0-.008-.026-.017-.026-.014,0-.009-.009.073.023.088.044.014.005.02,0,.068-.022.068,0-.013.012-.03.006-.03,0-.03.012a.046.046,0,0,0,.067.04c.059-.024.116-.017.109.013s0,.032.068.034c.015,0,.022.008.016.017s0,.012.006.007a.016.016,0,0,1,.024.009c0,.012.008.01.009-.006a.043.043,0,0,0-.06-.035c-.007,0-.014,0-.014-.007,0-.034.088-.018.093.018s.013.033.061.032.056,0,.056.015.028.016.084.012l.084-.005,0,.043c0,.029,0,.042.015.039s.016,0,.011.01a.018.018,0,0,0,.006.024c.008.005.015,0,.015-.014a.023.023,0,0,1,.022-.023.022.022,0,0,1,.022.022c0,.012.013.021.029.019s.026-.008.021-.014a.015.015,0,0,0-.021,0c-.008,0-.014,0-.014-.008s.02-.015.045-.013.045.009.045.015.023.012.052.012c.049,0,.107.048.091.075,0,.006,0,.01.016.01s.017,0,.007-.016-.019-.036,0-.044.007,0-.008,0-.022,0-.018-.01a.037.037,0,0,1,.067.017c0,.021-.006.027-.019.02s-.015-.007,0,.012.014.029.007.036,0,0,.013-.005.029-.013.036-.007.007,0,0-.011-.009-.02.013,0,.025.015.025,0,.028-.017.068-.017.065,0,.057.019-.007.015.011,0,.088-.021.088,0,.015.012.034.012a.14.14,0,0,1,.067.023c.019.013.033.016.033.008a.016.016,0,0,1,.016-.016c.009,0,.012.007.007.015s0,.015.02.015a.042.042,0,0,1,.037.019c.006.015.008.015.009,0s.018-.019.038-.019.035.006.028.023a.024.024,0,0,1-.033.014c-.02-.008-.021-.006,0,.01s.024.014.045-.013a.12.12,0,0,1,.063-.039c.035-.006.034-.007-.007-.01L4.671,9.9a.109.109,0,0,0-.048.009c-.014.006-.029.005-.034,0A4.446,4.446,0,0,1,5.5,9.892a.269.269,0,0,0,.056-.009c.048-.011.059.027.016.052-.021.012-.019.014.014.012s.036-.007.033-.012,0-.013.013-.018.015-.008,0-.009-.019-.014-.019-.03.011-.029.131-.028c.195,0,.2,0,.2-.032s.01-.029.084-.026c.056,0,.087,0,.091-.016s.052-.024.078,0,.016.012.011,0,0-.016.028-.015a.054.054,0,0,1,.045.023c.013.034.052-.03.042-.07s0-.034.076-.034c.046,0,.084-.006.084-.013s.033-.014.073-.015c.066,0,.073,0,.066.028s0,.028.018.02.02-.013.008-.021-.022-.029.01-.054.025-.02,0-.012-.026,0-.026-.007c0-.026.062-.019.085.01s.02.021.017,0S6.74,9.6,6.755,9.6s.024-.006.022-.015.012-.019.031-.022.034,0,.034.01-.01.012-.022.007-.022,0-.022.016.007.021.015.016.015,0,.016.01.007,0,.015-.015.021-.031.033-.024.014.005.008,0,0-.026.015-.043.018-.025.008-.019-.019,0-.019-.007.013-.014.03-.01a.056.056,0,0,0,.049-.011.112.112,0,0,1,.071-.016c.073,0,.115-.007.088-.024s-.015-.013.005-.013.026-.007.026-.015-.01-.011-.022-.006-.022,0-.022-.008.02-.015.045-.013.044.009.038.038,0,.034.009.034.013-.022.009-.053,0-.051.015-.045a.121.121,0,0,0,.029.008s0,.012-.012.026-.018.024,0,.007a.049.049,0,0,0,.017-.049c-.005-.02,0-.03.016-.03s.024-.007.024-.015a.016.016,0,0,1,.016-.015c.009,0,.012.008.006.019s0,0,.02-.015a.106.106,0,0,1,.068-.034c.029,0,.039-.008.039-.03a.027.027,0,0,1,.03-.03c.017,0,.03-.01.03-.023,0-.029.1-.022.145.01.024.019.025.019.006-.005s-.015-.026-.007-.027,0-.007-.013-.016c-.039-.023-.032-.048.012-.04.028.005.036,0,.03-.013s0-.021.02-.021a.038.038,0,0,0,.035-.019c0-.01.011-.015.017-.009s0,.02-.013.032-.02.024,0,.032.019,0,.014-.006,0-.015.022-.015.031-.01.031-.026,0-.022-.013-.006-.015.015-.022-.005c-.013-.035-.012-.038.013-.038s.022-.007.022-.015.013-.015.03-.015.03.007.03.016.009.007.021,0,.017-.025.013-.033.009-.009.03,0,.04,0,.046-.022.015-.027.026-.02.014.005.008-.005a.027.027,0,0,0-.032-.008c-.028.011-.028-.006,0-.034.012-.012.029-.019.036-.014a.019.019,0,0,0,.025-.009c.007-.011,0-.014-.006-.007s-.022,0,0-.03.064-.03.041,0-.011.02.005.02.018-.006.014-.013.012-.024.037-.039a.121.121,0,0,0,.052-.054c0-.018.016-.025.031-.019s.023,0,.023-.013.007-.022.015-.022.015-.017.015-.038.008-.038.029-.038.026.008.021.03,0,.03.016.03.024-.007.024-.016-.008-.011-.017-.005-.013,0-.006-.008a.028.028,0,0,1,.032-.01c.012,0,.021,0,.021-.005S8.39,8.6,8.38,8.6s-.014-.012,0-.032.024-.022.028-.018.02,0,.035-.008.028-.01.028,0a.025.025,0,0,1-.018.02c-.011,0-.008.01.008.016s.023,0,.017,0,0-.015.005-.015.012-.012.009-.026S8.49,8.5,8.49,8.488s-.016,0-.035.015l-.034.029.032-.037c.017-.021.029-.046.025-.056s.007-.019.033-.019.036-.006.031-.013,0-.017.013-.022.018-.02.013-.041,0-.033.038-.024.045.005.037-.015,0-.022.016-.015.022,0,.017-.005.03-.063.043-.049.009,0,.009-.016a.024.024,0,0,1,.022-.025c.012,0,.022-.005.021-.011,0-.029,0-.05.016-.042a.017.017,0,0,0,.023-.007c.005-.008,0-.015-.006-.015-.029,0-.016-.046.025-.087.022-.022.042-.039.045-.037s.034,0,.042-.027.018-.028.033-.022.02,0,.014-.015,0-.022.02-.015.058-.019.025-.031S8.975,7.8,9,7.8a.021.021,0,0,1,.022.018c0,.012.009.009.025-.007s.022-.028,0-.051-.015-.022,0-.015.024,0,.019-.062c0-.029,0-.034.051-.034s.053,0,.053-.068.015-.085.047-.037c.019.028.02.024.015-.045s0-.076.017-.076.021-.012.016-.045,0-.045.01-.045.013.007.007.015,0,.015,0,.015.022-.016.033-.037.022-.034.041-.015.056.03.044.01a.038.038,0,0,1,.006-.033.035.035,0,0,0,0-.041.023.023,0,0,1,0-.037c.021-.021.023-.041,0-.041s-.018.017-.023.038c-.011.046-.032.049-.035.006s.027-.074.078-.047.044.022.023,0S9.43,7.1,9.453,7.081a.064.064,0,0,0,.011-.056c-.006-.031,0-.037.013-.028s.017.008,0-.008-.024-.044,0-.044.011.008.005.019.012,0,.041-.03a.178.178,0,0,0,.054-.083c0-.026,0-.029-.011-.011s-.013,0-.012-.049.008-.071.015-.071.009.008,0,.019,0,.011.018,0c.044-.034.046-.036.018-.026s-.033,0,0-.03a.054.054,0,0,0,.013-.053c-.006-.02,0-.027.007-.02s.017,0,.017-.007.015-.015.032-.012a.036.036,0,0,0,.039-.016c0-.013,0-.017-.01-.01s-.017,0-.017-.009,0-.016-.013,0-.015.015-.022,0c-.016-.041-.011-.113.007-.113s.073-.063.064-.1a.049.049,0,0,1,.026-.058c.019-.013.026-.024.016-.024s-.018-.018-.018-.039,0-.036.021-.022.024.013.032,0,0-.014,0-.008c-.029.018-.055-.032-.032-.061s.015-.022,0-.014-.019,0-.019,0,.017-.016.038-.016.037-.005.028-.032-.005-.029.009-.02.016,0,.01-.012,0-.022.011-.016A.026.026,0,0,0,9.873,6c.006-.01-.005-.016-.028-.016s-.038-.008-.038-.031.006-.027.014-.022a.019.019,0,0,0,.025-.009c.006-.01,0-.014,0-.008s-.02,0-.025-.014c-.013-.034-.011-.04.01-.032s.017-.011.013-.062,0-.067.019-.049.029.016.034.011,0-.01-.011-.01-.01-.008.009-.024.021-.02.012-.015c-.045.022-.061-.008-.062-.119V5.488l.048.007c.026,0,.039,0,.029,0a7.415,7.415,0,0,1-.006-.969.051.051,0,0,1,.027.016c.011.011.015.008.015-.009s-.016-.031-.036-.038-.032-.019-.028-.026,0-.013-.014-.013-.019,0,0,.025.012.052-.016.024-.026-.224.006-.212c.013.005.019,0,.014,0s0-.022,0-.035a.045.045,0,0,0,0-.047c-.012-.018-.014-.017-.007,0s0,.026-.007.026-.011.008,0,.017,0,.013-.007.007A.091.091,0,0,1,9.836,4.2c0-.028-.006-.052-.013-.052a.222.222,0,0,1-.013-.1c0-.058.006-.1.013-.1s.013,0,.013-.008-.02-.016-.045-.016c-.043,0-.045,0-.042-.06,0-.033.008-.06.015-.06a.015.015,0,0,0,.013-.016c0-.009-.008-.011-.017-.005s-.015,0-.01-.036,0-.043-.01-.033-.018,0-.02-.023,0-.037.019-.037.022-.007.022-.016-.007-.012-.015-.007a.033.033,0,0,1-.035-.011c-.022-.022-.043-.106-.024-.094a.015.015,0,0,0,.021-.007c.016-.026-.019-.032-.044-.007s-.025.022-.02-.019c0-.024.013-.044.022-.044a.049.049,0,0,0,.03-.013c.007-.007.006-.011,0-.01-.024,0-.082-.018-.082-.032s.009-.009.02,0,.024,0,.029-.023,0-.031-.006-.031-.01-.008,0-.017,0-.013-.007-.006a.019.019,0,0,0-.01.024.017.017,0,0,1-.007.022c-.008.005-.015,0-.015-.014S9.6,3.322,9.6,3.322s-.015-.01-.015-.023-.007-.023-.015-.023a.016.016,0,0,1-.015-.016c0-.009.008-.011.019-.005s.015.007,0-.01-.025-.065,0-.051.008,0,0-.021-.024-.028-.03-.024-.009-.014-.007-.039,0-.045-.017-.045S9.493,3.06,9.5,3.053s0-.022-.014-.032a.082.082,0,0,1-.021-.058c0-.034,0-.035.012-.01s.014.024.023.01-.02-.049-.049-.039c-.014.005-.018,0-.015-.034s.013-.041.029-.039.022-.007.017-.026S9.464,2.8,9.452,2.8s-.021-.014-.021-.031-.007-.027-.015-.021a.037.037,0,0,0-.011.035c0,.014,0,.023-.016.021s-.015,0-.01.012a.017.017,0,0,0,.023.008.015.015,0,0,1,.02,0c0,.007-.009.013-.029.015s-.036,0-.032-.064-.008-.09-.024-.049c0,.01-.008,0-.009-.024s0-.041.025-.033.021.005.015,0,0-.023,0-.037.009-.03,0-.037-.014,0-.013,0c.006.033,0,.038-.024.011s-.02-.022-.014,0,0,.027-.022.032-.031,0-.031-.006.008-.014.019-.015,0-.008-.015-.017c-.035-.017-.047-.045-.017-.038a.024.024,0,0,0,.025-.017c.005-.015,0-.018-.019-.011s-.024,0-.018-.012a.027.027,0,0,0-.006-.031.018.018,0,0,1,0-.025c.006-.009,0-.012-.006-.007s-.024,0-.035-.014-.016-.026,0-.037S9.2,2.39,9.174,2.39s-.04,0-.027-.038.009-.038,0-.038A.014.014,0,0,1,9.132,2.3c0-.007.018-.009.041-.005.039.007.04.007.015-.019s-.031-.023-.048-.008-.022.012-.022.005a.153.153,0,0,0-.031-.051c-.017-.021-.027-.029-.021-.019s0,.019-.006.019a.016.016,0,0,1-.016-.015c0-.008-.014-.015-.032-.015s-.03-.007-.024-.03a.061.061,0,0,0-.014-.053.037.037,0,0,1-.011-.04c.006-.01,0-.013,0-.008s-.02-.007-.025-.028S8.916,2,8.884,2.008s-.038.005-.033-.026,0-.037-.029-.041-.048-.048-.015-.047.1.063.075.071-.019.013-.019.02.01.009.022,0a.057.057,0,0,0,.022-.051c0-.045-.023-.073-.034-.041,0,.014-.015.012-.037-.008a.061.061,0,0,0-.055-.017c-.017.007-.025,0-.025-.016a.076.076,0,0,0-.066-.068c-.013,0-.024-.006-.024-.014s.013-.012.029-.009.027,0,.021-.016S8.7,1.732,8.7,1.736a.046.046,0,0,1-.06-.032c0-.02-.017-.027-.056-.022s-.023-.037,0-.065.009-.03-.065-.028c-.01,0-.015-.005-.01-.013s0-.013-.014-.013-.024-.015-.027-.034S8.456,1.5,8.44,1.5s-.022,0-.018-.011,0-.013-.009-.013a.084.084,0,0,1-.06-.059c0-.009-.011-.016-.023-.016s-.019-.007-.014-.015,0-.015-.016-.015-.024,0,0-.027.032-.057.011-.069S8.3,1.277,8.3,1.3l.008.034L8.283,1.3c-.035-.039-.056-.044-.044-.011.006.015,0,.023-.021.023a.026.026,0,0,1-.029-.03c0-.017-.007-.03-.015-.03a.015.015,0,0,1-.015-.015c0-.008.01-.015.022-.015S8.2,1.211,8.2,1.2s-.01-.011-.023-.006-.02,0-.014-.014A.028.028,0,0,0,8.16,1.15c-.009-.006-.012,0-.007.012s-.005.029-.026.041-.033.016-.014-.007.017-.03.011-.035-.01,0-.01.008c0,.031-.052.019-.068-.016A.071.071,0,0,0,8,1.115c-.019,0-.03-.011-.025-.019a.016.016,0,0,1,.022-.006c.007,0,.021-.007.03-.026s.016-.033-.007,0-.035.034-.051.013a.187.187,0,0,0-.1-.05A.023.023,0,0,1,7.845,1c0-.013-.007-.019-.015-.014s-.015,0-.015-.014S7.806.951,7.79.957s-.021,0-.014-.008,0-.018-.013-.018S7.742.925,7.749.913s0-.012-.014,0-.025.015-.025,0S7.7.9,7.679.9c-.034,0-.033-.032,0-.042.018,0,.017,0,0,.01s-.02.016,0,.015c.045,0,.082-.023.061-.036s-.015-.015,0-.026.01-.011-.013,0S7.695.822,7.695.8s0-.023-.014-.005a.039.039,0,0,0-.007.032c0,.006,0,.014-.015.019A.026.026,0,0,1,7.627.841.05.05,0,0,0,7.589.826C7.573.826,7.56.819,7.56.811S7.546.8,7.53.8A.126.126,0,0,1,7.461.758C7.441.737,7.416.725,7.407.731S7.4.734,7.4.723s0-.017-.007-.017S7.381.7,7.385.685A.047.047,0,0,0,7.349.631c-.013,0-.009.031.007.056s0,.019-.021.019S7.305.7,7.311.684,7.3.639,7.246.643,7.164.586,7.192.553C7.2.542,7.2.538,7.195.544a.027.027,0,0,1-.032,0C7.15.529,7.146.535,7.149.563S7.146.6,7.133.6,7.114.584,7.116.552,7.113.5,7.085.5s-.03,0-.026.01.017.008.03,0,.022,0,.022,0c0,.045-.1.011-.124-.04-.007-.018-.009-.017-.01,0S6.916.523,6.916.5c0-.008.009-.011.02-.007s.02,0,.021-.012a.2.2,0,0,1,0-.034C6.971.4,6.959.393,6.921.4a.129.129,0,0,0-.049.016s.007.005.026,0,.034,0,.034.022-.005.027-.019.016A.126.126,0,0,0,6.846.444c-.027,0-.046,0-.042-.007S6.8.418,6.779.407,6.753.4,6.759.4,6.749.42,6.714.42s-.054,0-.048-.028S6.653.315,6.63.315,6.619.322,6.625.33,6.619.345,6.6.345s-.029,0-.017-.019S6.592.3,6.568.286s-.031-.018-.015,0,.014.026,0,.04S6.512.35,6.512.322,6.5.3,6.482.308s-.03,0-.03-.007.007-.013.015-.008.011,0,.006-.015-.012-.02-.031.007-.065.04-.065,0c0-.017.007-.027.015-.021A.02.02,0,0,1,6.4.29C6.39.3,6.393.3,6.407.29s.015-.022,0-.041S6.356.217,6.37.24s0,.015-.007.015A.016.016,0,0,1,6.348.24c0-.008-.01-.015-.022-.015S6.3.231,6.3.24s-.027.013-.06.011-.06-.008-.06-.013S6.16.224,6.131.218C6.083.209,6.08.205,6.088.166S6.072.089,6.057.128c0,.013,0,.02,0,.016s.012,0,.012.013-.007.018-.031,0-.026-.011-.02,0,0,.022-.007.035S6,.214,6.029.206s.034,0,.034,0-.021.014-.047.014-.045,0-.039-.03,0-.033-.12-.034c-.018,0-.03-.006-.025-.013s0-.013-.008-.013a.015.015,0,0,0-.016.013c0,.007-.021.012-.046.011-.041,0-.045-.006-.037-.039s0-.031-.006-.015-.064.024-.315.028l-.3,0V.1A.065.065,0,0,1,5.12.052c.008-.005.013,0,.011,0a.013.013,0,0,0,.007.016A.009.009,0,0,0,5.151.063c0-.006.016-.02.034-.03.046-.026.005-.024-.058,0C5.1.048,5.075.051,5.075.044S5.048.029,5.015.029s-.06.007-.06.015a.016.016,0,0,1-.016.015c-.009,0-.011-.008-.005-.019s.007-.015-.01,0-.052.024-.03,0,.013-.024,0-.032S4.88,0,4.887.012ZM4.542.027c.006.01,0,.017,0,.017S4.52.055,4.515.069s0,.023.049.015.061,0,.067.013S4.665.12,4.74.12c.124,0,.12-.012-.005-.017-.1,0-.129-.027-.075-.067.032-.023.032-.024-.019-.018-.031,0-.052.014-.052.026A.03.03,0,0,1,4.57.071c-.011,0-.015,0-.01-.016A.029.029,0,0,0,4.55.021C4.538.014,4.535.016,4.542.027Zm.793.015a.059.059,0,0,1,.016.053c-.006.016,0,.025.013.025.04,0,.022-.094-.02-.1S5.311.015,5.335.042Zm.088.009C5.4.085,5.408.1,5.439.093s.03-.009,0-.018-.026-.011,0-.019.033,0,.033.016,0,.021.013,0a.023.023,0,0,1,.03-.01c.01.006.013,0,.009-.01S5.437.028,5.423.051ZM4.7.06c0,.008.026.015.059.015a.313.313,0,0,1,.083.009c.017.006.021,0,.015-.013S4.7.035,4.7.06Zm.5,0a.155.155,0,0,0,.074.011c.043,0,.064-.006.058-.016S5.3.045,5.262.048,5.2.057,5.2.063Zm.375,0c-.005.014,0,.025.02.03s.028,0,.027,0c0-.026.005-.03.039-.018s.035.01.028-.008A.046.046,0,0,0,5.621.061c-.007.012-.013.012-.021,0S5.586.048,5.58.064ZM5.855.1c-.013.016-.012.025.006.039s.023.014.023,0A.017.017,0,0,0,5.867.12c-.012,0-.011-.007,0-.023S5.884.074,5.88.074,5.865.084,5.855.1ZM5.2.115a.332.332,0,0,0,.082,0c.023,0,0-.006-.041-.006S5.176.112,5.2.115ZM3.757.192c-.03.025-.03.025.01.027.025,0,.033,0,.022-.009s0-.028.034-.022c.015,0,.023,0,.018,0A.064.064,0,0,0,3.757.192ZM6.169.182c0,.015.014.027.036.032s.033,0,.029-.006A.036.036,0,0,0,6.206.195.032.032,0,0,1,6.178.176C6.173.164,6.17.166,6.169.182Zm.519.2c0,.016.014.028.022.028s.01-.007,0-.015,0-.015.009-.015,0-.02-.023-.024S6.683.359,6.688.377Zm.118.011a.019.019,0,0,0,.007.025c.023.014.038-.005.019-.025S6.812.378,6.806.388ZM3.129.42c0,.008.01.015.022.015S3.174.429,3.174.42,3.164.405,3.151.405,3.129.412,3.129.42ZM2.684.634c-.025.033-.04.069-.017.04A.088.088,0,0,1,2.7.648.015.015,0,0,0,2.706.622S2.692.624,2.684.634ZM7.436.668c-.017.013-.021.024-.011.03S7.44.7,7.44.689s.005-.013.011-.007S7.464.7,7.469.74c0,.015,0,.014.014,0S7.5.721,7.509.724A.019.019,0,0,0,7.53.713c0-.008-.007-.017-.025-.02A.045.045,0,0,1,7.468.668C7.464.651,7.458.651,7.436.668Zm.115.11C7.57.8,7.579.8,7.593.784S7.6.766,7.6.765L7.554.758C7.528.753,7.528.755,7.55.778ZM2.186.885c0,.042.018.061.039.04s.027-.044,0-.033C2.209.9,2.2.895,2.208.886S2.21.871,2.2.871A.015.015,0,0,0,2.186.885ZM7.845.927c0,.045.017.063.045.045s.026-.041,0-.041c-.008,0-.011.008-.005.019s0,.006-.014-.01S7.845.918,7.845.927Zm.092.089c-.015.016-.012.019.015.015s.036-.012.038-.02S7.959.993,7.937,1.017Zm.118.1c.016.058.023.066.037.045s0-.016-.007-.016-.015-.015-.012-.032,0-.035-.013-.039S8.044,1.077,8.055,1.113Zm.344.274c0,.031.06.087.08.075s.009-.013-.009-.017-.024-.014-.019-.026,0-.017-.016-.011-.022,0-.015-.016,0-.025,0-.025S8.4,1.376,8.4,1.387Zm-6.99.158a.044.044,0,0,0,0,.049c.013.018.014.017.007,0a.054.054,0,0,1,.015-.049c.013-.013.016-.023.007-.023S1.417,1.53,1.409,1.545Zm7.127.013c.019.023.052.026.064.006s-.006-.01-.024-.005-.029,0-.023-.006,0-.015-.012-.015S8.523,1.543,8.535,1.558ZM1.2,1.826c-.013.016-.013.023,0,.023a.016.016,0,0,0,.017-.016c0-.009.007-.012.015-.007s.015,0,.015-.007S1.219,1.8,1.2,1.826Zm7.59-.009s.015.018.034.03.032.018.015,0-.015-.026-.011-.03,0-.007-.015-.007S8.788,1.812,8.788,1.817Zm-7.65.121c-.012.008-.016.015-.007.016s0,.007-.015.014-.026.013,0,.014a.053.053,0,0,0,.042-.029C1.171,1.92,1.169,1.918,1.138,1.939ZM9,2.076c-.024.024-.007.056.025.048a.026.026,0,0,0,.02-.036C9.038,2.055,9.026,2.052,9,2.076Zm.093.179c.005.008,0,.015-.022.015s-.031-.007-.031-.015.01-.015.022-.015A.04.04,0,0,1,9.095,2.254Zm.037.086c0,.01-.006.019-.013.019s-.013-.018-.013-.039,0-.033.013-.019A.091.091,0,0,1,9.132,2.341Zm.12.13a.079.079,0,0,0,.022.024c.018.015.022.014.022-.006a.024.024,0,0,0-.022-.024C9.262,2.465,9.252,2.468,9.252,2.471ZM.784,2.506c-.007.022,0,.022.015,0s.024-.021.024-.01-.036.062-.052.062-.005-.007,0-.015,0-.015-.008-.015S.75,2.519.764,2.5.794,2.474.784,2.506Zm8.513.03c0,.008.011.019.024.024.033.013.036.012.036-.008s0-.013-.01-.008-.019,0-.03-.007S9.3,2.527,9.3,2.537ZM.509,2.892a.092.092,0,0,1-.034.055c-.019.016-.026.028-.016.029a.029.029,0,0,0,.025-.018c.006-.015.008-.015.009,0a.019.019,0,0,0,.018.019c.009,0,.013-.01.008-.023s0-.023,0-.023.012-.039,0-.055S.509,2.878.509,2.892ZM.5,3a.032.032,0,0,0-.011.039c.012.031.023.023.031-.021S.524,2.987.5,3Zm9.081.081a.013.013,0,0,0,.013.02.033.033,0,0,0,.028-.02.013.013,0,0,0-.013-.02A.033.033,0,0,0,9.577,3.086ZM.4,3.276c0,.008,0,.017-.018.021s-.019.007.006.009.058-.022.026-.034C.4,3.266.391,3.268.4,3.276Zm-.171.346c-.011.02-.011.032,0,.039s.028,0,.036-.036S.246,3.583.225,3.622Zm9.568.2c-.013.015-.011.02.006.02s.022-.006.022-.013.008-.009.017,0,.013,0,.007-.007S9.813,3.8,9.793,3.823Zm-.009.056c0,.006,0,.014-.012.018s0,.007.021.007.037-.006.033-.018A.032.032,0,0,0,9.8,3.868C9.787,3.868,9.78,3.873,9.784,3.879Zm-9.7.593c.016.012.033.018.037.014S.09,4.45.067,4.45.065,4.46.081,4.472Zm-.025.052a.074.074,0,0,0,0,.044s.007,0,.007-.014,0-.018.013,0,.015.015.022,0,0-.021,0-.016-.016,0-.019-.018S.064,4.5.056,4.524Zm.054.055A.018.018,0,0,1,.1,4.6.022.022,0,0,1,.07,4.6c0-.01-.008-.006-.008.008s.006.026.015.026.011.008.005.017,0,.013.007.006a.021.021,0,0,0,.007-.029c-.006-.01,0-.008.015,0s.022.024.007.035-.014.012,0,.007.024-.069,0-.093S.1,4.568.11,4.579Zm9.814.05c-.006.052,0,.067.011.071s.016,0,.016-.018-.007-.023-.016-.023-.007-.006,0-.013.015-.016,0-.023S9.925,4.62,9.924,4.629Zm.023.218c-.011.027.007.057.026.045s.009-.016,0-.028-.011-.023-.006-.029.005-.01,0-.01S9.951,4.835,9.946,4.847ZM.02,4.964c0,.006.01.012.031.012S.09,4.969.09,4.962.031,4.947.02,4.964Zm.021.064c-.007.039,0,.045.029.026.013-.008.013-.018,0-.038S.048,4.993.041,5.028Zm9.89.122c0,.028,0,.052.009.052s.017-.087,0-.1S9.932,5.121,9.932,5.15ZM.086,5.257c0,.023-.006.008-.006-.034s0-.06.006-.042A.269.269,0,0,1,.086,5.257Zm9.774.408c0,.007,0,.017.014.022s.043-.01.027-.026A.025.025,0,0,0,9.859,5.666ZM.115,5.838a.029.029,0,0,0,.006.033c.023.014.033,0,.017-.032S.123,5.817.115,5.838Zm9.526.822c-.019.012-.019.016,0,.033s.017.012.011,0A.016.016,0,0,1,9.66,6.67c.01,0,.015-.011.011-.015S9.653,6.652,9.641,6.66Zm-.066.119a.019.019,0,0,0,.009.025c.011.007.014,0,.007-.006s0-.014.039-.008.045,0,.04,0S9.584,6.764,9.575,6.779ZM.392,6.831c.006.04.037.047.055.012s.01-.028-.006-.028a.02.02,0,0,0-.022.016c0,.009-.007.006-.016-.006S.388,6.807.392,6.831Zm9.174.044a.079.079,0,0,1-.022.024c-.018.015-.022.014-.022-.006a.024.024,0,0,1,.022-.024C9.556,6.87,9.566,6.873,9.566,6.876Zm-.106.209c-.009.031-.008.055,0,.048s.014,0,.014.01,0,.014.01.009,0-.019-.008-.031-.013-.023,0-.029.015-.008,0-.009S9.461,7.082,9.46,7.084ZM9.4,7.279c0,.024,0,.029-.017.016a.029.029,0,0,1-.007-.033Q9.4,7.224,9.4,7.279Zm-.15.186c0,.023.038.029.051.008s-.005-.017-.022-.021S9.252,7.452,9.252,7.465Zm-8.47.094c-.015.01-.015.016,0,.032s.022.016.013-.008S.793,7.56.808,7.569s.016.007.009-.005S.806,7.544.782,7.559ZM9.1,7.728c-.022.038-.022.043,0,.035s.02-.014.016-.021,0-.016.016-.021c.033-.013.039-.011.029.006s0,.015.007.015c.025,0,.018-.028-.011-.044S9.118,7.692,9.1,7.728ZM.952,7.8a.023.023,0,0,1-.01.03c-.016.01-.013.015.013.023s.041.021.015.051c-.01.012,0,.008.017-.008l.036-.03L1.014,7.9c0,.019,0,.03.005.025.025-.016.014-.052-.022-.069S.964,7.835.969,7.816s0-.028-.01-.028S.946,7.795.952,7.8Zm8.084.056a.017.017,0,0,0,0,.019c.009.014.052,0,.052-.016S9.046,7.848,9.035,7.859ZM1.086,8c.008.034.007.035-.012.011s-.026-.026-.033-.026,0,.012.013.028.02.034.014.041,0,0,.018-.009.028-.02.019,0,0,.026,0,.026S1.125,8.041,1.1,8L1.077,7.96Zm7.766.049c-.027.016-.049.037-.048.046s0,.012.011,0a.056.056,0,0,1,.043-.013c.021,0,.03,0,.025-.018s0-.018.024-.014.031,0,.031-.013C8.938,8.01,8.908,8.013,8.851,8.047Zm-7.6.154a.025.025,0,0,1-.035.013c-.019-.007-.017,0,.009.023.042.038.041.038.042.014A.163.163,0,0,1,1.28,8.2c.006-.015,0-.026,0-.026S1.257,8.188,1.252,8.2Zm7.339.169a.117.117,0,0,0,0,.016c-.008.035-.043.078-.057.069s-.012,0-.007.006a.016.016,0,0,1-.009.024c-.013.005-.013.008,0,.009a.067.067,0,0,0,.04-.021c.017-.017.024-.018.031,0s.007,0,0-.019,0-.036.015-.034.019,0,.019-.011.011-.015.023-.015.019-.006.015-.014S8.6,8.358,8.591,8.369Zm-7.075.062c.005-.013.008-.011.009.006,0,.035-.022.047-.058.028-.018-.01-.026-.025-.021-.039s.012-.02.035,0S1.511,8.446,1.517,8.431Zm.07.152c.019.014.019.016,0,.016s-.023.007-.018.015.056,0,.049-.019a.042.042,0,0,0-.027-.022C1.568,8.568,1.569,8.57,1.587,8.583Zm6.694.093c-.013.021-.015.037-.005.047.025.025.041.006.033-.038S8.3,8.643,8.281,8.675Zm-6.505.056a.019.019,0,0,0,.006.026c.011.007.011.016,0,.03s-.012.023,0,.03.016,0,.016-.012a.029.029,0,0,1,.015-.027c.01,0,.008-.016-.005-.034S1.783,8.721,1.776,8.731ZM8.23,8.76c.005.013,0,.017-.014.012s-.025,0-.03.021,0,.028.017.02c.048-.018.078-.074.04-.074C8.231,8.739,8.225,8.748,8.23,8.76ZM1.821,8.8c-.015.015-.012.035.006.035s.012-.007.007-.015c-.016-.026.011-.016.032.011s.02.024.02,0A.038.038,0,0,0,1.863,8.8C1.833,8.792,1.834,8.792,1.821,8.8Zm.241.1c-.009.027-.036.031-.036.005a.022.022,0,0,1,.021-.023C2.059,8.885,2.066,8.893,2.063,8.9Zm-.012.07c0,.021.017.031.039.022s.017-.014.013-.022S2.051,8.956,2.051,8.972Zm.218.14a.023.023,0,0,1-.01.03c-.015.009-.009.013.02.013s.04,0,.015-.03S2.253,9.085,2.269,9.112Zm5.25.1c-.03.025-.031.029-.008.038s.028,0,.031-.005a.018.018,0,0,1,.024-.008c.01,0,.028,0,.039-.02s.017-.024,0-.009-.024.014-.037,0S7.548,9.191,7.519,9.215Zm-.129.129c-.013.033-.013.033.013.033s.028-.009.009-.038S7.4,9.323,7.39,9.343Zm-4.618.1a.018.018,0,0,0,.018.014c.007,0,.018.007.025.017s.011.009.01-.014-.012-.034-.03-.034S2.77,9.433,2.772,9.442Zm.076.031c0,.017,0,.028.007.023s.019,0,.032.01.015.007,0-.023C2.851,9.433,2.851,9.433,2.848,9.473ZM6.994,9.5a.027.027,0,1,0,.037.04c.017-.014.019-.012.011.007s0,.025.006.025.019-.01.024-.023,0-.023,0-.023a.071.071,0,0,1-.035-.022C7.016,9.494,7.006,9.492,6.994,9.5ZM3.154,9.6c-.017.013-.021.024-.011.03s.016,0,.016-.007.008-.012.017-.006.013,0,.007-.005,0-.019.016-.023.019-.007,0-.008A.093.093,0,0,0,3.154,9.6Zm3.2.116c-.007.012,0,.015.013.008a.024.024,0,0,1,.033.014c.007.018,0,.022-.021.016s-.037,0-.015.034c.012.019.017.019.028,0a.023.023,0,0,1,.03-.01c.009.006.017,0,.017-.006s.011-.016.023-.016.019-.007.014-.015,0-.015.007-.015.013-.007.007-.015A.041.041,0,0,0,6.458,9.7c-.012,0-.019.006-.014.014a.017.017,0,0,1-.007.024c-.008.005-.019,0-.024-.014A.033.033,0,0,0,6.353,9.714ZM6.148,9.8c0,.006,0,.02.013.03s.023.014.027.008,0-.019-.013-.03S6.152,9.792,6.148,9.8Zm-2.225.045c0,.022,0,.023.015,0s.023,0,.016.038c0,.008.005.007.016,0s.014-.023,0-.041S3.922,9.811,3.923,9.843Zm2.136,0c.007.019,0,.023-.014.016a.051.051,0,0,0-.05.02c-.015.017-.019.029-.009.029A.016.016,0,0,0,6,9.892c0-.008.011-.01.024-.005s.05-.017.051-.052a.017.017,0,0,0-.014-.019C6.056,9.817,6.053,9.828,6.059,9.842Zm-1.883.043c-.015.019-.015.027,0,.041s.018.013.011-.007,0-.027.017-.03.02-.009.008-.016A.031.031,0,0,0,4.176,9.885ZM5.7,9.9c-.02.03-.02.036,0,.055s.021.017.012-.011,0-.036.033-.031c.006,0,.009.008.007.016s0,.01.012,0,.008-.02-.009-.039C5.723,9.855,5.727,9.855,5.7,9.9ZM4.937,9.9a.858.858,0,0,0,.127,0C5.1,9.9,5.07,9.9,5,9.9S4.9,9.9,4.937,9.9Zm.337.014a.123.123,0,0,0,.052,0c.014,0,0-.007-.026-.007S5.259,9.914,5.273,9.917Zm.091.02c0,.034.02.059.041.06,0,0,.006-.021,0-.046s-.011-.04-.018-.028-.013.013-.02,0S5.363,9.916,5.364,9.937Zm.16-.016c0,.008-.009.011-.021.007a.026.026,0,0,0-.031.008c-.006.01,0,.014.024.011s.061-.04.037-.04C5.528,9.907,5.524,9.914,5.524,9.922Zm-.615.035c.027.016.03.024.015.03s.023.008.076.008.088,0,.077-.008-.017-.01,0-.021-.011-.013-.064-.013A.573.573,0,0,1,4.9,9.944C4.885,9.939,4.888,9.944,4.909,9.957Zm.408,0a.1.1,0,0,1-.052.03c-.018,0-.01,0,.018,0,.057-.006.067-.012.059-.037S5.33,9.941,5.317,9.957Zm-.6.035a.123.123,0,0,0,.052,0c.014,0,0-.007-.026-.007S4.705,9.989,4.72,9.993Z" fill="#0bd1b8" fill-rule="evenodd"/>
  <path id="Path_16" data-name="Path 16" d="M4.356.02c0,.011.018.028.041.039s.039.02.015.038c-.045.033-.012.039.231.039H4.88L4.872.084c-.006-.039,0-.053.017-.06S4.912.017,4.9.037s0,.031.029,0,.018-.015.01,0,0,.019.005.019A.016.016,0,0,0,4.955.044c0-.008.027-.015.06-.015s.06.006.06.014.023,0,.052-.008c.063-.026.1-.028.058,0-.018.01-.033.023-.034.03a.011.011,0,0,1-.012.01c-.006,0-.009-.008-.007-.016s0-.01-.011-.005A.065.065,0,0,0,5.105.1V.137l.3,0c.251,0,.3-.008.315-.028s.012-.013.006.015,0,.038.037.039c.025,0,.046,0,.046-.011A.015.015,0,0,1,5.825.135c.009,0,.012.006.008.013s.007.013.025.013c.12,0,.128,0,.12.034s0,.03.039.03.047-.006.047-.014-.015-.01-.034,0S6,.212,6.014.192s.014-.028.007-.035,0,0,.021,0,.032.013.027-.009S6.065.123,6.064.119,6.042.109,6.017.107A.156.156,0,0,1,5.934.067C5.9.033,5.885.029,5.771.029,5.7.029,5.644.023,5.644.015A5.738,5.738,0,0,0,5,0,2.718,2.718,0,0,0,4.356.02Zm.2.035c-.005.014,0,.02.01.016A.03.03,0,0,0,4.589.044c0-.012.021-.023.052-.026.051-.005.052-.005.019.018C4.606.076,4.632.1,4.735.1c.126,0,.13.017.005.017-.075,0-.1-.006-.109-.022S4.609.077,4.564.084,4.507.09,4.515.069s.016-.025.024-.025.009-.008,0-.017,0-.013.008-.006A.029.029,0,0,1,4.56.055Zm.823.017c0,.034,0,.048-.019.048S5.345.111,5.351.095A.059.059,0,0,0,5.335.042C5.311.015,5.311.014,5.344.019S5.379.035,5.382.072ZM4.115.041a.087.087,0,0,0,0,.024c0,.007,0,.008-.012,0s-.024,0-.037.014a.183.183,0,0,1-.11.024A.27.27,0,0,0,3.85.124a.227.227,0,0,1-.1.012c-.094,0-.115.019-.075.081.023.035.084.053.084.024,0-.007.008-.013.019-.013.074,0,.1-.005.1-.027s0-.023.008-.023.013-.014.008-.03C3.879.114,3.9.109,3.914.144a.05.05,0,0,1-.008.045C3.9.2,3.894.21,3.9.21S3.921.2,3.933.183s.02-.024.012.008,0,.034.038.034.046,0,.037-.03,0-.03.044-.03.053-.007.053-.023S4.124.12,4.134.12s.013.01.008.023c-.011.03,0,.028.041,0s.027-.021.012,0-.014.024.019.024.035,0,.02-.022-.013-.021,0-.017A.052.052,0,0,1,4.269.15c.007.016.011.012.014-.015s0-.044.007-.053,0-.021.005-.028.012,0,.025.006.02.022,0,.051S4.3.134,4.31.125A.047.047,0,0,1,4.353.116c.015.006.019,0,.012-.009s0-.018.022-.018c.043,0,.026-.018-.02-.021-.019,0-.032-.011-.03-.021S4.309.029,4.229.029A.308.308,0,0,0,4.115.041ZM5.531.055c0,.012,0,.017-.009.01a.023.023,0,0,0-.03.01c-.01.017-.013.016-.013,0S5.47.05,5.446.056s-.031.009,0,.019.027.01,0,.018S5.4.085,5.423.051,5.522.031,5.531.055ZM4.857.071c.006.016,0,.02-.015.013A.313.313,0,0,0,4.759.074C4.727.074,4.7.068,4.7.06,4.7.035,4.848.045,4.857.071ZM5.337.059c.006.01-.015.016-.058.016-.088,0-.1-.021-.016-.027C5.3.045,5.331.05,5.337.059Zm.284,0a.046.046,0,0,1,.073.005c.007.018,0,.019-.028.008S5.623.065,5.627.092c0,.005-.012.006-.027,0S5.574.078,5.58.064s.011-.018.02,0S5.613.073,5.621.061ZM5.869.1c-.013.016-.013.023,0,.023a.017.017,0,0,1,.017.017c0,.012-.007.011-.023,0A.036.036,0,0,1,5.88.074S5.879.085,5.869.1ZM5.281.115a.332.332,0,0,1-.082,0c-.023,0,0-.006.041-.006S5.3.112,5.281.115Zm.8.042c0,.048,0,.053.049.062.027.005.05.014.05.019s.027.011.06.013S6.3.248,6.3.24s.01-.015.022-.015.022.007.022.015a.016.016,0,0,0,.016.015c.009,0,.012-.007.007-.015S6.377.222,6.4.248s.02.027,0,.041S6.39.3,6.4.29A.02.02,0,0,0,6.393.263c-.008-.005-.015,0-.015.021,0,.04.037.04.065,0s.023-.027.031-.007,0,.02-.006.015-.015,0-.015.008.012.013.03.007.03,0,.03.014.021.031.043,0a.025.025,0,0,0,0-.039c-.014-.015-.011-.015.015,0s.029.025.017.039S6.576.345,6.6.345,6.63.338,6.625.33s0-.015.006-.015.044.046.035.077,0,.028.048.028S6.765.415,6.759.4s0-.008.021,0,.028.024.024.029.015.009.042.007a.127.127,0,0,1,.065.01c.011.008.019,0,.024-.025s0-.035-.013-.021a.044.044,0,0,1-.039.009c-.012,0-.009-.008.007-.009.034,0,.033-.025,0-.063a.054.054,0,0,0-.06-.021A.053.053,0,0,1,6.773.309.1.1,0,0,0,6.709.285a.082.082,0,0,1-.062-.03c-.016-.022-.039-.03-.086-.03S6.5.218,6.5.21,6.471.195,6.44.195a.108.108,0,0,1-.085-.03C6.334.141,6.309.135,6.24.135c-.048,0-.088-.007-.088-.015C6.153.071,6.086.108,6.084.157ZM3.841.183c.005.005,0,.007-.018,0C3.786.182,3.765.2,3.788.21s0,.011-.022.009c-.04,0-.04,0-.01-.027A.064.064,0,0,1,3.841.183ZM6.206.195a.036.036,0,0,1,.028.013c0,.007-.009.01-.029.006S6.168.2,6.169.182s0-.018.009-.006A.032.032,0,0,0,6.206.195ZM3.511.21a.121.121,0,0,1-.072.015c-.047,0-.068.008-.082.03A.071.071,0,0,1,3.3.285C3.26.285,3.2.323,3.2.347s.06.01.069,0,0-.012-.007-.006-.017,0-.017,0S3.27.3,3.292.314s.02.03-.018.069c-.02.021-.031.025-.036.011S3.225.375,3.218.375s-.009.01,0,.023c.016.043.155.031.155-.013S3.395.328,3.442.34s.041-.019.005-.062-.025-.031,0-.007a.2.2,0,0,0,.067.034c.021.005.029.005.019,0-.032-.015-.021-.05.02-.06s.081.014.061.035S3.6.282,3.593.27,3.574.254,3.568.26s.036.055.067.055c.013,0,.018-.009.013-.022A.036.036,0,0,1,3.665.254c.023-.015.023-.016,0-.008s-.025,0-.018-.021S3.53.178,3.511.21ZM3.134.327a.073.073,0,0,0-.023.041C3.108.386,3.1.4,3.08.393S3.054.4,3.054.4A.016.016,0,0,1,3.038.42c-.009,0-.012-.007-.007-.015S3.01.387,2.986.411a.06.06,0,0,1-.052.013c-.023-.006-.033,0-.039.024S2.874.48,2.843.48,2.8.487,2.8.5,2.78.51,2.756.51a.092.092,0,0,0-.063.024.325.325,0,0,1-.079.054c-.074.038-.1.062-.1.1,0,.016,0,.019-.009.009A.042.042,0,0,0,2.467.676c-.02,0-.028.007-.022.021s0,.019-.021.013a.059.059,0,0,0-.057.024.09.09,0,0,1-.052.032c-.013,0-.024.007-.024.015S2.278.8,2.262.8s-.049.03-.055.078c0,.015.005.022.018.017s.026.007,0,.035S2.2.941,2.187.9,2.172.852,2.163.882s-.018.03-.031.025-.04.013-.064.039a.163.163,0,0,1-.06.047.259.259,0,0,0-.1.071.074.074,0,0,1-.043.019c-.013,0-.024.007-.024.016a.334.334,0,0,1-.12.12.126.126,0,0,0-.052.034L1.6,1.32c-.021.019-.035.041-.03.049s0,.009-.015,0-.023,0-.023.007.012.019.026.022.011,0-.007,0-.048.014-.077.047a.241.241,0,0,1-.051.051.469.469,0,0,0-.146.165.027.027,0,0,1-.03.031c-.016,0-.03.01-.03.022a.291.291,0,0,1-.072.094.789.789,0,0,0-.1.121c-.016.027-.034.049-.04.049S.988,2,.988,2.01a.115.115,0,0,1-.045.062C.918,2.092.9,2.116.9,2.127a.179.179,0,0,1-.045.068C.8,2.247.782,2.309.8,2.331s.015,0,.016-.018a.088.088,0,0,1,.019-.049c.012-.012.014-.005.006.026s.008.069.057.07c.03,0,.037-.054.007-.064-.01,0,0,0,.015,0,.038.006.051-.061.015-.075-.014-.006-.013-.008,0-.009s.017-.006,0-.023a.037.037,0,0,1,0-.049c.009-.015.017-.022.018-.016l.006.026a.3.3,0,0,1,.006.03c0,.022.031.018.055-.006s.027-.059,0-.048-.022,0-.015-.015a.156.156,0,0,0,.009-.03s.02-.006.045-.006c.04,0,.044,0,.03-.029s-.02-.061,0-.031.015.017.015,0,.007-.015.015-.01.015,0,.015-.007.01-.016.022-.016.022-.013.022-.031.007-.027.015-.022.015,0,.015-.006A.034.034,0,0,0,1.2,1.9c-.023-.014.012-.052.048-.052.016,0,.025-.007.02-.015s0-.015.013-.015.021-.012.017-.045,0-.042.008-.037a.016.016,0,0,1,.006.022.017.017,0,0,0,.007.022c.008.005.015,0,.015-.021s.008-.031.017-.031.014-.012.01-.027,0-.026.037-.024.042,0,.036-.017.036-.068.068-.068c.015,0,.023-.014.023-.038s-.012-.047-.031-.028,0,.02.009.033.015.021,0,.015a.046.046,0,0,1-.024-.04c0-.018,0-.029.01-.025s.015,0,.019-.012.013-.01.029.01.023.026.031,0,0-.025,0-.025,0-.017.021-.038a.127.127,0,0,1,.048-.037c.007,0,0,.007-.009.015s-.019.015,0,.015a.024.024,0,0,0,.026-.022A.023.023,0,0,1,1.67,1.4c.015,0,.019-.007.012-.019s0-.012.014,0,.025.014.025,0a.034.034,0,0,0-.015-.025A.017.017,0,0,1,1.7,1.336a.016.016,0,0,1,.021-.007c.007,0,.016,0,.021-.016.014-.036.011-.044-.009-.024a.06.06,0,0,1-.032.018c-.008,0,0-.018.026-.04s.044-.035.049-.03,0,.01-.008.01-.014.008,0,.03.053.042.04.009a.035.035,0,0,1,.042-.045.023.023,0,0,0,.028-.016c0-.013,0-.023-.008-.023s0-.013.015-.028.027-.033.021-.04,0-.008.006,0,.019.036,0,.066c-.007.011,0,.019,0,.019A.016.016,0,0,0,1.931,1.2c0-.008.01-.015.022-.015s.022-.013.022-.031.007-.027.015-.022.015,0,.015-.013a.035.035,0,0,1,.021-.03c.013-.005.018-.02.013-.041s0-.031.021-.017.034.01.05-.013A.067.067,0,0,1,2.155.992c.02,0,.02,0,0,.015s-.02.015,0,.015A.069.069,0,0,0,2.2.992.069.069,0,0,1,2.24.962.033.033,0,0,0,2.266.939.024.024,0,0,1,2.3.926c.013,0,.023,0,.023-.008S2.334.9,2.35.9s.03-.01.03-.034S2.437.8,2.5.8c.028,0,.042-.008.042-.023S2.538.753,2.53.758s-.011,0-.007-.012a.041.041,0,0,1,.04-.02C2.581.728,2.6.721,2.6.712S2.591.7,2.568.7,2.532.7,2.545.675c.025-.046.044-.048.062-.008.03.065.1.043.131-.041.012-.032.021-.036.082-.032s.069,0,.069-.019S2.88.555,2.859.56s-.026,0-.022,0A.017.017,0,0,0,2.829.533C2.812.522,2.824.5,2.846.5s.01.008,0,.018,0,.015.013.009a.036.036,0,0,1,.033,0c.033.033.061.011.054-.04,0-.016,0-.014.023,0S3,.508,3.009.495s.014-.013.021,0a.043.043,0,0,0,.08-.027c-.006-.038,0-.041.019-.028.04.025.071,0,.067-.046C3.191.323,3.172.3,3.134.327Zm3.6.038c.006.006,0,.01-.008.01S6.709.382,6.714.39s0,.015,0,.015S6.692.392,6.688.377,6.708.341,6.731.365Zm.106.049C6.824.428,6.8.405,6.806.388s.015-.01.025,0S6.843.409,6.838.414Zm.122,0c0,.01,0,.034,0,.053s-.007.032-.021.027-.02,0-.02.007c0,.027.06.016.061-.012s0-.022.01,0c.02.052.124.086.124.04,0-.007-.01-.01-.022,0s-.025,0-.03,0S7.067.5,7.085.5s.033.01.03.051S7.12.6,7.133.6s.019-.014.016-.038,0-.034.014-.023.023.012.028.008,0,0,0,.009c-.024.029.016.089.058.086s.075.013.065.041,0,.022.024.022S7.364.7,7.356.687,7.336.631,7.349.631a.047.047,0,0,1,.036.054c0,.011,0,.021.01.021s.013.008.007.017,0,.013.006.007.033.007.054.028A.126.126,0,0,0,7.53.8C7.546.8,7.56.8,7.56.811s.013.015.029.015a.05.05,0,0,1,.038.014.026.026,0,0,0,.031.006c.012,0,.019-.013.015-.019A.039.039,0,0,1,7.681.8c.011-.018.014-.017.014.005S7.7.826,7.721.82A.063.063,0,0,1,7.77.828c.017.012.013.013-.015.005S7.72.825,7.737.845s.013.024-.015.032C7.671.89,7.655.888,7.68.87s.018-.015,0-.01C7.646.869,7.645.9,7.679.9,7.7.9,7.71.909,7.71.918s.009.01.025,0,.022-.015.014,0,0,.019.013.019.02.007.013.018,0,.014.014.008.025,0,.025.013.007.019.015.014.015,0,.015.014a.023.023,0,0,0,.023.023.187.187,0,0,1,.1.05c.015.021.026.019.051-.013s.024-.029.007,0-.023.031-.03.026a.016.016,0,0,0-.022.006c0,.008.007.016.025.019a.071.071,0,0,1,.049.039c.015.035.068.047.068.016,0-.01,0-.013.01-.008s0,.021-.011.035-.018.024.014.007.032-.027.026-.041,0-.018.007-.012a.028.028,0,0,1,.007.033c-.006.016,0,.02.014.014s.023,0,.023.006-.01.015-.022.015-.022.007-.022.015a.015.015,0,0,0,.015.015c.008,0,.015.014.015.03a.026.026,0,0,0,.029.03c.02,0,.027-.007.021-.023-.013-.033.009-.027.044.011l.03.034L8.3,1.3c0-.019,0-.03.005-.025s.016.039-.011.069-.023.027,0,.027.021.007.016.015,0,.015.014.015.023.007.023.016a.084.084,0,0,0,.06.059c.009,0,.013.006.009.013s0,.012.018.011.028.01.031.032.015.034.027.034.019.006.014.013,0,.013.01.013c.074,0,.088,0,.065.028s-.031.069,0,.065.056,0,.056.022a.046.046,0,0,0,.06.032c.007,0,.016,0,.02.014s0,.02-.021.016-.029,0-.029.009.011.014.024.014a.076.076,0,0,1,.066.068c0,.017.008.022.025.016a.061.061,0,0,1,.055.017c.022.02.032.022.037.008.011-.032.034,0,.034.041a.057.057,0,0,1-.022.051c-.012,0-.022,0-.022,0s.008-.016.019-.02-.044-.07-.075-.071-.02.042.015.047.033.013.029.041,0,.035.033.026.04,0,.048.028.016.033.025.028.011,0,0,.008a.037.037,0,0,0,.011.04.061.061,0,0,1,.014.053c-.006.023,0,.03.024.03s.032.007.032.015a.016.016,0,0,0,.016.015c.009,0,.011-.008.006-.019s0,0,.021.019a.153.153,0,0,1,.031.051c0,.007.011,0,.024-.007s.026-.016.037,0,.018.016.025.009,0-.021-.014-.031a.063.063,0,0,1-.026-.041.1.1,0,0,0-.026-.051.4.4,0,0,1-.047-.07c-.012-.023-.029-.041-.04-.041s-.022-.016-.027-.036c-.012-.048-.115-.162-.138-.153s-.015,0-.011-.02-.014-.049-.052-.087a1.11,1.11,0,0,1-.09-.1.242.242,0,0,0-.066-.062.152.152,0,0,1-.055-.063c-.012-.027-.031-.044-.048-.044s-.029-.009-.029-.02S8.5,1.4,8.42,1.33c-.03-.025-.077-.066-.1-.091a.321.321,0,0,0-.073-.056.039.039,0,0,1-.026-.03c0-.011-.024-.032-.052-.048s-.052-.034-.052-.041-.013-.013-.03-.013a.027.027,0,0,1-.03-.03c0-.033-.053-.043-.063-.013a.052.052,0,0,1-.039.023c-.028,0-.03,0-.014-.016A.05.05,0,0,1,7.97,1c.007,0,.016-.006.02-.016S7.984.962,7.966.962,7.934.952,7.934.939,7.919.909,7.9.9a.391.391,0,0,1-.084-.06A.175.175,0,0,0,7.738.8C7.722.8,7.71.789,7.71.781S7.7.766,7.682.766a.04.04,0,0,1-.036-.03c-.006-.022-.02-.03-.054-.03S7.545.7,7.545.691,7.532.676,7.515.676a.027.027,0,0,1-.03-.03c0-.017-.008-.03-.017-.03A.52.52,0,0,1,7.291.524c0-.007-.02-.013-.045-.013S7.2.5,7.2.5,7.189.48,7.174.48A.072.072,0,0,1,7.126.45.083.083,0,0,0,7.055.42c-.027,0-.049-.007-.049-.015S6.962.387,6.96.409ZM3.174.42c0,.008-.01.015-.022.015S3.129.429,3.129.42s.01-.015.022-.015S3.174.412,3.174.42ZM2.786.539C2.792.528,2.8.524,2.81.531s-.025.042-.043.031A.03.03,0,0,1,2.756.536c0-.011,0-.01.009,0S2.775.556,2.786.539Zm-.075.1A.016.016,0,0,1,2.7.648a.088.088,0,0,0-.031.026c-.015.018-.017.019-.009,0C2.683.626,2.716.6,2.711.637ZM7.505.694c.018,0,.029.011.025.02a.019.019,0,0,1-.021.01c-.007,0-.019,0-.026.015s-.013.015-.014,0c0-.041-.006-.047-.017-.058s-.011,0-.011.007S7.433.7,7.425.7s-.006-.017.011-.03.028-.017.032,0A.045.045,0,0,0,7.505.694ZM7.6.765c.008,0,.006.009,0,.019S7.57.8,7.55.778s-.022-.024,0-.019ZM7.882.95c-.005-.01,0-.019.005-.019.028,0,.03.024,0,.041S7.861.986,7.853.967C7.837.924,7.845.911,7.868.94S7.888.961,7.882.95Zm.19.159c0,.018,0,.032.012.032s.012.007.007.016-.02.013-.037-.045c-.01-.036-.009-.047,0-.042S8.075,1.092,8.072,1.11Zm.346.283c-.007.019,0,.023.015.016s.022,0,.016.011,0,.023.019.026.022.009.009.017-.031,0-.049-.022c-.032-.035-.041-.073-.016-.073C8.421,1.367,8.423,1.379,8.418,1.393Zm-6.987.148a.054.054,0,0,0-.015.049c.007.021.005.022-.007,0s0-.076.029-.076C1.447,1.518,1.444,1.528,1.431,1.541Zm7.121.012c-.005.009,0,.012.023.006s.029,0,.024.005-.045.017-.064-.006-.011-.02.005-.02S8.558,1.545,8.553,1.553Zm-7.31.267c0,.009-.007.012-.015.007s-.015,0-.015.007a.016.016,0,0,1-.017.016c-.012,0-.011-.007,0-.023S1.243,1.8,1.243,1.819Zm7.583,0s0,.018.011.03.015.02-.015,0-.043-.039-.011-.039C8.823,1.808,8.829,1.812,8.825,1.816Zm-7.673.138a.053.053,0,0,1-.042.029c-.021,0-.021,0,0-.014s.023-.013.015-.014,0-.008.007-.016C1.169,1.918,1.171,1.92,1.153,1.954Zm7.894.134a.026.026,0,0,1-.02.036C8.994,2.132,8.978,2.1,9,2.076S9.038,2.055,9.046,2.088Zm0,.167c0,.008.014.015.031.015s.027-.007.022-.015a.04.04,0,0,0-.031-.015C9.052,2.239,9.042,2.246,9.042,2.254Zm.1.033a.015.015,0,0,0,.006.024c.012,0,.012.017,0,.042s-.01.037.027.037.035,0,.019.014-.018.018,0,.037.026.019.035.014.011,0,.006.007a.018.018,0,0,0,0,.025.027.027,0,0,1,.006.031c-.006.016,0,.02.018.012s.024,0,.019.011a.024.024,0,0,1-.025.017c-.03-.007-.018.021.017.038.019.009.025.017.015.017s-.019.007-.019.015.014.01.031.006.028-.016.022-.032,0-.016.014,0,.03.022.024-.011c0-.007,0-.008.013,0s.015,0,.015-.016-.008-.022-.022-.016-.067,0-.067-.024.007-.009.02,0,.025.012.03.007a.056.056,0,0,0-.02-.08.062.062,0,0,1-.03-.049c0-.052-.07-.124-.115-.118-.024,0-.034,0-.028-.011s.007-.016,0-.016S9.144,2.278,9.138,2.287Zm-.032.033c0,.022.006.039.013.039s.016-.031,0-.058S9.106,2.293,9.106,2.321ZM.737,2.369A.134.134,0,0,0,.7,2.436a.026.026,0,0,1-.023.029c-.013,0-.027.019-.032.045s-.014.045-.02.045-.016.018-.021.04a.249.249,0,0,1-.039.077.134.134,0,0,0-.029.058c0,.011-.007.021-.015.021s-.015.019-.015.042a.071.071,0,0,1-.03.06.072.072,0,0,0-.03.056c0,.021-.007.037-.015.037s-.021.085,0,.094,0,0-.009,0c-.032-.008-.063.034-.063.085a.113.113,0,0,1-.02.068.109.109,0,0,0-.016.074c0,.043,0,.054-.023.054-.054,0-.061.092-.012.144.034.036.066.05.048.02s.021-.062.04-.051.013,0,.013-.015c0-.03-.013-.03-.047,0s-.058.017-.058-.016.043-.045.057-.031,0,.008-.011.008S.317,3.389.322,3.4.39,3.38.385,3.352s.01-.025.029-.027.032-.014.031-.05S.438,3.233.428,3.236a.077.077,0,0,1-.046-.007c-.027-.012-.027-.013,0-.007s.034,0,.034-.006.013-.009.029,0,.029,0,.026-.037-.01-.042-.023-.037-.017,0,0-.023.025-.028.032-.024.05-.03.055-.085a.115.115,0,0,1,.018-.06c.007,0,.011-.026.008-.048s0-.037.008-.033S.59,2.857.6,2.84s.021-.028.025-.023,0,.019-.011.031-.015.023.005.023.024-.014.024-.045.006-.045.013-.045.013-.025.014-.056c0-.049,0-.052-.013-.021a.075.075,0,0,0-.007.047c.017.028-.035.048-.067.026S.556,2.753.576,2.746s.021,0,.019.008.007.02.019.024.018,0,.012,0,0-.024,0-.039a.038.038,0,0,0-.01-.051C.6,2.661.6,2.66.663,2.668s.067.008.067-.031a.069.069,0,0,1,.018-.052c.012-.008.013-.015,0-.021a.018.018,0,0,0-.025.006A.035.035,0,0,1,.7,2.585c-.011,0-.009-.006,0-.015s.019-.015,0-.015S.674,2.548.674,2.54s.01-.01.03,0,.032.021.035-.038c0-.04.007-.045.043-.041s.041,0,.041-.012.005-.013.012-.009.013-.006.014-.023,0-.027-.02-.012S.8,2.42.8,2.414.8,2.4.8,2.4s.017-.027,0-.056S.775,2.325.737,2.369Zm8.56.121c0,.02,0,.021-.022.006a.079.079,0,0,1-.022-.024s.01-.006.022-.006A.024.024,0,0,1,9.3,2.489ZM.764,2.5c-.014.017-.014.023,0,.023s.014.007.008.015-.005.015,0,.015.052-.042.052-.062S.813,2.487.8,2.5s-.022.025-.015,0S.788,2.473.764,2.5Zm8.606.131a.168.168,0,0,0,0,.031c0,.006-.008.007-.021,0s-.022,0-.021.034,0,.035.009.024c.016-.041.029-.015.024.049s0,.067.032.064.033-.008.029-.015a.015.015,0,0,0-.02,0,.017.017,0,0,1-.023-.008c-.005-.009,0-.014.01-.012s.018-.007.016-.021a.037.037,0,0,1,.011-.035c.009-.005.015,0,.015.021s.009.031.021.031.024.013.028.028,0,.028-.017.026-.026.012-.029.039,0,.039.015.034c.029-.011.063.016.049.039s-.015.012-.023-.01-.011-.023-.012.01a.082.082,0,0,0,.021.058c.012.01.019.025.014.032s0,.013.012.013.019.015.017.045,0,.042.007.039.019.007.03.024.012.026,0,.021-.02.026,0,.051.015.018,0,.01-.019,0-.019.005a.016.016,0,0,0,.015.016c.008,0,.015.01.015.023s.007.023.015.023.015.011.015.023.007.019.015.014a.017.017,0,0,0,.007-.022.019.019,0,0,1,.01-.024c.011-.007.014,0,.007.006s0,.017,0,.017.011.014.006.031-.016.028-.029.023-.02,0-.02,0,.058.036.082.032c.008,0,.009,0,0,.01a.049.049,0,0,1-.03.013c-.01,0-.02.02-.022.044,0,.041,0,.042.02.019s.06-.02.044.007a.015.015,0,0,1-.021.007c-.019-.012,0,.072.024.094a.033.033,0,0,0,.035.011c.008-.005.015,0,.015.007s-.01.016-.022.016-.021.013-.019.037.008.032.02.023.015,0,.01.033,0,.044.01.036.017,0,.017.005a.015.015,0,0,1-.013.016c-.007,0-.014.027-.015.06,0,.057,0,.06.042.06.025,0,.045.007.045.016s-.006.012-.013.008-.013.039-.013.1a.222.222,0,0,0,.013.1c.007,0,.013.023.013.052a.091.091,0,0,0,.017.062c.011.007.013,0,.007-.007s0-.017,0-.017.012-.012.007-.026-.006-.022.007,0a.045.045,0,0,1,0,.047c-.007.014-.009.03,0,.035s0,.006-.014,0c-.032-.012-.037.181-.006.212s.043.006.016-.024-.02-.025,0-.025.018.006.014.013.008.019.027.026.031.015.009.024a4.77,4.77,0,0,0-.008.976c.01,0,0,.006-.029,0l-.048-.007V5.6c0,.112.017.142.062.119.01,0,0,0-.012.015s-.022.024-.009.024.016,0,.011.01-.021,0-.034-.011-.024-.014-.019.049,0,.067-.016.061-.019,0-.011.018a.169.169,0,0,1,.01.034s.008,0,.017,0,.013,0,.006.007a.019.019,0,0,1-.025.009c-.008,0-.014.005-.014.022s.01.031.038.031.034.006.028.016a.026.026,0,0,1-.03.008c-.014-.005-.017,0-.011.016s0,.021-.01.012-.017,0-.009.02,0,.032-.028.032-.038.007-.038.016.008.011.019,0,.012,0,0,.014,0,.079.032.061c.009-.006.011,0,0,.008s-.016.014-.032,0-.021-.01-.021.022.008.039.018.039,0,.011-.016.024a.049.049,0,0,0-.026.058c.009.035-.032.1-.064.1s-.023.072-.007.113c.008.02.012.021.022,0s.013-.016.013,0,.008.015.017.009.014,0,.01.01a.036.036,0,0,1-.039.016c-.018,0-.032,0-.032.012s-.007.012-.017.007-.013,0-.007.02a.054.054,0,0,1-.013.053c-.03.03-.029.042,0,.03s.027-.008-.018.026c-.018.014-.025.015-.018,0s0-.019,0-.019-.015.032-.015.071,0,.064.012.049.013-.015.011.011a.178.178,0,0,1-.054.083c-.028.027-.047.04-.041.03s0-.019-.005-.019-.02.02,0,.044.015.018,0,.008-.019,0-.013.028a.064.064,0,0,1-.011.056c-.023.019-.02.048.009.083s.019.025-.023,0-.082-.008-.078.047.023.04.035-.006c.005-.021.015-.038.023-.038s.017.021,0,.041a.023.023,0,0,0,0,.037.035.035,0,0,1,0,.041.038.038,0,0,0-.006.033c.013.021-.021.013-.044-.01s-.024-.017-.041.015-.025.037-.033.037-.009-.007,0-.015,0-.015-.007-.015-.014.018-.01.045,0,.045-.016.045-.021.016-.017.076,0,.073-.015.045c-.032-.049-.047-.037-.047.037s0,.068-.053.068-.053,0-.051.034c0,.059,0,.074-.019.062s-.011,0,0,.015.018.029,0,.051-.025.018-.025.007A.021.021,0,0,0,9,7.8c-.03,0-.029.069,0,.081s.01.042-.025.031-.026,0-.02.015,0,.021-.014.015-.026,0-.033.022S8.9,8,8.87,8a.176.176,0,0,0-.045.037c-.038.038-.05.084-.021.084.009,0,.012.007.006.015a.017.017,0,0,1-.023.007c-.013-.008-.02.013-.016.042,0,.006-.008.011-.021.011a.024.024,0,0,0-.022.025c0,.014,0,.021-.009.016s-.054.032-.043.049,0,.011-.017.005-.024,0-.016.015,0,.023-.037.015-.046-.006-.038.024,0,.036-.013.041-.017.014-.013.022-.01.013-.031.013-.037.007-.033.019-.007.036-.025.056l-.032.037L8.455,8.5c.019-.016.034-.022.035-.015s0,.025.006.04,0,.026-.009.026-.01.007-.005.015,0,.011-.017,0-.019-.012-.008-.016a.025.025,0,0,0,.018-.02c0-.009-.011-.009-.028,0s-.031.012-.035.008-.017,0-.028.018-.017.027,0,.032.019.012.019.02-.009.01-.021.005a.028.028,0,0,0-.032.01c-.007.012-.005.015.006.008s.017,0,.017.005-.011.016-.024.016-.022-.009-.016-.03,0-.03-.021-.03-.029.011-.029.038-.007.038-.015.038-.015.01-.015.022-.009.019-.023.013-.026,0-.031.019a.121.121,0,0,1-.052.054c-.025.014-.042.032-.037.039s0,.013-.014.013-.018,0-.005-.02-.012-.027-.041,0-.028.045,0,.03.013,0,.006.007a.019.019,0,0,1-.025.009c-.008,0-.024,0-.036.014-.029.029-.029.045,0,.034a.027.027,0,0,1,.032.008c.006.01,0,.012-.008.005s-.021,0-.026.02-.016.03-.046.022-.034,0-.03,0,0,.022-.013.033-.021.013-.021,0-.013-.016-.03-.016S7.815,9,7.815,9s-.011.015-.024.015-.021.008-.015.024a.147.147,0,0,1,.009.034c0,.006.007,0,.015-.013s.015-.019.015,0S7.8,9.1,7.784,9.1s-.027.007-.022.015,0,.011-.014.006-.02-.011,0-.032.018-.027.013-.032-.013,0-.017.009a.038.038,0,0,1-.035.019c-.018,0-.025.008-.02.021s0,.019-.03.013c-.044-.008-.052.017-.012.04.014.008.02.016.013.016s0,.012.007.027.018.024-.006.005c-.041-.032-.145-.039-.145-.01,0,.013-.013.023-.03.023a.027.027,0,0,0-.03.03c0,.022-.01.03-.039.03a.106.106,0,0,0-.068.034c-.016.019-.025.025-.02.015s0-.019-.006-.019a.016.016,0,0,0-.016.015c0,.008-.011.015-.024.015s-.022.009-.016.03a.049.049,0,0,1-.017.049c-.022.017-.022.016-.006-.005s0-.043-.032-.043a.215.215,0,0,0,0,.053c0,.03,0,.053-.01.053s-.013-.015-.009-.034,0-.035-.038-.038-.045,0-.045.013.01.013.022.008.022,0,.022.006-.012.015-.026.015-.022,0-.005.013-.015.029-.088.024a.112.112,0,0,0-.071.016.056.056,0,0,1-.049.011c-.018,0-.03,0-.03.01s.008.013.019.007.007,0-.008.019-.021.036-.015.043,0,.008-.008,0-.024,0-.033.024-.014.026-.015.015-.008-.015-.016-.01S6.8,9.612,6.8,9.6s.008-.022.022-.016.022,0,.022-.007-.015-.013-.034-.01-.032.013-.031.022-.008.016-.022.015-.024.007-.022.021,0,.016-.017,0-.085-.036-.085-.01c0,.009.012.013.026.007s.023-.007,0,.01-.035.056-.011.057.011.005,0,.015-.005.015.041.015.064-.007.064-.015.023-.015.052-.015a.075.075,0,0,0,.071-.03.071.071,0,0,1,.06-.03c.023,0,.041-.007.041-.015s.024-.015.052-.015a.075.075,0,0,0,.071-.03.069.069,0,0,1,.052-.03.056.056,0,0,0,.041-.013A.108.108,0,0,1,7.246,9.5c.032-.007.045-.018.045-.04s.01-.03.052-.03.052-.007.052-.015.012-.015.027-.015a.072.072,0,0,0,.048-.03.072.072,0,0,1,.048-.03c.015,0,.027-.007.027-.015s.011-.015.024-.015.047-.018.136-.09A.071.071,0,0,1,7.743,9.2a.069.069,0,0,0,.041-.03.069.069,0,0,1,.041-.03.018.018,0,0,0,.019-.015c0-.008.011-.015.024-.015a.14.14,0,0,0,.066-.045.153.153,0,0,1,.059-.045.171.171,0,0,0,.091-.095c0-.014.012-.019.036-.014s.038,0,.046-.025.018-.032.028-.032a.069.069,0,0,0,.04-.03.069.069,0,0,1,.04-.03,1.146,1.146,0,0,0,.171-.15,1.486,1.486,0,0,1,.166-.15.014.014,0,0,0,.013-.014.464.464,0,0,1,.082-.1.4.4,0,0,0,.082-.1.139.139,0,0,1,.077-.075.015.015,0,0,0,.013-.016A.674.674,0,0,1,9,8.03c.006,0,.011-.016.011-.03a.118.118,0,0,1,.046-.061A.079.079,0,0,0,9.1,7.845c0-.031,0-.054.007-.049a.016.016,0,0,1,0,.022c0,.008.005.014.022.014s.031-.01.031-.03.007-.03.015-.03.019-.017.024-.038a.225.225,0,0,1,.053-.082A.144.144,0,0,0,9.3,7.581a.065.065,0,0,1,.03-.046.066.066,0,0,0,.03-.049c0-.016.007-.03.015-.03s.015-.016.015-.036a.04.04,0,0,1,.03-.044.041.041,0,0,0,.03-.046.1.1,0,0,1,.022-.06.077.077,0,0,0,.022-.044.088.088,0,0,1,.03-.049.107.107,0,0,0,.03-.07c0-.024.007-.043.017-.043s.014-.02.011-.052,0-.048.007-.044.056-.027.056-.064c0-.02.007-.036.015-.036s.015-.017.015-.038-.009-.038-.021-.038a.162.162,0,0,1-.047-.01c-.019-.007-.023,0-.014.01s.006.016-.005.009c-.031-.019,0-.039.044-.031s.044,0,.044-.021A.04.04,0,0,1,9.7,6.716c.019-.005.032-.027.039-.069a.155.155,0,0,1,.024-.07A.133.133,0,0,0,9.776,6.5c0-.052.006-.067.03-.073s.03-.021.03-.084a.16.16,0,0,1,.015-.085.1.1,0,0,0,0-.105.035.035,0,0,1-.015-.027c0-.011.006-.009.015,0s.015.01.015-.028.006-.048.023-.042.042-.04.035-.155c0-.066,0-.091.014-.091s.019-.047.019-.185a.528.528,0,0,0-.019-.206c-.016-.018-.015-.018.009,0,.049.037.055-.008.055-.413s0-.459-.038-.459a.04.04,0,0,1-.031-.017c-.006-.01,0-.013,0-.008s.016-.051.018-.162a.538.538,0,0,0-.013-.181.316.316,0,0,1-.015-.127c0-.109-.032-.19-.062-.16a.216.216,0,0,1,0-.081c0-.054,0-.092-.01-.1a.113.113,0,0,1-.016-.071c0-.048-.006-.062-.03-.069s-.03-.021-.03-.08a.157.157,0,0,0-.014-.081.146.146,0,0,1-.024-.068c-.006-.039-.02-.062-.037-.068a.119.119,0,0,1-.047-.034c-.014-.018-.015-.022,0-.014s.019,0,.019-.041a.1.1,0,0,0-.015-.062.064.064,0,0,1-.015-.046c0-.048-.043-.065-.07-.028-.011.015-.02.02-.02.011a.035.035,0,0,1,.015-.026.094.094,0,0,0,.015-.061c0-.028-.007-.052-.015-.052s-.015-.016-.015-.036c0-.052-.015-.084-.039-.084s-.021-.015-.021-.036a.079.079,0,0,0-.022-.054.1.1,0,0,1-.026-.058C9.439,2.62,9.373,2.594,9.37,2.633ZM.533,2.909c0,.012,0,.022-.01.022s-.009.01,0,.023,0,.023-.008.023a.019.019,0,0,1-.018-.019c0-.015,0-.015-.009,0a.029.029,0,0,1-.025.018c-.01,0,0-.013.016-.029a.092.092,0,0,0,.034-.055C.509,2.862.528,2.875.533,2.909Zm-.017.114c-.009.045-.02.052-.031.021A.032.032,0,0,1,.5,3C.524,2.987.523,2.987.516,3.023Zm9.1.063a.033.033,0,0,1-.028.02.013.013,0,0,1-.013-.02.033.033,0,0,1,.028-.02A.013.013,0,0,1,9.618,3.086ZM.426,3.293a.053.053,0,0,1-.041.012C.359,3.3.358,3.3.378,3.3S.4,3.283.4,3.276s0-.01.015,0S.43,3.286.426,3.293Zm-.182.174c-.011,0-.019.035-.019.072s-.006.066-.03.072-.03.021-.03.091A.184.184,0,0,1,.15,3.8a.193.193,0,0,0-.015.095c0,.069-.006.089-.03.1s-.03.035-.03.124a.514.514,0,0,1-.022.16,1.158,1.158,0,0,0-.022.344,1.392,1.392,0,0,1-.015.3.236.236,0,0,0,0,.165A1.46,1.46,0,0,1,.03,5.4c0,.245,0,.3.022.321s.022.057.022.153c0,.118,0,.131.03.138s.03.021.03.1c0,.054.007.1.015.1s.015.037.015.083c0,.066.006.086.03.1s.03.035.03.075.007.057.015.057.015.029.015.065a.107.107,0,0,0,.039.1c.029.026.037.043.03.071s0,.04.014.046.023.027.023.053c0,.052.034.071.068.037A.082.082,0,0,1,.463,6.87c.031,0,.011-.076-.022-.084S.377,6.735.4,6.735a.015.015,0,0,1,.014.015.014.014,0,0,0,.012.015c.047,0,0-.1-.052-.106-.016,0-.019,0-.009-.009a.029.029,0,0,0,.019-.022c0-.008-.006-.011-.014-.006S.351,6.615.338,6.6.307,6.569.313,6.6c0,.007-.005.008-.014,0A.026.026,0,0,1,.29,6.576a.025.025,0,0,0-.006-.029.027.027,0,0,1,0-.031c.009-.024.027-.016.027.012,0,.009.01.019.022.022s.019,0,0-.008-.015-.017,0-.025a.042.042,0,0,0,.017-.033c0-.012-.005-.019-.012-.015A.039.039,0,0,1,.3,6.463C.282,6.453.284,6.45.311,6.449S.344,6.44.344,6.41s0-.038-.036-.03S.242,6.368.269,6.352s.017-.038-.016-.038-.027.006-.019.019c.017.028.019.056,0,.056S.224,6.38.224,6.37a.275.275,0,0,0-.009-.052c-.008-.028,0-.032.027-.027s.036,0,.039-.038,0-.045-.012-.045S.255,6.2.255,6.178s-.01-.03-.023-.03S.212,6.142.217,6.133s.014-.012.02-.009S.249,6.117.251,6.1s0-.026-.008-.018S.18,6.1.18,6.08s.026-.041.035-.018.008.014.009,0,.008-.015.016-.01.015,0,.015-.008S.244,6.029.23,6.034s-.022,0-.015-.013S.216,6,.206,6s-.02-.01-.024-.026a.083.083,0,0,0-.023-.043c-.011-.008-.008-.01.007,0s.024,0,.022-.072c0-.044-.007-.077-.013-.073s-.011,0-.011-.01S.156,5.761.146,5.767s-.013,0,0-.013S.158,5.69.135,5.7A.019.019,0,0,1,.111,5.7c-.007-.011,0-.014.006-.007s.017,0,.017-.005a.016.016,0,0,0-.016-.016c-.009,0-.012-.007-.007-.015.014-.023.035-.018.041.011S.161,5.648.162,5.6.157,5.5.148,5.5s-.011.007-.006.015,0,.019-.014.024c-.031.012-.03.032,0,.041s.018.007-.007.009S.076,5.551.113,5.537s0-.054-.038-.043S.049,5.5.06,5.448a.27.27,0,0,0,.007-.084c0-.016,0-.025.009-.02a.017.017,0,0,1,.006.023c0,.008,0,.014.006.014a.033.033,0,0,0,.024-.015c.018-.029.032-.014.026.028,0,.023-.015.043-.026.043S.1,5.427.1,5.413s0-.02-.009-.008-.006.071.017.056.011,0,.005.008,0,.017.011.017c.028,0,.04-.032.04-.108,0-.054,0-.06-.031-.052-.063.017-.075,0-.072-.11A.414.414,0,0,0,.054,5.1c-.006-.009,0-.017.005-.017A.019.019,0,0,1,.076,5.1c0,.01.007,0,.014-.015a.371.371,0,0,0,0-.169C.09,4.9.084,4.9.066,4.924s-.024.029-.013,0a.672.672,0,0,0,.011-.135V4.683l.021.18,0-.086c0-.081,0-.086.04-.086s.057-.279.014-.3c-.011,0-.017-.014-.012-.022a.016.016,0,0,1,.022-.005c.008,0,.014-.005.014-.022,0-.036-.081-.046-.1-.012,0,.01-.006.005,0-.011S.077,4.293.087,4.3A.015.015,0,0,0,.105,4.28c0-.013,0-.012.014,0s.017.014.032-.018.025-.036.033-.031.01,0,0-.009a.032.032,0,0,0-.036-.01c-.019.006-.025,0-.025-.028s0-.033.01-.03.015,0,.02-.009.014-.013.02-.009.012-.01.014-.03,0-.036-.018-.036c-.031,0-.042-.025-.015-.036s.019,0,.013.008,0,.013.007.006.022-.035,0-.043,0,0,.015,0,.034,0,.034-.01S.214,3.983.2,3.983c-.029,0-.028-.015,0-.058.019-.027.027-.03.037-.015s.012.01.01-.014S.241,3.865.229,3.87.2,3.861.209,3.82c0-.011,0-.016-.012-.011s-.011,0-.005-.025.01-.029.015-.007.013.022.022.016.012,0,.006.006a.019.019,0,0,0,.005.026c.008.005.015,0,.015-.014s.008-.023.017-.023.014-.024.008-.075,0-.075.014-.075.018-.007.013-.015,0-.015.013-.015S.342,3.6.34,3.579.331,3.553.323,3.557.3,3.546.29,3.525.276,3.49.29,3.5s.008,0,0-.015a.126.126,0,0,0-.022-.024Zm.018.157c-.008.04-.016.049-.036.036s-.011-.019,0-.039C.246,3.583.269,3.585.262,3.625Zm9.583.2c.007.011,0,.013-.007.007s-.017,0-.017,0-.01.013-.022.013-.018,0-.006-.02S9.831,3.8,9.845,3.82Zm-.018.066c0,.011-.008.018-.033.018s-.032,0-.021-.007.016-.012.012-.018,0-.011.014-.011A.032.032,0,0,1,9.826,3.886ZM.1,4.464c.012.008.018.018.014.022s-.021,0-.037-.014C.05,4.448.069,4.441.1,4.464Zm-.014.068c.008,0,.009,0,0,.016s-.012.021-.022,0-.013-.016-.013,0,0,.018-.007.014a.074.074,0,0,1,0-.044c.008-.029.011-.031.015-.01S.083,4.536.091,4.532Zm.047.1c0,.022,0,.038-.018.042s-.018,0,0-.007S.131,4.645.11,4.629s-.021-.013-.015,0a.021.021,0,0,1-.007.029c-.011.007-.014,0-.007-.006s0-.017-.005-.017S.06,4.618.061,4.6s0-.018.008-.008A.022.022,0,0,0,.1,4.6.018.018,0,0,0,.11,4.579c-.007-.012,0-.013.007,0A.1.1,0,0,1,.138,4.629Zm9.8.018c-.011.007-.013.013,0,.013s.016.011.016.023-.007.021-.016.018-.017-.02-.011-.071c0-.009.009-.011.018-.006S9.953,4.638,9.938,4.647Zm.027.189c-.005.005,0,.018.006.029s.01.022,0,.028a.018.018,0,0,1-.025-.007c-.011-.018,0-.06.017-.06S9.971,4.83,9.966,4.835ZM.09,4.962c0,.008-.017.014-.038.014S.016,4.97.02,4.964.09,4.945.09,4.962Zm-.02.093c-.03.019-.036.013-.029-.026s.009-.036.027-.011S.083,5.046.07,5.054Zm9.883.1c0,.061-.021.055-.021-.008,0-.028.005-.048.012-.044S9.954,5.133,9.953,5.157ZM.079,5.224c0,.041,0,.056.006.034a.269.269,0,0,0,0-.075C.082,5.164.079,5.182.079,5.224ZM9.9,5.662c.016.016,0,.035-.027.026s-.018-.015-.014-.022A.025.025,0,0,1,9.9,5.662ZM.145,5.873c-.015.016-.038-.012-.029-.035s.011-.021.023,0S.149,5.869.145,5.873Zm9.515.8a.016.016,0,0,0-.009.024c.006.01,0,.01-.011,0s-.018-.021,0-.033.025-.01.03,0S9.67,6.667,9.66,6.67ZM.419,6.831a.02.02,0,0,1,.022-.016c.017,0,.018.007.006.028S.4,6.871.392,6.831c0-.024,0-.025.011-.006S.419,6.84.419,6.831Zm9.1.063c0,.02,0,.021.022.006a.079.079,0,0,0,.022-.024s-.01-.006-.022-.006A.024.024,0,0,0,9.521,6.894ZM.445,6.9c-.032.019-.035.05,0,.038.013,0,.019,0,.015,0a.018.018,0,0,0,.007.023c.009.005.015,0,.013,0-.009-.05,0-.067.026-.043s.028.021.032.017C.562,6.912.484,6.879.445,6.9Zm.049.074C.494,7,.5,7,.513,7s.015-.007,0,.009-.064.032-.055.008a.04.04,0,0,0-.016-.038C.422,6.959.419,6.963.419,7a.081.081,0,0,0,.015.055A.05.05,0,0,1,.449,7.1a.087.087,0,0,0,.03.055.084.084,0,0,1,.03.05.319.319,0,0,0,.074.15c.007,0,.018.02.023.045s.016.045.024.045.014.012.014.026c0,.032.07.114.087.1s.01.009.006.03a.064.064,0,0,0,.022.063.391.391,0,0,1,.063.1c.019.039.041.071.049.071.024,0,.057.041.057.071a.073.073,0,0,0,.03.049.073.073,0,0,1,.03.037c0,.033.043.072.068.062s.023-.012,0-.039-.021-.03-.015-.03.021.012.033.026.02.023.012-.011L1.077,7.96,1.1,8c.026.043.03.075.009.075s-.01-.011,0-.025,0-.021-.006-.015a.068.068,0,0,0,0,.1.118.118,0,0,1,.029.038.772.772,0,0,0,.09.1.4.4,0,0,1,.09.111.022.022,0,0,0,.022.023c.012,0,.034.017.049.039.07.1.243.255.192.172-.005-.008,0-.015.018-.015s.024,0,0-.015-.015-.015,0-.015.044.034.022.041-.02.059.016.083a.8.8,0,0,1,.07.054.14.14,0,0,0,.049.032c.007,0,.013.01.013.023s.007.023.016.023.012-.006.007-.014a.018.018,0,0,1,.007-.024c.011-.007.011-.016,0-.03s-.011-.023,0-.029.022,0,.031.02.01.031,0,.034c-.032.012-.034.073,0,.073s.031.01.031.03.009.03.02.03c.043,0,.115.048.115.076A.026.026,0,0,0,2,9.02a.153.153,0,0,1,.067.039.322.322,0,0,0,.141.081.069.069,0,0,1,.039.03.072.072,0,0,0,.048.03.025.025,0,0,1,.027.022.039.039,0,0,0,.029.031.064.064,0,0,1,.037.031.05.05,0,0,0,.045.022.063.063,0,0,1,.046.015c.015.025.041.017.031-.009s0-.022.013-.016.029,0,.039-.023.012-.028,0-.021-.016,0-.016-.013a.023.023,0,0,0-.022-.023c-.012,0-.022.007-.022.016s.006.012.012.008.013,0,.013.013-.007.017-.023.009a.035.035,0,0,0-.044.008.034.034,0,0,1-.038.011c-.011-.007-.01-.013,0-.018s.065-.047.046-.047-.012-.01-.007-.023,0-.023-.009-.023-.014.006-.009.014a.018.018,0,0,1-.007.024.018.018,0,0,0-.007.024c0,.008,0,.014-.007.014s-.014-.015-.014-.034c0-.054,0-.071-.016-.071s-.012.012-.009.026c.005.031-.02.067-.039.055a.053.053,0,0,1-.012-.041c0-.025,0-.027.009-.007.011.042.027.031.029-.02s0-.045-.026-.039-.028,0-.028-.014-.015-.021-.037-.021a.062.062,0,0,1-.046-.015.017.017,0,0,0-.023-.007c-.008,0-.01,0,0-.015s0-.023-.014-.023A.031.031,0,0,1,2.167,9c0-.01-.014-.013-.025-.006s-.015.015,0,.023.008.014-.012.019-.028,0-.014-.027c.021-.046-.01-.079-.069-.071-.034,0-.041,0-.034-.017a.027.027,0,0,0-.006-.032.02.02,0,0,1,0-.027c.006-.01,0-.008-.017,0s-.027.02-.017-.011,0-.034-.006-.034-.013.006-.008.014a.017.017,0,0,1-.007.023c-.009.005-.015,0-.015-.023A.04.04,0,0,0,1.9,8.8a.04.04,0,0,1-.03-.038c0-.02-.007-.027-.021-.022s-.033-.008-.048-.028a.088.088,0,0,0-.054-.037c-.018,0-.026-.012-.026-.038S1.714,8.6,1.706,8.6s-.012.006-.007.014a.018.018,0,0,1-.007.024c-.009.005-.015,0-.013,0,.007-.041,0-.065-.031-.065s-.03-.01-.03-.031-.006-.027-.014-.022-.024,0-.036-.014A.087.087,0,0,0,1.5,8.486q-.047.006-.056-.015a.018.018,0,0,0-.025-.012c-.01.006-.01,0,0-.011.026-.028.023-.059,0-.059-.013,0-.019-.007-.014-.015a.017.017,0,0,1,.023-.007c.008,0,.014-.005.014-.022s-.007-.031-.016-.031-.011.008-.005.017,0,.013-.007.007A.042.042,0,0,1,1.392,8.3c0-.012-.013-.022-.03-.022s-.03-.01-.03-.032-.007-.029-.021-.024-.019,0-.013-.02a.066.066,0,0,0-.056-.072C1.216,8.13,1.2,8.1,1.207,8.085s0-.023-.016-.036-.023-.018-.023-.012-.012,0-.026-.018a.481.481,0,0,1-.1-.152c0-.011-.012-.02-.027-.02S.988,7.841.988,7.832a.016.016,0,0,1,.017-.015c.01,0,0-.013-.015-.028A.091.091,0,0,1,.958,7.74c0-.012-.013-.021-.029-.021S.9,7.724.908,7.73s0,.012-.016.012-.025-.025,0-.054c.011-.013.018-.013.026,0s.011.008.011-.009S.917,7.652.9,7.652s-.027.007-.022.015,0,.015-.007.015S.847,7.661.852,7.633c0-.006,0-.011-.013-.011s-.021.023-.015.053c0,.008,0,.01-.009,0a.036.036,0,0,1,.01-.064.041.041,0,0,0,0-.075.016.016,0,0,1-.011-.023C.821,7.508.8,7.481.78,7.457a.126.126,0,0,1-.046-.083c0-.023-.006-.036-.015-.031S.7,7.342.7,7.328a.08.08,0,0,0-.023-.047C.669,7.269.662,7.252.667,7.245.683,7.219.65,7.231.626,7.26s-.02.031-.007.036S.625,7.3.611,7.3.587,7.3.588,7.277.6,7.251.6,7.255s.043-.045.043-.083c0-.017-.007-.031-.014-.031s-.043.047-.037.072,0,.013,0,0S.571,7.206.557,7.211s-.021.005,0-.007.037-.068.015-.054-.014,0-.014-.015.009-.02.026-.014S.586,7.114.561,7.1L.509,7.054s0-.011.013-.018A.051.051,0,0,0,.537,6.99C.53,6.945.494,6.932.494,6.975Zm8.986.116c-.015.006-.015.013,0,.029s.013.026.008.031-.01,0-.01-.009-.006-.015-.014-.01-.012-.017,0-.048c0,0,.01,0,.02,0S9.494,7.085,9.48,7.091Zm-.1.172a.029.029,0,0,0,.007.033c.012.012.017.008.017-.016S9.394,7.237,9.378,7.262ZM9.3,7.473c-.013.021-.051.015-.051-.008s.01-.018.03-.013S9.308,7.466,9.3,7.473ZM.817,7.564q.011.017-.009.005C.793,7.56.791,7.564.8,7.584s.007.024-.013.008-.02-.022,0-.032S.8,7.544.817,7.564Zm8.36.164a.015.015,0,0,1-.016.015c-.009,0-.012-.007-.007-.015s0-.019-.029-.006c-.013.005-.02.014-.016.021s0,.016-.016.021-.019,0,0-.035S9.177,7.685,9.177,7.728ZM.969,7.816c-.005.02,0,.034.028.045s.047.053.022.069c-.007,0-.01-.007-.005-.025l.008-.034L.987,7.9c-.02.016-.028.02-.017.008C1,7.877.993,7.867.954,7.857S.925,7.844.941,7.834a.023.023,0,0,0,.01-.03c-.006-.009,0-.017.007-.017S.973,7.8.969,7.816Zm8.118.048c0,.017-.043.03-.052.016a.017.017,0,0,1,0-.019C9.046,7.848,9.087,7.851,9.087,7.863Zm-.15.174c0,.011-.013.017-.031.013s-.029,0-.024.014,0,.019-.025.018a.056.056,0,0,0-.043.013c-.007.01-.011.01-.011,0s.086-.075.116-.075A.019.019,0,0,1,8.938,8.037ZM1.28,8.2a.163.163,0,0,0-.012.045c0,.024,0,.024-.042-.014-.026-.023-.028-.03-.009-.023A.025.025,0,0,0,1.252,8.2c0-.012.015-.022.023-.022S1.286,8.19,1.28,8.2Zm7.381.17c0,.008,0,.014-.015.014s-.023.007-.023.015-.008.013-.019.011-.017.01-.015.034,0,.029,0,.019-.014-.013-.031,0a.067.067,0,0,1-.04.021c-.012,0-.012,0,0-.009a.016.016,0,0,0,.009-.024c-.006-.009,0-.012.007-.006s.049-.034.057-.069c0-.019.005-.02.036-.022A.046.046,0,0,1,8.661,8.374Zm-7.214.051c-.005.014,0,.029.021.039.035.019.059.007.058-.028,0-.017,0-.019-.009-.006s-.013.015-.034,0S1.455,8.4,1.447,8.425ZM8.3,8.732c-.028.012-.043-.024-.023-.057s.02-.032.028.01C8.314,8.708,8.311,8.729,8.3,8.732Zm-.045.023a.09.09,0,0,1-.057.058c-.019.007-.023,0-.017-.02s.016-.027.03-.021.019,0,.014-.012,0-.02.012-.02S8.261,8.746,8.259,8.755Zm-6.4.048a.038.038,0,0,1,.023.034c0,.022,0,.022-.02,0s-.047-.037-.032-.011c.005.008,0,.015-.007.015s-.021-.02-.006-.035S1.833,8.792,1.863,8.8Zm.163.1c0,.026.027.022.036-.005,0-.01,0-.018-.015-.018A.022.022,0,0,0,2.026,8.908Zm.076.066c0,.007,0,.017-.013.022s-.039,0-.039-.022S2.092,8.956,2.1,8.973Zm.192.152c.025.029.024.03-.015.03s-.035,0-.02-.013a.023.023,0,0,0,.01-.03C2.253,9.085,2.267,9.093,2.295,9.125Zm5.311.086c.017-.015.017-.014,0,.009s-.029.024-.039.02a.018.018,0,0,0-.024.008c0,.008-.017.011-.031.005s-.022-.013.008-.038.036-.025.05-.007S7.59,9.226,7.606,9.211Zm-5.035.1c0,.017-.014.028-.022.023s-.011.009-.006.03.012.038.069.031c.034,0,.053,0,.043,0-.026.01-.023.035,0,.035a.138.138,0,0,1,.064.038c.042.039.078.044.089.011,0-.011,0-.017-.012-.015a.023.023,0,0,1-.025-.015c0-.011.005-.019.022-.019s.029.01.029.034c0,.066,0,.071.047.071s.045.009.051.03.02.03.054.03.046.007.046.015.019.015.042.015a.082.082,0,0,1,.063.03.086.086,0,0,0,.077.03.1.1,0,0,1,.065.015.071.071,0,0,0,.051.015.1.1,0,0,1,.074.038.107.107,0,0,0,.1.038c.037,0,.067.007.067.015s.026.015.058.015a.107.107,0,0,1,.086.031c.024.026.042.03.115.026s.086,0,.086.015.016.019.041.017c.126-.008.18,0,.188.031s.02.03.159.03c.091,0,.151.006.151.015s.01.015.022.015a.021.021,0,0,0,.023-.019c0-.014,0-.014.013,0s.018.02.024.02.017-.009.025-.02.016-.015.024,0,.064.016.176.013c.209-.006.2,0,.157-.031-.021-.013-.025-.019-.01-.015a.573.573,0,0,0,.112.009c.06,0,.078,0,.062.015s-.029.017.163.023a.46.46,0,0,0,.142-.005.082.082,0,0,1-.017-.047c0-.029,0-.033.011-.015s.015.02.017,0,.006,0,.011.021c.01.046.128.078.151.04a.15.15,0,0,1,.08-.02c.065,0,.091-.017.056-.029-.008,0,0-.021.012-.04.026-.034.026-.034.053-.005s.022.032.008.041-.014.005-.008-.005-.009-.035-.033-.02a.031.031,0,0,0-.009.037c.014.037.126.034.168,0a.111.111,0,0,1,.06-.03.089.089,0,0,0,.054-.029.051.051,0,0,1,.05-.02c.018.007.021,0,.014-.016s0-.025,0-.025a.017.017,0,0,1,.014.019c0,.034-.026.061-.051.052S6,9.884,6,9.892s.02.015.045.015.045-.007.045-.015.039-.015.087-.015c.066,0,.095-.007.119-.03a.132.132,0,0,1,.092-.03A.113.113,0,0,0,6.46,9.8a.1.1,0,0,1,.065-.015c.077,0,.1-.019.1-.082V9.652l-.071,0c-.039,0-.071.007-.071.015s-.038.013-.084.013c-.08,0-.084,0-.076.034s-.029.1-.042.07a.054.054,0,0,0-.045-.023c-.024,0-.034,0-.028.015s0,.01-.011,0-.069-.024-.078,0-.036.018-.091.016c-.074,0-.084,0-.084.026s0,.033-.2.032c-.127,0-.187.032-.112.062.014.006.014.008,0,.009s-.016.006-.013.012-.011.012-.032.014-.035,0-.014-.012c.044-.025.032-.063-.016-.052a.269.269,0,0,1-.056.009,4.446,4.446,0,0,0-.913.016c0,.008.02.009.034,0A.109.109,0,0,1,4.671,9.9l.067.006c.042,0,.042,0,.007.01a.12.12,0,0,0-.063.039c-.021.027-.029.029-.045.013s-.015-.018,0-.01a.024.024,0,0,0,.033-.014c.007-.017,0-.023-.027-.023a.049.049,0,0,0-.043.019c-.006.015-.008.015-.009,0s-.015-.019-.032-.019-.027-.007-.022-.015,0-.015-.007-.015a.016.016,0,0,0-.016.016c0,.009-.015.006-.033-.008a.14.14,0,0,0-.067-.023c-.019,0-.034-.005-.034-.012s-.064-.018-.088,0-.02.014-.011,0-.006-.019-.057-.019-.068.007-.068.018,0,.014-.018,0-.025-.012-.049.008-.026.02-.02.012,0-.024-.007-.037-.015-.021,0-.012.019,0,.019-.02A.037.037,0,0,0,4.021,9.8c0,.007,0,.012.018.01s.018,0,.008,0-.024.023,0,.044.009.016-.007.016-.019,0-.016-.01c.017-.027-.042-.075-.091-.075-.028,0-.052-.005-.052-.012s-.02-.013-.045-.015-.045,0-.045.013.006.012.014.008a.015.015,0,0,1,.021,0c0,.007-.006.013-.021.014s-.029-.007-.029-.019a.022.022,0,0,0-.022-.022.023.023,0,0,0-.022.023c0,.013-.007.019-.015.014a.018.018,0,0,1-.006-.024c0-.008,0-.012-.011-.01s-.018-.009-.015-.039l0-.043L3.6,9.684c-.056,0-.084,0-.084-.012s-.023-.016-.056-.015-.057,0-.061-.032-.093-.052-.093-.018c0,.009.006.012.014.007a.043.043,0,0,1,.06.035c0,.016,0,.018-.009.006a.016.016,0,0,0-.024-.009c-.009.006-.012,0-.006-.007s0-.017-.016-.017c-.065,0-.075-.007-.068-.034s-.049-.037-.109-.013a.046.046,0,0,1-.067-.04c0-.015.009-.019.03-.012s.03,0,.03-.006-.055-.021-.068,0-.014.011-.02,0-.079-.053-.088-.044,0,.009.009.009.017.012.017.026,0,.023-.015,0-.015-.019-.015,0-.008.026-.017.026-.013-.01-.008-.023,0-.019-.006-.014-.015-.016-.015-.054c0-.061,0-.063-.045-.056s-.045,0-.045-.013-.007-.02-.015-.02-.015.011-.015.025,0,.022-.021,0-.026-.026-.064-.01-.039.016-.017,0c.038-.03.034-.07-.007-.069-.019,0-.025,0-.015.009s.009.035-.021.035c-.012,0-.019-.006-.014-.014s-.03-.061-.051-.061S2.575,9.29,2.57,9.307Zm4.855.06s-.01.009-.022.009-.026,0-.013-.033S7.424,9.337,7.425,9.367Zm-4.543.115c.019.03.021.036,0,.023S2.86,9.49,2.855,9.5s-.008-.005-.007-.023C2.851,9.433,2.851,9.433,2.883,9.482Zm4.184.049c.007,0,.01.01,0,.023s-.015.023-.024.023-.011-.011-.006-.025.005-.021-.011-.007-.025.013-.037,0c-.026-.031.01-.061.038-.032A.071.071,0,0,0,7.067,9.531ZM3.2,9.587c-.015,0-.022.014-.016.023s0,.012-.007.005-.017,0-.017.006-.007.012-.016.007.029-.052.061-.05C3.219,9.579,3.218,9.582,3.2,9.587Zm3.213.133c0,.013.016.019.024.014a.017.017,0,0,0,.007-.024c0-.008,0-.014.014-.014a.041.041,0,0,1,.032.015c.005.008,0,.015-.007.015s-.013.007-.007.015,0,.015-.014.015-.023.007-.023.016-.007.011-.017.006a.023.023,0,0,0-.03.01c-.011.017-.016.017-.028,0-.022-.034-.018-.043.015-.034s.028,0,.021-.016a.024.024,0,0,0-.033-.014c-.016.006-.02,0-.013-.008A.033.033,0,0,1,6.413,9.72Zm-.225.115c0,.006-.016,0-.027-.008S6.144,9.8,6.148,9.8s.016,0,.027.008S6.192,9.829,6.188,9.835Zm-2.22,0c.015.018.015.027,0,.041s-.017.011-.016,0c.008-.041,0-.061-.016-.038s-.015.019-.015,0S3.942,9.809,3.968,9.84Zm.236.049c-.017,0-.022.014-.017.03s0,.022-.011.007.008-.071.036-.053C4.223,9.88,4.221,9.885,4.2,9.889Zm.86.014a.858.858,0,0,1-.127,0C4.9,9.9,4.93,9.9,5,9.9S5.1,9.9,5.064,9.9Zm.262.014a.123.123,0,0,1-.052,0c-.014,0,0-.007.026-.007S5.34,9.914,5.326,9.917Zm.21.007a.053.053,0,0,1-.04.023c-.021,0-.03,0-.024-.011A.026.026,0,0,1,5.5,9.928c.012,0,.021,0,.021-.007s0-.015.009-.015S5.539,9.915,5.536,9.924Zm-.191.035a.024.024,0,0,1-.024.023c-.02,0-.021,0-.006-.023a.079.079,0,0,1,.024-.023S5.345,9.947,5.345,9.96Z" fill="#0bd1b8" fill-rule="evenodd"/>
</svg>
