<svg id="Orange_X" data-name="Orange X" xmlns="http://www.w3.org/2000/svg" width="18.797" height="18.795" viewBox="0 0 18.797 18.795">
  <path id="Path_11" data-name="Path 11" d="M.716.985a.161.161,0,0,0,.023.025c.006.005,0,.021-.014.035a.033.033,0,0,1-.045.007c-.011-.01-.015,0-.01.023s0,.047-.055.066-.06.027-.023.052.035.054-.031.056c-.037,0-.039,0-.011.011s.024.02.007.038a.063.063,0,0,1-.066.011C.457,1.294.453,1.3.46,1.346c0,.03.018.057.03.06s0,.027-.028.055-.048.04-.041.006,0-.039-.022-.013-.015.068.031.057a.056.056,0,0,1,.048.012c.012.012,0,.02-.028.023-.051,0-.079.061-.035.071.015,0,.019.024.01.045s0,.042.016.046.012.01-.018.013-.047.012-.033.045a.041.041,0,0,1-.017.056c-.023.01-.023.021,0,.031s.049.12.014.12c-.012,0-.019-.025-.016-.056.005-.05,0-.049-.015,0-.011.033-.01.062,0,.066.035.008.039.146.006.167-.016.01-.013.039.005.065s.026.053.017.063,0,.036.028.061.035.059.007.1c-.054.089-.054.1,0,.109.078.007.108.042.063.072-.022.015-.032.035-.022.045s0,.021-.015.026-.021.011,0,.015.025.018.019.031c-.015.03.047.125.068.1s.048-.093.024-.1S.537,2.736.547,2.726a.034.034,0,0,1,.045.008.038.038,0,0,1,0,.053c-.024.024-.019.041.022.072.007.005.009.027,0,.048s0,.033.014.017a.03.03,0,0,1,.041,0c.01.01.006.022-.01.026s-.02.015-.01.026a.027.027,0,0,1,0,.038C.644,3.02.633,3.018.63,3S.613,2.992.6,3s-.009.031.014.042c.07.034.085.032.076-.007C.685,3.018,1.929,4.248,3.5,5.817c1.873,1.873,2.824,2.812,2.84,2.8.033-.016.126.081.147.154s.051.116.071.1a.026.026,0,0,0,0-.036c-.014-.014-.007-.021.026-.024s.042-.012.032-.037.009,0,.036.033c.039.051.056.06.078.037s.03-.018.033.011.092.058.092.018c0-.01.019,0,.042.033s.046.043.057.017.018-.022.022-.006.024.021.045.012a.065.065,0,0,1,.067.012c.025.025.023.028-.014.02s-.043,0-.043.019.024.025.053.02.053,0,.053.015.02,0,.043-.02a.135.135,0,0,1,.1-.033.123.123,0,0,0,.076,0,.407.407,0,0,1,.2,0,.165.165,0,0,0,.057.024c.039.01.043.007.023-.015s-.02-.026.017-.018A.063.063,0,0,1,7.7,9c0,.026.01.013.013-.03s.011-.062.016-.043.022.023.047,0,.041-.025.044-.009.048,0,.1-.068c.016-.02.032-.024.036-.007A.03.03,0,0,0,8,8.867c.016,0,.015-.021,0-.038-.038-.038,0-.04.048,0,.021.015.041.017.045,0A.029.029,0,0,0,8.079,8.8c-.032-.016.037-.065.091-.064s.051.006.029.058-.014.048.005.03a.1.1,0,0,0,.025-.076c-.005-.054.113-.188.124-.141a.031.031,0,0,1-.024.036c-.017,0-.018.01,0,.014.034.008.18-.162.182-.212,0-.071.145-.18.2-.158.038.015.054.011.048-.013s-.017-.026-.027-.015a.027.027,0,0,1-.038,0c-.011-.011,0-.027.016-.036s.033-.027.03-.041-.024,0-.045.024-.047.042-.056.033.011-.037.045-.061a.133.133,0,0,0,.062-.1A.124.124,0,0,1,8.775,8a.057.057,0,0,0,.013-.058c-.01-.023,0-.029.032-.023s.039,0,.022-.016-.011-.026,0-.03.018-.023.009-.043a.074.074,0,0,1,.021-.074c.02-.02.024-.04.008-.044s-.02-.015-.01-.026.006-.032-.01-.047-.015-.034.01-.045.026-.02.009-.024c-.037-.009-.037-.115,0-.124.017,0,.012-.014-.009-.024s-.028-.027-.01-.045.021-.036.012-.045.008-.036.038-.06c.067-.054.075-.078.029-.1-.02-.009-.039,0-.042.01-.009.04-.028.009-.029-.047a.119.119,0,0,1,.019-.07c.011-.011,0-.035-.033-.055s-.043-.042-.027-.053.009-.028-.011-.043c-.049-.035-.052-.168,0-.189.021-.009.03-.025.021-.034s-.064.013-.094.056c-.006.008-.019.007-.029,0s0-.048.045-.084a.053.053,0,0,0,0-.058c-.014-.032-.019-.032-.022,0-.006.067-.048.053-.046-.015,0-.033,0-.046,0-.029-.006.048-.03.061-.059.032a.038.038,0,0,1,0-.053c.018-.018.009-.045-.029-.082s-.045-.06-.023-.07a.022.022,0,0,0,.009-.038c-.013-.013-.029-.011-.035,0s-.808-.77-2.81-2.772C4.206,2.048,2.958.794,2.971.8A.039.039,0,0,0,3.013.794C3.023.784,3,.769,2.959.76c-.086-.018-.164-.086-.112-.1.019,0-.007-.015-.058-.024S2.7.611,2.693.586s0-.026-.007,0c-.006.07-.05.09-.088.04A.694.694,0,0,0,2.24.5.132.132,0,0,1,2.16.479a.027.027,0,0,0-.038,0c-.01.01-.03.005-.045-.01S2.061.436,2.1.423,2.153.4,2.14.388a.027.027,0,0,0-.038,0A.166.166,0,0,1,2.008.4c-.041,0-.059,0-.039.007s.025.015-.024.03A.065.065,0,0,1,1.859.413C1.834.371,1.832.372,1.829.432S1.821.5,1.772.5,1.662.423,1.713.412C1.731.407,1.729.4,1.705.4s-.036,0-.029.05S1.682.5,1.638.491a.054.054,0,0,0-.064.023c-.009.02-.025.027-.036.016s-.04,0-.064.025S1.421.589,1.4.572a.037.037,0,0,0-.052,0A.066.066,0,0,1,1.3.59c-.017,0-.011-.016.014-.029C1.351.541,1.35.54,1.3.545c-.031,0-.056-.005-.056-.018S1.235.51,1.227.518a.119.119,0,0,0-.008.071c0,.042,0,.053-.026.043s-.033,0-.037.035S1.143.712,1.11.7,1.034.731.929.84C.792.982.712,1.016.81.89.854.834.85.835.782.9.74.937.71.977.716.985Zm-.164.371c0,.034-.061.04-.069.007s.005-.029.031-.029S.552,1.345.552,1.357Zm2.2-.691c0,.015.015.018.026.007S2.8.666,2.8.682c.013.053-.026.062-.066.015C2.718.671,2.71.647,2.723.644A.026.026,0,0,1,2.752.666Zm.737,5.195C5,7.371,5.619,7.986,4.867,7.229S2.879,5.236,2.121,4.484,1.979,4.351,3.489,5.861ZM.773,16.22c.01.01.007.022-.008.025a.027.027,0,0,0-.02.032c.011.045.076,0,.071-.051S1.187,15.8,3.5,13.483l2.687-2.7L3.47,13.494C1.567,15.39.759,16.207.773,16.22ZM8.607,8.377c.025.026.057.016.073-.022s.009-.035-.022-.028C8.609,8.339,8.588,8.358,8.607,8.377ZM13.52,3.461C15.287,1.7,16.207.8,16.219.807s-.9.938-2.672,2.716l-2.69,2.7,5.4-5.361L13.476,3.647c-2.171,2.177-2.784,2.781-2.8,2.765s-.019.011-.016.05-.005.071-.03.071c-.044,0-.076.11-.042.144.012.012.008.036-.01.052s-.027.017-.019,0c.036-.085-.065-.095-.1-.01-.026.057-.025.059.035.052s.058,0,0,.038-.058.044,0,.036.06-.006,0,.033-.05.045-.022.057.025.021,0,.032-.024.021-.005.029.016.03,0,.054a.173.173,0,0,0-.03.108c.005.074-.014.114-.028.057,0-.02-.013.009-.02.064-.008.071,0,.11.036.134s.037.036.025.039-.032.037-.044.075-.033.071-.047.072-.008.006.012.011.037,0,.04-.032.014-.031.049,0,.043.069-.013.069c-.021,0-.038.016-.044.043s0,.037.027.009.036-.031.029.02c0,.03,0,.054.01.054s.029.034.042.076.037.079.052.083.013.01-.007.015a.048.048,0,0,1-.051-.027c-.009-.02-.018-.025-.022-.012s.026.052.065.086a.255.255,0,0,1,.1.206c0,.019,0,.022.018.009s.042,0,.067.023.038.051.03.059a.175.175,0,0,0-.023.07c-.008.054-.007.055.025.023a.086.086,0,0,0,.027-.066c0-.02.005-.021.025,0s.023.039.014.049.014.05.053.089.079.063.089.053c.028-.028.059.018.051.077-.005.038,0,.048.017.031s.031-.008.041.013.024.03.032.021.027,0,.042.021a.119.119,0,0,0,.071.042c.035,0,.037.008.01.015s-.027.017-.017.028.031.006.046-.009.031-.015.034,0,.019.016.034,0a.045.045,0,0,1,.063.008c.04.04.007.073-.066.066-.03,0-.041,0-.028.016a.12.12,0,0,0,.074.022.132.132,0,0,1,.081.028c.015.015.036.019.047.009s.007-.021-.007-.025-.018-.023-.009-.043.028-.024.06.007.033.048.007.06-.029.024-.02.033c.03.03.061.017.076-.032s.082-.037.12.027c.01.017.016.022.012.01-.012-.043.1-.05.141-.009a.1.1,0,0,0,.072.036.034.034,0,0,1,.038.026c.005.018.01.02.01.005s.021-.029.044-.032a.074.074,0,0,0,.057-.035.067.067,0,0,1,.061-.029c.039,0,.042.007.02.029s-.009.064.035.054c.016,0,.022-.014.013-.022s.079-.112.119-.1a.442.442,0,0,0,.255-.1c.014-.02.035-.027.046-.016s.007.023-.009.027-.021.015-.011.025.046-.017.088-.068.079-.082.108-.069.042,0,.045-.013.04-.026.082-.022l.075.008L15.82,5.861C17.354,4.337,18.6,3.085,18.6,3.079a33.769,33.769,0,0,0-2.847,2.78C13.261,8.348,12.9,8.7,12.957,8.569c.089-.2,5.688-5.7,5.69-5.589,0,.014.013.007.028-.015a.078.078,0,0,0,.008-.074c-.017-.03-.019-.029-.012.011s0,.041-.025.013-.02-.042.022-.075.045-.049.028-.061-.018-.026-.009-.035.03-.006.044.009a.034.034,0,0,0,.045.008c.01-.01.007-.021-.007-.025-.041-.01,0-.073.046-.074s.033-.007,0-.03-.032-.039.016-.087.048-.062.027-.071-.019-.026,0-.041.014-.03,0-.034-.012-.023.008-.043.028-.045.017-.056,0-.027.017-.036.026-.027.007-.047-.024-.029.014-.021.036,0,0-.031-.028-.079.023-.067.047-.041.006-.082c-.023-.023-.023-.038,0-.043s.02-.014-.008-.026-.031-.026.021-.062.055-.052.042-.068l-.035-.045a.174.174,0,0,1-.024-.056c0-.02-.017-.028-.027-.017s0,.049.045.086a.051.051,0,0,1,.017.047c0,.018-.014.012-.027-.015s-.021-.037-.025.01-.01.05-.034.025a.041.041,0,0,1,0-.058c.016-.016.02-.029.007-.03-.043,0-.022-.106.027-.135s.047-.029-.011-.021-.056,0-.03-.021,0-.075-.075-.138c-.021-.017-.019-.022.006-.017a.038.038,0,0,0,.045-.031c.006-.027,0-.036-.023-.031-.059.014-.125-.078-.08-.111.022-.016.035-.035.028-.043-.046-.052-.057-.055-.048-.014s-.008.027-.057-.023-.061-.072-.028-.108.024-.035.007-.028c-.044.018-.114-.059-.115-.126,0-.051,0-.053-.028-.028S18.473.9,18.443.873s-.035-.048-.01-.054.025-.01-.01-.015C18.361.8,18.312.74,18.34.711A.03.03,0,0,0,18.347.67c-.01-.01-.024,0-.031.014S18.285.7,18.258.679s-.031-.034-.005-.028.035,0,.023-.025-.029-.022-.053,0c-.048.041-.083.042-.075,0,.015-.077-.033-.118-.068-.058s-.036.057-.1-.026c-.04-.055-.073-.081-.094-.076s-.021.011,0,.016.029.013.023.018-.038,0-.073-.018-.065-.018-.068-.006-.027,0-.053-.018S17.682.415,17.7.411,17.71.4,17.686.387,17.649.379,17.654.4s-.012.041-.037.052c-.041.018-.043.015-.02-.034s-.015-.086-.06-.041c-.015.015-.014.03,0,.033.044.01,0,.047-.062.047A.13.13,0,0,1,17.4.428a.133.133,0,0,0-.15-.01A.093.093,0,0,1,17.116.4a.056.056,0,0,0-.053-.03c-.018,0-.017.013,0,.022a.024.024,0,0,1,.007.042c-.015.015-.029.016-.032,0s-.019-.011-.034,0-.032.016-.037-.007-.012-.01-.016.024-.01.045-.016.024-.023-.022-.054.01-.055.035-.07.02S16.78.508,16.761.54s-.031.037-.035.019-.039-.028-.078-.025-.067.012-.057.034a.053.053,0,0,1-.012.056c-.014.014-.029.013-.033,0s-.065.012-.1.063c-.006.008-.023,0-.038-.027s-.032-.03-.044,0A.038.038,0,0,0,16.377.7c.056.025-.036.077-.1.057L16.213.742l-5.374,5.39ZM.64,16.392a.048.048,0,0,0,.034.031c.016,0,.02.016.009.026a.055.055,0,0,1-.056,0c-.066-.03-.075.017-.011.056.04.024.049.037.026.036a.2.2,0,0,1-.079-.028C.53,16.5.531,16.5.566,16.54S.6,16.6.6,16.608s-.022.01-.027,0-.017-.01-.027,0,0,.034.029.054c.042.032.04.041-.02.084s-.065.064-.061.1,0,.047-.014.021a.122.122,0,0,1,0-.09c.022-.058.008-.1-.024-.065s-.017.056,0,.2c.008.062.007.063-.021.012-.016-.028-.036-.044-.044-.036s0,.042.073.126a.034.034,0,0,1-.005.044c-.013.012-.025.012-.029,0s-.022-.008-.041.011a.086.086,0,0,0-.029.064c0,.016.019.016.034,0a.035.035,0,0,1,.047-.008c.011.011,0,.027-.015.035a.04.04,0,0,0-.018.053c.012.027.006.039-.024.042s-.04.027-.039.088a.217.217,0,0,1-.014.1.024.024,0,0,0,0,.033c.011.011.027,0,.043-.041.023-.052.029-.053.054-.01.016.027.015.042,0,.033-.052-.026-.043.071.012.126.034.034.042.065.026.1s-.014.06.036.106a.1.1,0,0,1-.018.115c-.017.007-.022.023-.011.033a.022.022,0,0,0,.035,0,.039.039,0,0,1,.048-.009c.023.011.02.022-.011.038s-.035.032.012.078.049.069.038.091-.018.026-.02-.011c0-.067-.032-.087-.032-.021,0,.031.012.058.027.062s.022.029.016.057c-.01.045-.008.045.017,0s.034-.046.128.048c.076.076.093.105.072.125s-.007.046.045.1.078.064.1.045.034-.019.043-.01,0,.03-.025.045-.034.037-.024.047.026,0,.035-.019c.022-.05.089-.019.095.043,0,.039.01.044.029.025s.022,0,.017.037-.005.057.023.03.034-.019.037-.005.023.018.043.01c.051-.023.078.011.034.043-.02.015-.022.02-.006.012a.025.025,0,0,1,.037.016c0,.018.011.017.015,0s.017-.026.029-.017l.047.035a.092.092,0,0,1,.031.052c0,.022.019.014.048-.024s.05-.05.071-.029.015.06-.029.042c-.017-.007-.013.006.009.029s.042.031.047.009.014-.019.029.013.021.038.021,0c0-.053.028-.087.037-.046,0,.016.019.016.034,0a.045.045,0,0,1,.063.008c.02.02.042.029.05.021a.124.124,0,0,1,.082.006c.037.011.072.007.077-.009s.007,0,0,.033,0,.053.014.042.027-.005.036.013A.04.04,0,0,0,2.05,19c.045-.02.038-.03-.033-.052-.041-.012-.047-.022-.028-.041a.037.037,0,0,1,.054.008c.016.018.037.021.047.006s.022-.015.037.034.019.057.024,0,.014-.057.1-.051c.1.008.126,0,.066-.031q-.042-.02.042-.016a.145.145,0,0,0,.1-.022.028.028,0,0,1,.044,0,.038.038,0,0,1,0,.053c-.015.015-.017.027,0,.027s.03-.02.04-.045c.033-.084.055-.1.072-.065s.033.028.061.011.047-.017.049-.005c.007.029.069-.047.067-.082,0-.016-.005-.015-.01,0a.074.074,0,0,1-.059.038c-.044.007-.043,0,.007-.059.032-.037.066-.058.075-.049s.038,0,.062-.026.053-.035.064-.024.021.008.024-.025c.006-.067,5.717-5.771,5.748-5.741.012.012.014-.009,0-.045-.018-.062-.016-.065.032-.052s.052.005.056-.032.014-.047.025-.047,0-.012-.026-.027-.039-.036-.01-.065.029-.046.019-.056-.007-.022.008-.025.026-.03.026-.06c0-.062.046-.118.074-.09.01.01.022.006.025-.009s-.012-.037-.034-.048-.035-.021.017-.015.056,0,.04-.034c-.025-.055-.034-.061-.041-.028s-.029.014-.029-.045c0-.032.011-.048.029-.044.063.015.082-.044.025-.078s-.05-.078,0-.064c.011,0,.009,0-.006-.01-.041-.025-.02-.068.042-.087s.052-.018,0-.031a.115.115,0,0,0-.073,0,.023.023,0,0,1-.031,0c-.01-.01-.006-.03.009-.044a.034.034,0,0,0,.008-.045c-.011-.011,0-.029.028-.043s.039-.032.027-.044-.023-.007-.027.009-.023.012-.043-.008-.028-.045-.018-.055.022,0,.027.014.011.021.015,0a.046.046,0,0,0-.029-.048c-.022-.01-.026-.026-.01-.042s.01-.038-.031-.067-.043-.039-.019-.035.023-.028-.009-.106-.036-.124-.019-.141.023-.027-.016-.019-.036,0-.022-.013a.029.029,0,0,0,0-.04c-.01-.01-.023-.011-.029,0-.058.08-.118.038-.083-.058.013-.036.012-.069,0-.073s-.02-.016-.009-.027.007-.023-.009-.027c-.044-.01-.062.02-.036.063.014.024,0,.02-.029-.009s-.04-.051-.023-.055.016-.02,0-.035-.031-.019-.034-.007-.056-.026-.118-.085c-.149-.14-.143-.136-.149-.108s-.036,0-.073-.038a.206.206,0,0,0-.091-.058c-.013,0-.05-.023-.08-.055S7.91,10.5,7.9,10.51s-.043,0-.077-.013a.148.148,0,0,0-.1-.011.061.061,0,0,1-.063-.01.148.148,0,0,0-.139-.015c-.025.025-.115.009-.149-.026a.045.045,0,0,0-.073,0c-.031.031-.044.026-.081-.025s-.1-.075-.074-.012c.009.021,0,.041-.012.045a.029.029,0,0,1-.036-.019c0-.015-.015-.008-.025.016s-.021.031-.027.009-.021-.021-.044,0-.047.027-.059.014-.02-.012-.014.017,0,.036-.028.022c-.053-.024-.016-.088.042-.073.026.007.039,0,.028-.008-.043-.045-.1-.015-.117.056s-.079.083-.1,0c-.011-.035-.018-.043-.023-.023a.023.023,0,0,1-.034.016c-.019-.01-.031,0-.042.051s-.021.063-.058.054-.036,0-.022.013a.029.029,0,0,1,0,.04c-.01.01-.029.006-.043-.008s-.037-.009-.062.027-.044.045-.068.021-.032-.028-.024.024-.04.123-.073.091q-.023-.022-.013.021c.008.034,0,.043-.034.043S.831,16.207.831,16.254s-.11.161-.13.141-.009-.022,0-.025.014-.016,0-.029S.631,16.354.64,16.392ZM8.45,8.6a.206.206,0,0,0,.062-.062c.013-.022-.005-.011-.039.023S8.428,8.613,8.45,8.6ZM4.914,12.21c-.739.744-1.957,1.962-2.707,2.707s-.146.137,1.343-1.352S5.652,11.466,4.914,12.21ZM16.874.436c-.007.035,0,.036.031,0s.032-.048.022-.057S16.886.379,16.874.436Zm.281-.052c.048.036.094.018.08-.032-.005-.02-.01-.024-.011-.009s-.025.024-.055.019C17.119.355,17.118.357,17.155.384Zm-9.756,10c0,.039.012.045.04.033a.069.069,0,0,0,.03-.068c0-.031-.009-.039-.014-.019a.025.025,0,0,1-.035.02C7.4,10.339,7.4,10.351,7.4,10.383ZM.348,17.562a.118.118,0,0,1,.016.081q-.007.054.016.032c.013-.012.027-.01.031.006s.015.021.025.011a.055.055,0,0,0,.011-.046c0-.016-.016-.019-.028-.008s-.022.009-.025-.027a.079.079,0,0,0-.036-.061C.333,17.539.33,17.542.348,17.562ZM17.788.439c.041,0,.061-.01.057-.03S17.82.385,17.8.4C17.725.426,17.723.438,17.788.439Zm.228.1c.036.042.068.023.045-.028a.036.036,0,0,0-.046-.021C18,.5,18,.522,18.016.542ZM.663,18.3c.026.022.049.03.052.019.006-.027-.067-.09-.085-.072S.638,18.275.663,18.3Zm.982.672a.083.083,0,0,0,.067,0c.037-.011.044-.021.026-.039s-.031-.009-.04.013-.019.025-.024,0-.016-.025-.027-.015A.026.026,0,0,0,1.645,18.968ZM11.993,8.9c.014.014.027.014.03,0s.017-.013.03,0,.012.027-.044.039c-.078.016-.106,0-.068-.038A.036.036,0,0,1,11.993,8.9Zm.578-.013c.039.017.066,0,.057-.04,0-.014-.025-.014-.049,0S12.547,8.873,12.571,8.884Zm.217-.164c.005.023.011.023.017,0s.017-.023.035,0c.033.047.1-.012.077-.064-.01-.019-.019-.023-.019-.007s-.027.029-.059.03S12.781,8.693,12.787,8.719Zm-4.272,4.34c.022.025-.29.343-2.722,2.766-1.845,1.839-2.741,2.744-2.729,2.756S8.553,13.125,8.6,13.049c.009-.015,0-.03-.009-.033a.025.025,0,0,0-.03.018c0,.013-.02.018-.037.011S8.5,13.04,8.515,13.059Zm2.2-2.157c.035.018.125-.043.1-.068-.01-.01-.03,0-.045.031s-.031.038-.036.015-.017-.024-.028-.013S10.7,10.894,10.716,10.9Zm-.23.269c.006.06.047.055.047-.005a.126.126,0,0,0-.01-.059C10.5,11.088,10.482,11.127,10.486,11.172Zm.2-.156c.009.033,0,.059-.044.086s-.052.051-.044.067-.007.052-.031.08a.127.127,0,0,0-.035.087c.007.029,0,.039-.051.05-.066.015-.086.055-.047.095.019.019.009.038-.04.072s-.061.047-.01.052.051.008.012.026-.032.023-.017.026a.031.031,0,0,1,.019.039c-.009.038-.081.027-.09-.013,0-.015-.01-.012-.014.006a.032.032,0,0,0,.019.04c.014,0,.009.014-.012.023s-.029.026-.019.036a.034.034,0,0,0,.046-.007c.015-.015.033-.02.042-.011s-.014.04-.049.07c-.059.05-.06.059-.014.107a.268.268,0,0,1,.057.082c.011.046-.028.07-.047.029-.009-.02-.024-.029-.034-.02s0,.035.023.057.032.039-.006.032-.042-.006-.011.011a.048.048,0,0,0,.06-.019c.023-.034.026-.032.026.016a.1.1,0,0,1-.053.085c-.051.03-.05.031.009.031.083,0,.117.117.053.182-.011.011-.009.049,0,.084s.029.06.046.043a.034.034,0,0,1,.047,0c.021.021.011.028-.049.04s-.072.017-.031.035.034.028.017.045-.019.033-.011.041.078-.041.071-.079c0-.018.021-.005.054.028s.05.06.038.06c-.038,0-.034.082,0,.1.023.01.024.021,0,.03s.423.47,2.848,2.886c2.465,2.457,2.88,2.878,2.877,2.917a.075.075,0,0,0,.139.046c.006-.009.037.015.067.054s.067.067.081.064a.081.081,0,0,1,.058.028.082.082,0,0,0,.063.026c.02,0,.008-.02-.033-.045-.059-.035-.059-.037,0-.037a.116.116,0,0,1,.072.017c.036.051.081.073.088.044s.011-.021.015,0,.048.031.1.031c.1,0,.136.025.14.1,0,.039,0,.039.009,0s.029-.045.12-.039a.27.27,0,0,0,.136-.014.03.03,0,0,1,.042,0c.011.011,0,.028-.021.038s-.033.018.011.023a.067.067,0,0,0,.065-.026.116.116,0,0,1,.087-.036c.04,0,.076-.016.079-.03s.014-.007.023.014.022.028.035,0,.027-.03.046-.011.033.021.038.012c.028-.048.119-.069.123-.028s.014.038.042.025a.061.061,0,0,0,.024-.073c-.015-.066.01-.1.034-.052s.071.037.054-.008c-.006-.018,0-.012.02.014s.037.041.042.034c.04-.052.068-.06.059-.017s0,.039.022.013.023-.039.012-.049-.006-.022.01-.026.02-.015.01-.025.009-.047.043-.081.07-.054.087-.037c.034.034.117-.021.2-.131.05-.066.062-.1.042-.122s-.015-.027,0-.024c.042.007.116-.048.077-.057-.017,0-.018-.02,0-.035a.039.039,0,0,0,0-.055.031.031,0,0,1,0-.047.215.215,0,0,0,.1-.173c0-.062.012-.077.05-.081s.048-.015.048-.027-.011-.012-.025,0-.019-.005-.012-.046c.01-.059.019-.069.052-.061s.029,0,0-.033-.034-.046.024-.083.058-.048.044-.062-.028-.006-.036.013-.023.021-.04-.009a.067.067,0,0,1,.008-.076c.018-.018.025-.041.016-.051s-.006-.03.009-.044a.034.034,0,0,0,.008-.045c-.01-.01-.006-.022.01-.026s.011-.027-.054-.089a.769.769,0,0,1,0-.164c0-.09-.009-.161-.028-.17-.055-.024-.055-.081,0-.058.027.011,0-.017-.056-.062-.085-.068-.1-.088-.076-.11s.011-.039-.039-.077-.055-.048-.021-.041.039,0,.022-.015-.006-.033.028-.052.046-.028-.005-.023-.12-.032-.07-.043c.032-.008.01-.038-.028-.038s-.113-.06-.086-.066-1.2-1.227-2.7-2.721c-2.021-2.015-2.723-2.724-2.717-2.748a.034.034,0,0,0-.025-.04.031.031,0,0,0-.039.021c0,.018-.041-.011-.1-.077-.08-.091-.1-.1-.124-.075s-.043.017-.087-.034-.06-.056-.07-.033-.022.024-.032.014,0-.036.032-.058.039-.045.023-.052a.035.035,0,0,0-.043.012.024.024,0,0,1-.038,0c-.015-.015-.019-.007-.013.022s0,.036-.032,0-.044-.029-.049-.008-.019.016-.046-.023-.046-.049-.055-.04c-.028.028-.122.018-.129-.013,0-.016-.024-.021-.045-.012a.064.064,0,0,1-.066-.011c-.015-.015-.028-.018-.028-.006,0,.031-.093.027-.126-.006-.018-.018-.044-.012-.072.016s-.054.035-.081.008-.024-.04-.008-.043c.052-.012-.019-.055-.1-.058-.094,0-.1,0-.037.048.027.022.045.043.041.048a.168.168,0,0,1-.128-.01c-.01-.01-.026,0-.035.018a.111.111,0,0,1-.142.018c-.01-.01-.007-.035.005-.057s0-.021-.028.008-.061.037-.073.025-.02.011-.016.052c.008.091-.01.112-.045.052-.02-.034-.028-.036-.03-.007-.005.059-.119.158-.137.119a.041.041,0,0,0-.042-.026c-.015,0-.02.014-.011.023.025.025-.258.29-.316.3C10.682,10.967,10.675,10.976,10.687,11.015Zm.711-.495c.013.03.009.035-.022.028-.058-.013-.069-.032-.03-.049A.04.04,0,0,1,11.4,10.52Zm-.95,1.939a.035.035,0,0,1,0,.05c-.013.013-.03.007-.04-.014s-.011-.043,0-.05S10.433,12.444,10.448,12.459Zm2.988,3.366L16.2,18.573l-2.74-2.749c-1.507-1.512-2.752-2.749-2.766-2.749S11.915,14.313,13.436,15.825ZM16.4,18.651a.035.035,0,0,1,0,.049.023.023,0,0,1-.04-.008.049.049,0,0,1,0-.049C16.373,18.634,16.391,18.638,16.4,18.651Zm1.693.061c-.012.029-.008.033.027.027s.036,0,.009.011c-.049.028-.094-.005-.055-.041C18.1,18.688,18.107,18.689,18.1,18.712Zm.454-.338a.042.042,0,0,1-.027.042.043.043,0,0,0-.026.046c.01.043-.042.088-.114.1-.055.008-.051,0,.05-.1C18.5,18.39,18.547,18.357,18.551,18.373Z" transform="translate(-0.245 -0.295)" fill="#f37944" fill-rule="evenodd"/>
  <path id="Path_12" data-name="Path 12" d="M.421,1.279C.4,1.3.4,1.336.411,1.349s0,.038-.032.065a.136.136,0,0,0-.024.206c.025.025.038.052.03.061s-.031,0-.051-.02S.29,1.633.28,1.643s-.006.03.009.044.019.035.009.044a.026.026,0,0,0,0,.037c.01.01.022,0,.027-.014s.011-.021.015,0-.019.047-.05.068-.049.042-.017.056S.3,1.9.278,1.906s-.043.157-.025.306c.005.047.015.056.061.061.03,0,.04.009.023.014-.041.01-.05.14-.012.178.016.016.021.037.011.047s0,.033.016.051a.07.07,0,0,1,.017.07.054.054,0,0,0,.066.075c.02-.008.021,0,0,.017s-.014.088.049.15a.1.1,0,0,1,.035.07C.513,2.986,6.364,8.837,6.4,8.828c.016,0,.051.016.079.043a.148.148,0,0,0,.1.046.083.083,0,0,1,.071.04.049.049,0,0,0,.065.026A.072.072,0,0,1,6.787,9c.018.018.042.026.051.016s.034,0,.053.018.043.028.053.018.03-.006.044.009.035.019.044.009a.03.03,0,0,1,.041.006.956.956,0,0,0,.356.022c.013-.013.066-.019.192-.023a.2.2,0,0,0,.11-.03c.015-.015.035-.019.045-.01s.034,0,.053-.018S7.876,8.99,7.887,9s.035,0,.062-.043.045-.055.058-.027.03.022.071-.019.064-.046.074-.036.05-.017.1-.078.092-.093.116-.083.072-.025.172-.125c.14-.14.145-.154.071-.209-.018-.014-.014-.027.013-.039a.255.255,0,0,0,.053-.03c.007-.006.008.008,0,.032s0,.036.033,0,.032-.046,0-.059a.256.256,0,0,1-.046-.025c-.015-.015-.16.145-.161.177,0,.05-.148.22-.182.212-.016,0-.016-.01,0-.014A.031.031,0,0,0,8.354,8.6c-.011-.047-.129.087-.124.141a.1.1,0,0,1-.025.076c-.02.018-.021.008-.005-.03s.019-.058-.029-.058-.122.048-.089.067a.027.027,0,0,1,.011.034c-.005.012-.027.01-.047-.006-.051-.038-.086-.036-.048,0,.017.017.018.034,0,.038a.03.03,0,0,1-.036-.022c0-.016-.02-.013-.036.007-.056.069-.1.1-.1.068s-.024-.012-.044.009-.041.026-.047,0-.012,0-.016.043S7.7,9.03,7.7,9a.063.063,0,0,0-.049-.058c-.037-.008-.039-.006-.017.018s-.024.024-.082-.007a.372.372,0,0,0-.2,0,.123.123,0,0,1-.076,0,.135.135,0,0,0-.1.033c-.024.024-.043.033-.043.02S7.11,9,7.081,9s-.053,0-.053-.02.019-.024.043-.019.038.005.014-.02a.065.065,0,0,0-.067-.012c-.021.009-.041,0-.045-.012s-.014-.013-.022.006-.027.021-.057-.017-.042-.044-.042-.033c0,.04-.088.023-.092-.018s-.012-.032-.033-.011-.04.014-.078-.037c-.027-.036-.043-.051-.036-.033s0,.034-.032.037-.04.01-.026.024a.026.026,0,0,1,0,.036c-.02.02-.048-.017-.071-.1s-.114-.171-.147-.154c-.016.008-.967-.931-2.84-2.8C1.76,4.079.685,3.017.691,3.043s0,.04-.034.023A.072.072,0,0,1,.615,3c0-.034,0-.036.011-.009s.018.026.028.016a.027.027,0,0,0,0-.038c-.01-.01-.006-.022.01-.026s.02-.015.01-.026a.03.03,0,0,0-.041,0c-.017.016-.02.012-.014-.017s0-.043,0-.048c-.04-.031-.046-.048-.022-.072a.038.038,0,0,0,0-.053.034.034,0,0,0-.045-.008c-.01.01-.007.021.007.025s.018.023.009.045c-.029.064-.046.071-.075.028a.185.185,0,0,1,0-.2c.037-.027,0-.061-.07-.068-.054-.005-.054-.021,0-.109.028-.046.026-.071-.007-.1S.378,2.292.387,2.283s0-.037-.017-.063S.348,2.166.364,2.155C.4,2.134.393,2,.358,1.988c-.013,0-.014-.033,0-.066.018-.054.02-.054.015,0,0,.031,0,.056.016.056.036,0,.024-.1-.014-.12s-.023-.021,0-.031A.041.041,0,0,0,.39,1.767c-.015-.033-.009-.041.033-.045s.038-.009.018-.013S.416,1.683.425,1.662s0-.041-.01-.045C.371,1.606.4,1.55.45,1.545c.03,0,.04-.011.028-.023A.056.056,0,0,0,.431,1.51C.385,1.521.366,1.486.4,1.453s.03-.024.022.013,0,.033.041-.006.04-.052.028-.055-.026-.03-.03-.06c-.007-.047,0-.052.029-.038A.063.063,0,0,0,.555,1.3C.572,1.28.57,1.265.548,1.259s-.026-.01.011-.011c.066,0,.078-.024.031-.056S.556,1.161.614,1.14s.063-.032.055-.066,0-.033.01-.023a.031.031,0,0,0,.043,0A.034.034,0,0,0,.722,1c-.03-.03-.2.138-.2.207,0,.034-.008.037-.015.01S.481,1.189.421,1.279ZM.81.89c-.1.127-.018.092.119-.05C1.034.731,1.079.7,1.11.7s.042,0,.046-.038.011-.045.037-.035.031,0,.026-.048,0-.062.017-.062.017.007.009.015.013.012.047.009c.056-.006.058,0,.02.016S1.281.586,1.3.59A.066.066,0,0,0,1.352.571a.037.037,0,0,1,.052,0c.017.017.043.01.071-.018S1.528.519,1.539.53s.027,0,.036-.016A.054.054,0,0,1,1.638.491C1.682.5,1.685.5,1.677.445s0-.057.029-.05.026.012.007.016c-.05.012,0,.084.059.084S1.826.49,1.829.432s0-.061.029-.019A.065.065,0,0,0,1.945.44C1.994.425,2,.42,1.969.41S1.967.4,2.008.4A.166.166,0,0,0,2.1.389a.027.027,0,0,1,.038,0c.012.012,0,.024-.036.035s-.049.022-.027.044.035.019.045.01a.027.027,0,0,1,.038,0A.132.132,0,0,0,2.24.5.694.694,0,0,1,2.6.628c.038.05.082.03.088-.04,0-.028,0-.028.007,0s.034.043.1.053.076.019.058.024c-.051.012.026.08.112.1.04.008.064.023.054.033A.039.039,0,0,1,2.971.8C2.958.794,4.206,2.048,5.746,3.587c2,2,2.8,2.791,2.81,2.772s.022-.016.035,0a.022.022,0,0,1-.009.038c-.023.01-.016.031.023.07s.047.064.029.082a.038.038,0,0,0,0,.053c.029.029.053.016.059-.032,0-.017,0,0,0,.029,0,.068.04.082.046.015,0-.035.008-.036.022,0a.053.053,0,0,1,0,.058c-.046.036-.062.067-.045.084s.023.011.029,0c.031-.043.079-.071.094-.056s0,.025-.021.034c-.048.021-.046.154,0,.189.02.014.025.033.011.043s-.006.03.027.053.044.044.033.055a.119.119,0,0,0-.019.07c0,.056.019.088.029.047,0-.014.022-.018.042-.01.046.021.039.045-.029.1-.03.024-.047.051-.038.06s0,.029-.012.045-.015.034.01.045.026.02.009.024c-.037.009-.037.115,0,.124.017,0,.013.014-.009.024s-.028.027-.01.045.02.037.01.047-.006.022.01.026.012.023-.008.044a.074.074,0,0,0-.021.074c.009.02,0,.039-.009.043s-.015.017,0,.03.011.021-.022.016-.042,0-.032.023A.057.057,0,0,1,8.775,8a.124.124,0,0,0-.026.076.133.133,0,0,1-.062.1c-.067.048-.057.08.025.08.028,0,.051.01.052.022s.018,0,.04-.018.029-.045,0-.056a.044.044,0,0,1-.03-.044c0-.015.017-.017.03,0s.011-.013,0-.056c-.028-.078-.028-.078.011-.019s.046.052.067.03.021-.036.012-.045,0-.037.018-.062.025-.055.013-.066a.079.079,0,0,1-.019-.052c0-.018.005-.016.011,0,.015.056.058-.005.06-.087A.185.185,0,0,1,9,7.707a.14.14,0,0,0,0-.14A.026.026,0,0,1,9,7.53c.01-.01.005-.03-.01-.046s-.015-.035,0-.042a.563.563,0,0,0,0-.346c-.015-.015-.019-.035-.009-.045s.006-.03-.009-.044-.019-.035-.009-.044,0-.034-.018-.053-.028-.043-.018-.053,0-.034-.019-.054-.039-.024-.044,0-.011.021-.015,0a.028.028,0,0,0-.039-.018c-.018.007-.005,0,.027-.026.054-.035.054-.043.006-.092a.156.156,0,0,1-.049-.1C8.8,6.481,8.6,6.274,5.838,3.512S2.871.552,2.8.572A.141.141,0,0,1,2.7.521C2.664.487,2.628.468,2.618.477s-.038,0-.062-.027S2.5.414,2.494.424s-.032,0-.049-.014A.121.121,0,0,0,2.352.388a.118.118,0,0,1-.09-.019C2.224.331,1.909.322,1.9.36c0,.016-.019.017-.035,0S1.821.349,1.8.372,1.761.4,1.768.38c.021-.049-.09-.039-.119.01-.019.032-.03.031-.051,0S1.569.351,1.564.373,1.549.4,1.539.389s-.172.025-.207.061a.044.044,0,0,1-.046.01C1.247.441.928.734.956.762S.967.783.948.78C.912.774.882.8.81.89Zm-.328.474a.031.031,0,0,0,.038.022c.044-.01.039-.051-.007-.051C.488,1.335.478,1.344.483,1.364ZM2.739.7c.04.047.078.038.066-.015,0-.016-.016-.02-.027-.009S2.756.68,2.752.666A.026.026,0,0,0,2.723.644C2.71.647,2.718.671,2.739.7ZM4.867,7.229c.752.757.133.142-1.377-1.368S1.364,3.731,2.121,4.484,4.114,6.471,4.867,7.229Zm-4.245,9.1c0,.016-.028.064-.071.106s-.074.09-.071.106a.1.1,0,0,1-.034.07.08.08,0,0,0-.025.078.038.038,0,0,1-.017.051.123.123,0,0,0-.038.092c0,.043,0,.068.016.056s.032,0,.051.029c.029.05.029.05.021-.012-.017-.14-.017-.178,0-.2s.046.007.024.065a.122.122,0,0,0,0,.09c.015.026.019.021.014-.021s.014-.068.061-.1.062-.052.02-.084c-.026-.02-.038-.044-.029-.054s.022-.01.027,0,.017.01.027,0,0-.041-.029-.069-.036-.044,0-.024a.2.2,0,0,0,.079.028c.023,0,.014-.012-.026-.036-.064-.039-.054-.085.011-.056.049.022.077-.009.038-.043a.045.045,0,0,1-.008-.059.031.031,0,0,1,.047-.009c.013.013.013.026,0,.03s-.016.014-.006.024.9-.861,2.779-2.75L6.24,10.876.825,16.254l2.695-2.7c2.127-2.134,2.7-2.7,2.739-2.7s.042-.009.034-.043,0-.036.013-.021c.033.032.082-.028.073-.091s-.006-.053.024-.024.041.018.068-.021.044-.044.062-.027.033.018.043.008a.029.029,0,0,0,0-.04q-.022-.022.022-.013c.037.008.046,0,.058-.052s.077-.077.1-.018.086.047.1-.025.074-.1.117-.056c.011.011,0,.015-.028.008-.057-.015-.095.049-.042.073.03.013.035.009.028-.022s0-.033.014-.017.039.006.059-.014.039-.024.044,0,.014.02.027-.009.021-.03.025-.016a.029.029,0,0,0,.036.019c.016,0,.022-.024.012-.045-.028-.063.026-.054.074.012s.051.056.081.025a.045.045,0,0,1,.073,0c.035.035.125.05.149.026a.148.148,0,0,1,.139.015.061.061,0,0,0,.063.01.148.148,0,0,1,.1.011c.034.015.069.021.077.013s.04.012.071.044.067.058.08.055a.206.206,0,0,1,.091.058c.037.034.07.051.073.038s0-.032.149.108c.062.058.115.1.118.085s.018-.008.034.007.016.032,0,.035-.007.027.023.055.044.034.028.007-.01-.047.011-.056.012-.038-.075-.125-.108-.1-.1-.053,0,.052-.019.028a.06.06,0,0,1-.014-.061c.009-.021-.017-.064-.077-.124s-.095-.083-.106-.057-.028.017-.07-.038-.056-.07-.094-.01-.037.052-.027.012-.062-.149-.093-.119c-.01.01-.032,0-.05-.014a.186.186,0,0,0-.106-.035.186.186,0,0,1-.094-.023.552.552,0,0,0-.33.01c-.019.017-.029.018-.022,0,.015-.036-.218-.043-.254-.007a.115.115,0,0,1-.084.013.131.131,0,0,0-.1.03c-.024.024-.051.03-.067.014-.032-.032-.082.011-.063.055.007.017-.005.014-.028-.007s-.052-.028-.091.011a.172.172,0,0,1-.082.05.4.4,0,0,0-.126.067C6.258,10.67.613,16.3.621,16.333ZM10.633,6.309c0,.012.026.031.057.04.054.017.054.018,0,.023s-.2.114-.192.158a.1.1,0,0,1-.036.072c-.035.035-.034.051,0,.083s.049.029.052.017-.009-.026-.026-.031-.018-.011,0-.015a.056.056,0,0,1,.068.072c-.008.019,0,.019.019,0s.022-.04.01-.052c-.034-.034,0-.144.042-.144.025,0,.034-.023.03-.071s0-.062.016-.05.63-.588,2.8-2.765L16.255.861l-5.4,5.361,2.69-2.7C15.32,1.745,16.231.819,16.219.807s-.932.893-2.7,2.654L10.839,6.133,16.213.742l.062.019a.118.118,0,0,0,.1-.013c.022-.019.025-.035.007-.039A.035.035,0,0,1,16.36.665c.031-.133-.1-.011-2.891,2.785C11.909,5.01,10.633,6.3,10.633,6.309ZM3.5,13.483C1.187,15.8.812,16.186.816,16.226s-.061.1-.071.051a.027.027,0,0,1,.02-.032c.015,0,.018-.015.008-.025s.795-.83,2.7-2.726l2.716-2.707ZM16.381.618c.023.042.055.076.063.065.039-.051.1-.086.1-.062s.019.017.033,0a.053.053,0,0,0,.012-.056c-.01-.022.005-.031.057-.034s.074.009.078.025.018.011.035-.019S16.8.5,16.814.517s.043.007.07-.02.048-.034.054-.01.012.01.016-.024.01-.045.016-.024.019.025.037.007.031-.018.034,0,.018.012.032,0A.024.024,0,0,0,17.066.4c-.02-.009-.021-.018,0-.022a.056.056,0,0,1,.053.03.093.093,0,0,0,.131.015.133.133,0,0,1,.15.01.13.13,0,0,0,.08.029c.057,0,.106-.036.062-.047-.016,0-.017-.019,0-.033.045-.045.086-.016.06.041s-.021.052.02.034c.025-.011.042-.034.037-.052s.006-.026.032-.014.028.021.012.025-.007.024.02.047.05.03.053.018.034-.01.068.006.067.024.073.018,0-.014-.023-.018-.021-.011,0-.016.054.021.094.076c.06.082.062.083.095.027s.038-.05.06-.012.019.052.011.06c-.03.03.016.047.06.021a.061.061,0,0,1,.068,0c.018.018.013.022-.019.014s-.034,0,0,.027.048.026.055.012c.016-.032-.206-.242-.256-.242a.113.113,0,0,1-.068-.03c-.046-.046-.25-.1-.276-.075s-.039.007-.059-.012S17.611.3,17.6.313a.025.025,0,0,1-.036,0,1.556,1.556,0,0,0-.5,0,.181.181,0,0,1-.1.026.181.181,0,0,0-.1.03.039.039,0,0,1-.055,0c-.019-.019-.035-.014-.05.016a.045.045,0,0,1-.06.027c-.022-.01-.059.005-.091.037s-.062.046-.072.036S16.371.6,16.381.618ZM8.512,8.538A.206.206,0,0,1,8.45,8.6c-.022.013-.011-.005.023-.039S8.524,8.517,8.512,8.538Zm1.881-1.773a.242.242,0,0,0-.012.094.188.188,0,0,1-.024.1.047.047,0,0,0,.006.067.06.06,0,0,1,.027.053c0,.017-.014.013-.024-.009s-.026-.029-.037-.019a.027.027,0,0,0,0,.037c.01.01.006.03-.009.045a.689.689,0,0,0,0,.369.151.151,0,0,1,.014.1.159.159,0,0,0,.008.1.188.188,0,0,1,.022.093.19.19,0,0,0,.039.11c.02.02.028.044.019.054s.007.043.038.073.059.046.07.021.023-.021.042.012.021.044-.018.033c-.082-.023-.085.023,0,.089.051.042.073.075.064.1a1.616,1.616,0,0,0,.431.441c.01-.01.054.018.1.062s.088.072.1.062.037,0,.061.026a.105.105,0,0,0,.072.037.084.084,0,0,1,.063.028c.019.019.041.028.048.021s.051,0,.1.019a.581.581,0,0,0,.158.035c.042,0,.124.007.183.013l.181.017c.084.007.151-.041.093-.067-.024-.011-.026-.027-.008-.046S12.2,8.9,12.165,8.9a.067.067,0,0,0-.061.029.074.074,0,0,1-.057.035c-.024,0-.044.016-.044.032s-.005.013-.01-.005a.034.034,0,0,0-.038-.026.1.1,0,0,1-.072-.036c-.049-.049-.155-.032-.135.021.007.018,0,.011-.016-.014-.045-.074-.105-.091-.123-.034s-.046.062-.076.031c-.009-.009,0-.024.02-.033s.025-.028-.007-.06-.048-.033-.06-.007,0,.039.009.043.017.015.007.025-.031.006-.047-.009a.132.132,0,0,0-.081-.028A.12.12,0,0,1,11.3,8.84c-.013-.013,0-.02.028-.016.073.008.106-.026.066-.066a.045.045,0,0,0-.063-.008c-.015.015-.031.015-.034,0s-.019-.016-.034,0-.036.019-.046.009,0-.023.017-.028.025-.01-.01-.015a.119.119,0,0,1-.071-.042c-.014-.02-.033-.029-.042-.021s-.023,0-.032-.021-.027-.027-.041-.013-.022.007-.017-.031c.008-.059-.023-.106-.051-.077-.01.01-.05-.014-.089-.053s-.063-.079-.053-.089,0-.032-.014-.049-.029-.018-.025,0a.086.086,0,0,1-.027.066c-.032.032-.033.031-.025-.023a.175.175,0,0,1,.023-.07c.008-.008-.006-.034-.03-.059s-.054-.035-.067-.023-.021.01-.018-.009a.255.255,0,0,0-.1-.206c-.039-.034-.068-.073-.065-.086s.013-.008.022.012a.048.048,0,0,0,.051.027c.02,0,.023-.011.007-.015s-.039-.041-.052-.083-.032-.076-.042-.076-.015-.024-.01-.054c.007-.05,0-.052-.029-.02s-.035.027-.027-.009.022-.043.044-.043c.056,0,.06-.021.013-.069s-.046-.035-.049,0-.014.039-.04.032-.025-.01-.012-.011.035-.033.047-.072.032-.072.044-.075,0-.02-.025-.039-.043-.063-.036-.134c.006-.055.015-.084.02-.064.014.058.034.018.028-.057a.173.173,0,0,1,.03-.108c.02-.023.022-.046,0-.054s-.016-.02.005-.029.024-.021,0-.032-.023-.025.022-.057.056-.041,0-.033-.059.006,0-.036.054-.044.01-.04a.071.071,0,0,1-.066-.025C10.417,6.712,10.417,6.712,10.393,6.766ZM16.927.383c.01.01,0,.036-.022.057s-.038.031-.031,0C16.886.379,16.9.361,16.927.383ZM.324,17.06a.159.159,0,0,1-.024.092.8.8,0,0,0-.005.359.026.026,0,0,1,0,.037c-.01.01-.006.026.01.036a.181.181,0,0,1,.028.116c0,.054.012.1.027.1s.019.014.009.024.03.176.081.227c.023.023.034.05.024.059s.007.042.037.073.059.045.069.024a.037.037,0,0,0-.012-.046.093.093,0,0,1-.026-.07c0-.064.03-.043.032.023,0,.037,0,.039.02.011s0-.056-.038-.091-.049-.059-.012-.078.034-.027.011-.038a.039.039,0,0,0-.048.009.022.022,0,0,1-.035,0c-.011-.011-.006-.026.011-.033.047-.021.039-.094-.017-.15a.068.068,0,0,1,0-.072c.017-.032.009-.062-.026-.1-.055-.055-.064-.152-.012-.126.017.008.018-.006,0-.033-.025-.043-.031-.042-.054.01-.017.037-.033.052-.043.041a.024.024,0,0,1,0-.033.217.217,0,0,0,.014-.1c0-.061.009-.085.039-.088s.036-.014.024-.042a.04.04,0,0,1,.018-.053c.019-.008.026-.024.015-.035a.035.035,0,0,0-.047.008c-.015.015-.031.015-.034,0a.086.086,0,0,1,.029-.064c.019-.019.038-.025.041-.011s.017.012.032,0,.019-.026.01-.026S.441,17,.426,16.969C.392,16.893.323,16.955.324,17.06ZM17.224.343c0-.015.006-.011.011.009.014.05-.032.068-.08.032s-.036-.029.014-.022C17.2.367,17.223.358,17.224.343ZM7.455,10.328c0-.019.011-.011.014.019a.069.069,0,0,1-.03.068c-.029.013-.037.006-.04-.033s0-.044.022-.035A.025.025,0,0,0,7.455,10.328ZM.393,17.611c0,.036.01.042.025.027s.024-.008.028.008a.055.055,0,0,1-.011.046c-.01.01-.021,0-.025-.011s-.018-.019-.031-.006-.021,0-.016-.032a.118.118,0,0,0-.016-.081c-.018-.02-.016-.023.009-.012A.079.079,0,0,1,.393,17.611ZM17.8.4c.023-.01.045,0,.049.013s-.016.031-.057.03C17.723.438,17.725.426,17.8.4Zm.264.118c.023.051-.009.07-.045.028C18,.522,18,.5,18.015.492A.036.036,0,0,1,18.061.514ZM.6,18.231c-.013.061.324.368.368.334.02-.015.028-.034.019-.043s-.028,0-.043.01-.046.007-.1-.045-.064-.079-.045-.1,0-.049-.071-.124C.634,18.169.615,18.164.6,18.231Zm.082.031c.021.018.036.042.033.053s-.026,0-.052-.019-.04-.046-.033-.053S.661,18.244.682,18.262ZM18.347.766A.15.15,0,0,0,18.423.8c.035,0,.037.008.01.015s-.022.023.01.054.055.036.072.019.007-.045-.067-.111S18.275.692,18.347.766Zm.2.187c.028.063.08.1.114.091.017-.007.014.005-.007.028s-.029.051.028.108.064.055.057.023,0-.038.048.014c.007.008-.006.027-.028.043-.045.033.022.124.08.111.022-.005.029,0,.023.031a.038.038,0,0,1-.045.031c-.025,0-.027,0-.006.017.078.063.1.11.075.138s-.022.029.03.021.059-.008.011.021-.07.135-.027.135c.012,0,.009.013-.007.03a.041.041,0,0,0,0,.058c.024.024.03.02.033-.02s.012-.041.021-.032a.077.077,0,0,1-.017.111c-.024.011-.022.021.009.035s.033.022.01.027-.021.021,0,.043c.041.041.037.092-.006.082s-.064.025-.023.067.031.038,0,.031-.039-.005-.014.021.017.037-.007.047-.028.025-.017.036,0,.036-.017.056-.024.039-.008.043.017.019,0,.034-.013.033,0,.041.012.032-.027.071-.051.063-.016.087.032.03,0,.03-.087.064-.046.074c.014,0,.017.015.007.025a.034.034,0,0,1-.045-.008c-.015-.015-.035-.019-.044-.009s-.006.026.009.035.007.033-.029.062-.049.05-.017.071c.052.035.194-.08.176-.143-.008-.03.006-.055.051-.085s.056-.049.043-.062,0-.036.015-.055.024-.048,0-.077-.025-.035-.007-.028c.037.016.089-.029.063-.055-.01-.01,0-.034.018-.053s.027-.043.018-.053a.025.025,0,0,1,0-.036.487.487,0,0,0-.01-.292c-.016-.016-.019-.031-.007-.034s.02-.027.019-.053-.009-.041-.021-.028-.023.006-.026-.01A.029.029,0,0,1,19,1.814c.03-.007.036-.1.008-.13a.256.256,0,0,1-.022-.11c0-.1-.033-.146-.079-.123-.016.008-.009,0,.017-.019.052-.037-.011-.132-.071-.107-.017.007-.014,0,.006-.027.047-.05-.141-.307-.213-.291-.029.006-.034,0-.018-.014s0-.042-.023-.067C18.554.878,18.518.893,18.545.953ZM.971,18.6c-.017.037.223.285.25.258.01-.01.042.006.071.036s.061.045.071.036.033,0,.051.016a.071.071,0,0,0,.072.017c.021-.009.041-.006.044.008s.038.028.076.03c.082.006.108-.009.055-.033-.02-.009-.028-.026-.016-.037s.024-.006.029.013.014.021.024,0,.026-.027.04-.014a.022.022,0,0,1-.009.038c-.077.034.039.071.238.076.147,0,.219-.007.231-.034s.024-.029.035-.013.03.012.045-.006.033-.019.041,0,.048.018.092,0,.085-.023.094-.015.036-.012.061-.045.053-.053.069-.037.036.006.056-.024a.181.181,0,0,0,.029-.051.166.166,0,0,1,.032-.047c.019-.024.038-.033.041-.02s-.011.031-.03.039-.025.027-.007.045.047.01.109-.052A.246.246,0,0,1,3,18.7c.086,0,5.682-5.6,5.687-5.692a.214.214,0,0,1,.078-.131.213.213,0,0,0,.075-.119.1.1,0,0,1,.045-.076c.025-.015.036-.035.025-.046s0-.035.014-.054a.063.063,0,0,0,.019-.063.063.063,0,0,1,.019-.064c.019-.019.022-.042.008-.051s-.01-.024.011-.034.028-.025.017-.036A.034.034,0,0,1,9,12.29a.311.311,0,0,0,.027-.151c0-.068-.006-.118-.013-.111S9,12,9,11.961c0-.07,0-.077-.042-.066s-.069.06-.031.083c.015.009.017.014.006.01-.051-.015-.052.033,0,.064s.038.093-.025.078c-.018,0-.029.012-.029.044,0,.061.019.087.03.04.005-.023.014-.02.027.009a.267.267,0,0,0,.03.054c.006.006-.017.008-.052,0-.052-.005-.056,0-.022.015s.037.033.034.048-.015.019-.025.009c-.028-.028-.074.029-.074.09,0,.029-.012.056-.026.06s-.018.015-.008.025,0,.036-.019.056-.027.043.01.065.038.027.026.027-.023.021-.025.047-.015.044-.056.032-.05-.011-.032.052c.01.036.009.057,0,.045-.031-.03-5.742,5.675-5.748,5.741,0,.033-.009.039-.024.025s-.04,0-.064.024-.052.036-.062.026-.043.011-.074.047-.045.067-.032.071.006.018-.016.032a.046.046,0,0,1-.064-.008c-.024-.034-.045-.017-.078.066-.01.025-.028.046-.04.045s-.01-.012,0-.027a.038.038,0,0,0,0-.053.028.028,0,0,0-.044,0,.145.145,0,0,1-.1.022q-.084,0-.042.016c.06.029.038.039-.066.031-.081-.006-.09,0-.1.051s-.007.053-.024,0S2.1,18.9,2.09,18.924s-.031.012-.047-.006a.037.037,0,0,0-.054-.008c-.019.019-.013.029.028.041.072.022.078.032.033.052A.04.04,0,0,1,2,18.987c-.008-.019-.024-.024-.036-.013s-.018-.007-.014-.042,0-.049,0-.033-.04.02-.077.009a.124.124,0,0,0-.082-.006c-.008.008-.031,0-.05-.021a.045.045,0,0,0-.063-.008c-.015.015-.031.015-.034,0-.01-.041-.037-.007-.037.046,0,.036,0,.035-.021,0s-.023-.037-.029-.013-.021.019-.047-.009-.026-.037-.009-.029c.044.019.063-.008.029-.042s-.039-.013-.071.029-.044.046-.048.024a.092.092,0,0,0-.031-.052l-.047-.035c-.012-.009-.025,0-.03.019s-.011.013-.015-.022c-.005-.051-.012-.057-.058-.05-.029,0-.052,0-.052-.015s-.015-.008-.033.01-.032.03-.025-.028c0-.035,0-.051-.015-.039s-.026.01-.036-.035C1.05,18.565.995,18.551.971,18.6ZM8.624,11c.016,0,.018.036,0,.073-.036.1.024.138.083.058.019-.026.045.015.032.049-.007.018,0,.014.019-.008.035-.045-.107-.238-.146-.2C8.6,10.98,8.609,10.992,8.624,11Zm.168.347c.033.078.035.11.009.106s-.017.009.019.035.049.049.031.067-.012.033.01.042a.046.046,0,0,1,.029.048c0,.019-.011.019-.015,0s-.016-.025-.027-.014,0,.035.018.055.04.024.043.008.016-.02.027-.009,0,.03-.027.044-.039.032-.028.043a.034.034,0,0,1-.008.045c-.035.035-.024.043.072.05l.081.006v-.085A.2.2,0,0,0,9,11.671c-.015-.015-.019-.035-.01-.045s.006-.03-.009-.044-.019-.035-.009-.044,0-.034-.018-.053-.028-.043-.018-.053-.006-.042-.036-.071-.045-.061-.036-.071.006-.03-.009-.044a.036.036,0,0,0-.049,0q-.022.022-.013-.022c.008-.038.006-.04-.019-.016S8.764,11.275,8.793,11.342ZM18.941,1.714a.075.075,0,0,0,.038.06c.031.016.03.018,0,.012s-.081-.064-.053-.092S18.941,1.686,18.941,1.714ZM11.928,8.938a.145.145,0,0,0,.081,0c.056-.012.064-.019.044-.039s-.027-.014-.03,0-.017.013-.03,0a.036.036,0,0,0-.051,0C11.927,8.913,11.921,8.931,11.928,8.938Zm.306.039c.019.043.106.044.149,0a.122.122,0,0,1,.094-.023c.07.011.147-.048.094-.072-.023-.01-.021-.023.006-.039a.043.043,0,0,1,.066.019c.02.034.035.033.07,0a.11.11,0,0,1,.074-.038.058.058,0,0,0,.057-.093c-.02-.024-.036-.026-.041-.007s-.01.018-.016,0,.006-.036.05-.038.059-.015.059-.03.009-.012.019.006c.066.125-.117.3,2.959-2.78,2.75-2.75,2.921-2.928,2.8-2.9-.024,0-.038,0-.03-.006s-.01-.015-.039-.015c-.06,0-5.629,5.547-5.646,5.624s.192-.116,2.8-2.725A33.657,33.657,0,0,1,18.6,3.079c.006.006-1.244,1.258-2.777,2.782L13.031,8.632l-.075-.008c-.041,0-.078.005-.082.022s-.024.022-.045.013-.055,0-.108.069-.077.078-.088.068-.005-.021.011-.025.02-.016.009-.027-.031,0-.046.016a.442.442,0,0,1-.255.1C12.3,8.846,12.215,8.935,12.234,8.977Zm-1.618,1.949c-.007.027,0,.053.018.057s.018.01-.009.016c-.053.012-.127.082-.107.1s.017.118-.011.111a.029.029,0,0,1-.02-.036.058.058,0,0,0-.015-.05c-.012-.011-.018.007-.013.042a.1.1,0,0,1-.04.1c-.032.025-.04.047-.024.063s.009.039-.022.064-.041.053-.033.072a.039.039,0,0,1-.023.051c-.021.009-.029.026-.018.036s0,.036-.016.055.031.112.091.112c.029,0,.033-.062.005-.068s-.007-.015.017-.026.038-.021-.012-.026-.05-.01.01-.052.059-.053.04-.072c-.039-.039-.02-.079.047-.095.047-.011.058-.021.051-.05a.127.127,0,0,1,.035-.087c.024-.028.038-.064.031-.08s.011-.045.044-.067.053-.053.044-.086-.005-.048.038-.051c.058-.005.341-.27.316-.3-.009-.009,0-.019.011-.023a.041.041,0,0,1,.042.026c.018.039.132-.06.137-.119,0-.029.01-.027.03.007.033.056.057.039.046-.035s-.047-.1-.1-.049a.149.149,0,0,1-.1.047c-.051,0-.141.075-.115.1.01.01-.007.02-.036.023-.048,0-.049.008-.012.025.061.028.035.041-.057.03A.356.356,0,0,0,10.616,10.926ZM8.558,13.034a.025.025,0,0,1,.03-.018c.013,0,.017.018.009.033-.044.076-5.517,5.55-5.533,5.533s.884-.917,2.729-2.756c2.432-2.424,2.744-2.741,2.722-2.766s-.016-.024.006-.015S8.555,13.047,8.558,13.034Zm2.177-2.154c.005.023.017.018.036-.015s.036-.04.045-.031c.025.025-.065.086-.1.068-.016-.008-.02-.024-.009-.035S10.731,10.862,10.735,10.88Zm.592-.42c.01.01.034,0,.054-.019s.023-.04.008-.043a.066.066,0,0,0-.054.019A.032.032,0,0,0,11.327,10.46Zm0,.067c.036.034.09.029.074-.007a.04.04,0,0,0-.052-.021C11.327,10.507,11.317,10.52,11.324,10.527Zm.1-.1c-.013.022-.015.047-.005.057a.111.111,0,0,0,.142-.018c.009-.02.024-.028.035-.018a.168.168,0,0,0,.128.01s-.014-.026-.041-.048c-.06-.048-.057-.052.037-.048.077,0,.147.046.1.058-.016,0-.012.023.008.043s.048.025.081-.008.054-.034.072-.016c.033.033.126.038.126.006,0-.012.013-.01.028.006a.064.064,0,0,0,.066.011c.021-.009.042,0,.045.012.007.031.1.041.129.013.009-.009.034.009.055.04s.04.046.046.023.023-.018.049.008.039.032.032,0,0-.036.013-.022a.024.024,0,0,0,.038,0,.035.035,0,0,1,.043-.012c.016.008.007.028-.023.052s-.042.048-.032.058.024,0,.032-.014.03-.014.07.033.062.058.087.034.044-.016.124.075c.059.067.1.1.1.077a.031.031,0,0,1,.039-.021.034.034,0,0,1,.025.04c-.006.024.7.733,2.717,2.748,1.5,1.494,2.715,2.718,2.7,2.721s.052.066.086.066.06.031.028.038c-.05.012.011.05.07.043s.052,0,.005.023-.043.037-.028.052.011.022-.022.015-.028,0,.021.041.059.056.039.077-.009.042.076.11c.058.046.082.074.056.062-.055-.023-.055.033,0,.058.019.009.031.08.028.17a.769.769,0,0,0,0,.164c.065.062.078.083.054.089s-.02.015-.01.026a.034.034,0,0,1-.008.045c-.015.015-.018.035-.009.044s0,.033-.016.051a.067.067,0,0,0-.008.076c.018.03.03.033.04.009s.025-.024.036-.013,0,.035-.044.063-.06.046-.024.083.031.039,0,.033-.042,0-.052.061c-.007.04,0,.06.012.046s.025-.014.025,0-.022.025-.048.027-.049.015-.049.062-.014.06-.031.064-.017.01,0,.015,0,.061-.069.113a.031.031,0,0,0,0,.047.039.039,0,0,1,0,.055c-.015.015-.014.031,0,.035.039.009-.034.063-.077.057-.017,0-.017.009,0,.027s.016.046-.023.085-.057.043-.061.024a.043.043,0,0,1,.026-.046.042.042,0,0,0,.027-.042c0-.016-.052.017-.118.084-.11.11-.11.111-.038.1a1.015,1.015,0,0,0,.4-.351.113.113,0,0,1,.029-.069.193.193,0,0,0,.034-.1.116.116,0,0,1,.04-.089c.019-.008.026-.024.015-.035s-.005-.034.012-.051a.12.12,0,0,0,.021-.093.116.116,0,0,1,.014-.085.135.135,0,0,0,0-.145c-.011-.011-.007-.023.009-.027s.022-.014.013-.023a.123.123,0,0,1,0-.084.112.112,0,0,0,0-.093c-.014-.014-.012-.028,0-.031s.018-.017,0-.031a.116.116,0,0,1-.014-.085.118.118,0,0,0-.018-.089.118.118,0,0,1-.018-.089.121.121,0,0,0-.022-.093c-.017-.017-.024-.04-.014-.049s0-.037-.026-.061a.105.105,0,0,1-.037-.072c0-.016-.016-.051-.043-.079a.149.149,0,0,1-.046-.1c.008-.084-.193-.292-2.946-3.044s-2.974-2.967-3.037-2.939c-.019.009-.057-.007-.085-.035s-.063-.047-.079-.044a.1.1,0,0,1-.072-.037c-.024-.024-.051-.035-.061-.026s-.032,0-.049-.013c-.042-.041-.145-.054-.154-.019,0,.016-.017.009-.032-.016-.029-.05-.162-.065-.137-.015a.044.044,0,0,1,0,.048c-.011.011-.02,0-.023-.031s-.016-.049-.03-.049-.019.022-.012.048a.081.081,0,0,1,0,.066c-.01.01-.018-.007-.018-.038,0-.1-.087-.12-.1-.027a.076.076,0,0,1-.036.06c-.021.009-.023,0,0-.017.037-.041,0-.114-.034-.075-.016.016-.029.019-.029.007,0-.029-.164-.028-.193,0a.115.115,0,0,1-.085.013C11.479,10.344,11.466,10.352,11.424,10.424Zm-1.2,1.6a.8.8,0,0,0,.028.231.116.116,0,0,1,.011.082.121.121,0,0,0,.022.093c.017.017.024.04.014.049s0,.037.025.061.037.055.029.07c-.02.04.033.1.062.072s.01-.031-.018-.044-.039-.02.031-.035.07-.02.049-.04a.034.034,0,0,0-.047,0c-.017.017-.027.008-.046-.043s-.015-.073,0-.084c.064-.065.03-.182-.053-.182-.059,0-.06,0-.009-.031a.1.1,0,0,0,.053-.085c0-.048,0-.05-.026-.016a.048.048,0,0,1-.06.019c-.03-.017-.029-.018.011-.011s.039,0,.006-.032-.032-.048-.023-.057.025,0,.034.02c.018.041.058.016.047-.029a.268.268,0,0,0-.057-.082c-.046-.049-.045-.057.014-.107.035-.03.057-.061.049-.07s-.027,0-.042.011-.035.019-.044.009C10.242,11.746,10.222,11.829,10.228,12.025Zm.184.47c.009.021.026.027.04.014a.035.035,0,0,0,0-.05c-.015-.015-.032-.021-.04-.014S10.4,12.475,10.412,12.495Zm.07.163a.025.025,0,0,1-.007.038c-.078.06-.082.086-.022.147.034.034.058.074.055.09-.009.038,5.833,5.883,5.881,5.883a.218.218,0,0,1,.092.048c.032.026.066.037.075.024s.033,0,.054.024a.114.114,0,0,0,.084.043.113.113,0,0,1,.079.029c.018.018.041.025.051.016a.025.025,0,0,0,0-.035.027.027,0,0,1,0-.038c.011-.011.021-.01.021,0s.023.026.05.03c.045.006.044.007,0,.013s-.051.011-.022.04a.123.123,0,0,0,.095.024.116.116,0,0,1,.083.013.716.716,0,0,0,.376.025.026.026,0,0,1,.037,0c.01.01.034,0,.053-.018s.045-.026.056-.014.017-.006.012-.038,0-.06.017-.059.017.009.006.021,0,.038.017.058.043.025.052.006.052-.031.1-.03a.183.183,0,0,0,.129-.046c.025-.027.031-.042.013-.035s-.033,0-.036-.029-.1-.021-.123.028c-.005.009-.023,0-.038-.012s-.034-.015-.046.011-.022.029-.035,0-.02-.027-.023-.014-.039.027-.079.03a.116.116,0,0,0-.087.036.067.067,0,0,1-.065.026c-.043,0-.045-.008-.011-.023s.031-.027.021-.038a.03.03,0,0,0-.042,0,.27.27,0,0,1-.136.014c-.091-.006-.115,0-.12.039s-.007.039-.009,0c0-.07-.041-.095-.14-.1-.049,0-.093-.014-.1-.031s-.011-.018-.015,0-.052.007-.088-.044a.116.116,0,0,0-.072-.017c-.056,0-.056,0,0,.037.041.025.053.04.033.045a.082.082,0,0,1-.063-.026.081.081,0,0,0-.058-.028c-.014,0-.05-.025-.081-.064s-.061-.062-.067-.054a.075.075,0,0,1-.139-.046c0-.039-.412-.46-2.877-2.917-2.425-2.417-2.876-2.874-2.848-2.886s.021-.02,0-.03c-.038-.017-.042-.1,0-.1.013,0,0-.025-.033-.056s-.06-.052-.065-.047S10.471,12.648,10.482,12.658Zm2.981,3.167,2.74,2.749-2.766-2.749c-1.522-1.512-2.754-2.749-2.74-2.749S11.956,14.313,13.463,15.825Zm2.9,2.867a.023.023,0,0,0,.04.008.035.035,0,0,0,0-.049c-.013-.013-.031-.017-.04-.008A.049.049,0,0,0,16.363,18.691Zm1.582.147c.023.1.062.116.12.058.029-.029.061-.045.071-.035s.076-.042.162-.13.126-.138.1-.125a.056.056,0,0,1-.064,0c-.017-.017-.045-.005-.087.036s-.054.07-.043.081.006.022-.01.025-.02.015-.01.026,0,.033-.012.049-.03.024-.022-.013-.019-.034-.059.017c-.005.007-.024-.008-.042-.034s-.027-.032-.02-.014c.016.045-.034.053-.054.008S17.929,18.772,17.945,18.839Zm.127-.085a.072.072,0,0,0,.06,0c.027-.015.025-.017-.009-.011s-.039,0-.027-.027,0-.024-.019,0S18.057,18.746,18.072,18.754Z" transform="translate(-0.245 -0.295)" fill="#f37944" fill-rule="evenodd"/>
</svg>
