<svg id="Password" xmlns="http://www.w3.org/2000/svg" width="21" height="21" viewBox="0 0 21 21">
  <path id="Path_19" data-name="Path 19" d="M19.021,1.979A6.764,6.764,0,0,0,7.8,8.848L.18,16.469A.615.615,0,0,0,0,16.9v3.48A.615.615,0,0,0,.615,21H4.1a.615.615,0,0,0,.435-.18l.87-.871a.615.615,0,0,0,.176-.506l-.108-.935,1.3-.122a.614.614,0,0,0,.555-.555l.122-1.3.935.109a.606.606,0,0,0,.48-.151.617.617,0,0,0,.206-.46V14.889h1.125a.615.615,0,0,0,.435-.18L12.2,13.151a6.663,6.663,0,0,0,6.822-1.6A6.775,6.775,0,0,0,19.021,1.979ZM17.28,6.33a1.845,1.845,0,1,1,0-2.61A1.847,1.847,0,0,1,17.28,6.33Z" fill="#f37944"/>
</svg>
