<svg id="Red_cross" data-name="Red cross" xmlns="http://www.w3.org/2000/svg" width="30" height="30" viewBox="0 0 30 30">
  <path id="Path_1" data-name="Path 1" d="M14.771.02a.187.187,0,0,0,0,.04c0,.01-.018.018-.042.018s-.044-.015-.044-.033-.013-.013-.028.011-.042.037-.1.009S14.48.037,14.49.089s-.015.075-.074.021c-.032-.03-.036-.03-.019,0s0,.038-.026.038A.076.076,0,0,1,14.3.1c-.015-.04-.023-.039-.057.007-.021.029-.032.064-.025.076s-.024.023-.07.022c-.065,0-.074-.007-.039-.03s.037-.029-.007-.03-.071.045-.023.075a.068.068,0,0,1,.03.051c0,.021-.016.019-.044,0-.047-.04-.118-.015-.09.031.009.016,0,.036-.029.046s-.038.034-.026.053,0,.019-.027,0-.05-.03-.066.011a.049.049,0,0,1-.062.032c-.029-.011-.038,0-.027.026.018.046-.06.144-.091.114-.01-.01.005-.037.034-.061.047-.038.045-.039-.016-.009-.038.018-.062.044-.053.058.022.036-.09.157-.137.147-.022,0-.045.022-.05.059s-.023.068-.038.068-.028.034-.028.075c0,.057-.02.08-.083.095-.122.029-.134.042-.093.093.06.072.056.127-.008.114-.031-.006-.057,0-.057.019s-.016.02-.035.009-.027-.008-.015.011a.027.027,0,0,1-.011.042c-.038.013-.066.146-.031.146.057,0,.12-.038.1-.063s0-.027.015-.027.032.02.032.045a.045.045,0,0,1-.045.045c-.04,0-.05.019-.042.08,0,.011-.016.031-.038.045s-.031.026,0,.026a.036.036,0,0,1,.037.032c0,.018-.013.024-.03.013s-.03,0-.03.013A.032.032,0,0,1,13,1.686c-.017,0-.025-.011-.016-.025s0-.025-.025-.025-.034.019-.024.048c.031.088.045.1.071.058.014-.023.026,2.076.026,4.738,0,3.179.01,4.783.031,4.789.042.014.038.176-.006.256s-.055.141-.021.141a.031.031,0,0,0,.027-.034c0-.024.012-.024.042,0s.046.026.059,0,.01.005,0,.059c-.011.076,0,.1.035.1s.041.01.018.038.029.128.063.094c.009-.009.012.02.007.064s0,.075.034.063.035,0,.024.014,0,.038.029.048a.078.078,0,0,1,.047.068c0,.042,0,.043-.028.005s-.039-.033-.052-.02,0,.041.028.062.043.047.033.058.014.02.054.02a.162.162,0,0,1,.117.06c.024.033.054.06.068.06a.489.489,0,0,1,.172.166.2.2,0,0,0,.028.068c.024.042.031.043.032.007s0-.04.029,0a.075.075,0,0,1-.007.091c-.019.025,0,.019.037-.014s.062-.043.05-.023,0,.038.042.038.055.014.045.03.04.042.146.031c.031,0,.047.007.037.025a.036.036,0,0,0,.012.049c.017.01.031,0,.031-.033,0-.065.032-.037.043.038,0,.031.02.049.035.041a.035.035,0,0,0,.02-.038c-.014-.041.086-.024.132.023s.037.048-.025.073c-.046.018-.053.029-.021.03a.124.124,0,0,0,.086-.043c.042-.05.256-.064.225-.015a.037.037,0,0,1-.051.01c-.018-.011-.024-.006-.013.011a.514.514,0,0,0,.334-.026c.062-.058.276-.03.307.04.02.045.036.055.051.03s.008-.036-.01-.036a.033.033,0,0,1-.032-.033c0-.018.02-.026.044-.016a.052.052,0,0,0,.06-.009c.009-.015-.018-.023-.059-.018s-.075,0-.075-.02.041-.021.09-.013a.16.16,0,0,0,.133-.028.149.149,0,0,1,.087-.043.068.068,0,0,0,.06-.038c.011-.028.023-.026.047.008s.032.035.032.006.013-.032.027-.023.035,0,.044-.028a.089.089,0,0,1,.08-.045c.035,0,.054-.014.044-.03s0-.03.013-.03.032-.022.032-.049.016-.042.047-.03.039.005.028-.012c-.024-.039.066-.13.1-.105.017.011.022,0,.012-.028s0-.047.03-.047.048-.013.048-.028.037-.024.083-.019c.1.012.13,0,.108-.059-.009-.024-.029-.037-.044-.027-.042.026-.031-.017.016-.064a.142.142,0,0,1,.076-.043c.018,0,.027-.033.019-.075s0-.072.022-.068.031-.017.027-.046c-.012-.071.1-.186.157-.163.026.01.047,0,.047-.011s-.065-.043-.128-.033c-.012,0-.023-.01-.023-.027s.04-.042.109-.033c.019,0,.043-.018.053-.046s.01-.043-.022-.016c-.062.052-.086,0-.026-.052.029-.027.039-.039.023-.026-.046.036-.077.026-.077-.023a.045.045,0,0,1,.045-.045c.03,0,.045-.031.045-.094s.012-.089.04-.078.04,0,.04-.024-.015-.034-.033-.027-.032-1.339-.032-4.737c0-2.612,0-4.736.01-4.719a.046.046,0,0,0,.041.03c.017,0,.009-.033-.017-.074-.058-.088-.066-.212-.013-.178.02.012.007-.019-.029-.069s-.055-.1-.036-.126.018-.026-.007,0c-.065.054-.119.034-.109-.041A.833.833,0,0,0,16.479.9a.159.159,0,0,1-.053-.083A.032.032,0,0,0,16.4.781c-.017,0-.03-.021-.03-.046s.012-.04.06-.014.06.022.06,0a.032.032,0,0,0-.033-.031.2.2,0,0,1-.092-.068c-.033-.037-.05-.05-.039-.027s.009.034-.045,0-.062-.055-.051-.1c.015-.058.013-.058-.041-.009s-.061.047-.1.005S16.051.346,16.1.379c.02.012.022,0,.007-.02s-.034-.027-.066.018S16,.431,15.973.383A.064.064,0,0,0,15.9.348c-.024.009-.044,0-.044-.016S15.822.3,15.781.3s-.075-.017-.075-.045a.044.044,0,0,0-.043-.045A.079.079,0,0,1,15.6.178c-.011-.017,0-.023.036-.013.051.016.051.015,0-.026C15.61.116,15.6.088,15.606.077s.009-.02,0-.02a.143.143,0,0,0-.067.053c-.032.04-.047.043-.059.014s-.025-.031-.06,0-.05.028-.071-.006-.087-.042-.268-.038c-.237,0-.335-.035-.144-.058.085-.01.081-.013-.03-.017C14.832,0,14.773.007,14.771.02ZM14.317.2c-.029.029-.086-.018-.065-.052s.029-.02.051,0S14.327.185,14.317.2ZM16.77,1.477c-.009.015,0,.028.016.028s.025.014.015.03c-.034.056-.074.031-.068-.043,0-.04.017-.066.03-.058A.031.031,0,0,1,16.77,1.477ZM12.988,6.51c0,2.562,0,3.61.008,2.329s0-3.378,0-4.659S12.988,3.948,12.988,6.51Zm-11.1,6.485c0,.017-.013.024-.028.014a.033.033,0,0,0-.045.01c-.029.047.066.063.1.017s.675-.044,4.6-.051l4.568-.008-4.6-.007C3.271,12.965,1.893,12.973,1.893,12.995Zm13.3-.007c0,.043.034.062.081.044s.037-.022,0-.043C15.229,12.957,15.2,12.956,15.2,12.988Zm8.34,0c2.993.005,4.542.018,4.542.038s-1.559.033-4.572.037l-4.572.007,9.129.031-4.722.006c-3.69,0-4.722,0-4.723-.031s-.026-.007-.056.029-.065.056-.085.035c-.037-.037-.158.029-.158.087,0,.021-.024.037-.053.036s-.037-.008-.015-.017c.1-.042.025-.136-.08-.1-.07.027-.071.029-.015.074s.052.046-.032.032-.087-.012-.03.032.056.045-.025.031c-.066-.011-.081,0-.067.03s0,.039-.027.028-.038,0-.03.02-.012.039-.049.042a.207.207,0,0,0-.117.067c-.058.068-.109.085-.072.024.013-.021-.019,0-.071.038s-.091.1-.083.144,0,.062-.012.054a.161.161,0,0,0-.1.027c-.043.022-.088.032-.1.021s-.012,0,0,.019.033.03.061.007.038-.015.038.044c0,.08-.022.095-.069.047a.056.056,0,0,0-.074,0c-.037.023-.034.029.015.03s.057,0,.008.041c-.029.022-.045.047-.037.055s0,.054-.029.1a.169.169,0,0,0-.026.115c.01.017,0,.02-.018.007a.057.057,0,0,1-.02-.067c.009-.024.005-.037-.008-.028a.211.211,0,0,0-.018.128.305.305,0,0,1-.091.258c-.019.014-.016.022.007.023s.038.034.038.076-.011.075-.024.075a.21.21,0,0,0-.079.04c-.053.039-.053.04,0,.041a.1.1,0,0,0,.079-.033c.014-.02.022-.013.022.02s-.013.053-.03.053-.03.054-.03.121.014.121.03.121c.048,0,.035.065-.022.109-.037.028-.041.04-.012.041s.034.02.023.046-.005.045.009.045.023.024.018.053a.144.144,0,0,0,.025.1c.026.033.025.038,0,.021s-.038-.008-.038.009.021.032.047.032.038.014.028.03,0,.03.028.03.047.026.047.06c0,.068-.056.068-.112,0-.023-.028-.037-.032-.038-.01a.145.145,0,0,0,.044.081.159.159,0,0,1,.045.093c0,.026.014.047.032.047s.024-.012.015-.027,0-.035.028-.044.045,0,.045.056-.013.069-.045.056-.045,0-.045.011c0,.052.037.067.092.037s.1.038.079.125c-.006.023-.005.032,0,.019.026-.047.128.042.128.112a.124.124,0,0,0,.031.091.041.041,0,0,1,.01.055c-.011.02-.009.026,0,.013s.042-.007.064.011a.089.089,0,0,0,.078.019.08.08,0,0,1,.077.027c.032.034.03.041-.008.041s-.062.047-.016.075c.017.01.03.007.03-.007,0-.04.162-.028.189.014a.53.53,0,0,0,.3.134c.029,0,.053.006.053.025s-.013.025-.03.015-.03,0-.03.012.054.025.132.017c.1-.01.136,0,.15.033s.032.038.049.028.057.012.088.051l.056.07,4.717.015c2.594.008,4.717.007,4.717,0a40.511,40.511,0,0,0-4.774-.056c-4.224,0-4.828-.01-4.67-.071.246-.095,9.663-.01,9.57.086-.012.012,0,.017.037.011a.093.093,0,0,0,.07-.056c.011-.04.009-.04-.019,0s-.032.037-.032-.01.019-.053.082-.045.08,0,.075-.028.006-.037.022-.037.03.02.03.045.014.045.032.045.024-.012.015-.027c-.026-.042.062-.063.1-.024s.034.022.026-.025.007-.06.088-.06.093-.012.083-.038.006-.038.031-.038.038-.014.027-.03.009-.03.043-.03.062-.015.062-.033.02-.026.045-.016.045,0,.045-.035,0-.045.03-.007.029.032.03-.023c0-.07.043-.091.076-.037s.075,0,.075-.064c0-.038.013-.052.035-.038s.029.005.016-.029,0-.048.07-.035c.059.01.091,0,.094-.022l.008-.068a.21.21,0,0,1,.027-.068c.013-.021.01-.038-.008-.038s-.043.039-.035.111a.061.061,0,0,1-.026.054c-.019.012-.023,0-.01-.035s.014-.049-.03-.013-.051.035-.051-.008a.05.05,0,0,1,.05-.049c.028,0,.042-.008.031-.019-.036-.037.071-.108.137-.092s.065.015.008-.027-.052-.044-.007-.044.066-.061.053-.181c0-.032,0-.035.02-.009a.045.045,0,0,0,.065.011c.028-.017.03-.031.007-.045-.062-.038-.04-.173.025-.162.032.005.059,0,.06-.013,0-.083,0-.095-.029-.053s-.029.016-.03-.068.009-.113.067-.116c.037,0,.051-.009.03-.017-.053-.021-.047-.147.01-.2s.043-.047,0-.047-.047-.027-.047-.077.012-.07.038-.055.03.012,0-.021c-.046-.059-.041-.149.008-.149.022,0,.04-.013.04-.029s-.017-.023-.039-.014-.041-.011-.044-.053,0-.056.019-.028.027.032.04,0-.006-.043-.044-.046c-.076-.006-.106-.035-.065-.062.078-.052.072-.128-.008-.107s-.079.018-.059-.1c.013-.08.008-.131-.015-.145s-.027-.008-.013.013.014.035,0,.035-.031-.035-.047-.077-.04-.071-.053-.062-.027-.019-.03-.06.007-.067.023-.057.022,0,.011-.031-.026-.038-.04-.016a.064.064,0,0,1-.076.013c-.05-.019-.049-.023.012-.046s.06-.086-.016-.086c-.025,0-.037.014-.027.03.028.046-.044.036-.092-.013A.156.156,0,0,1,29.4,13.7a.159.159,0,0,0-.119-.136.112.112,0,0,1-.1-.124.067.067,0,0,0-.019-.07c-.019-.012-.026,0-.016.022a.028.028,0,0,1-.029.042c-.025,0-.038-.011-.03-.025s-.006-.025-.033-.025-.04-.014-.026-.038,0-.019-.034.007-.047.03-.034.008,0-.038-.054-.038-.077-.017-.077-.042-.021-.037-.065-.025-.058.005-.046-.014-.01-.056-.045-.088-.067-.046-.077-.019a.064.064,0,0,1-.057.038c-.024,0-.036-.014-.026-.03s-.066-.045-.141-.034c-.011,0-.016-.023-.01-.055s0-.053-.034-.041a.045.045,0,0,0-.03.057c.027.069-.1.035-.135-.038l-.037-.069-9.134.014Zm-21.9.043a.058.058,0,0,0,0,.055c.01.017,0,.03-.014.03a.067.067,0,0,1-.05-.045c-.031-.081-.078-.049-.057.038.013.054.01.073-.009.053a.233.233,0,0,1-.044-.091c-.011-.046-.015-.04-.018.023,0,.046-.017.083-.033.083s-.027-.01-.023-.023-.006-.023-.023-.023-.026.031-.021.07c.008.063,0,.068-.088.054-.069-.011-.109,0-.138.036s-.039.041-.03.006a.146.146,0,0,1,.077-.075c.068-.031.089-.076.035-.076-.029,0-.062.033-.166.166-.046.059-.047.059-.029-.008.01-.037.007-.068-.007-.068s-.033.039-.045.168a.041.041,0,0,1-.042.033c-.021,0-.032-.011-.023-.025s-.012-.025-.045-.025a.1.1,0,0,0-.079.03c-.01.017,0,.03.028.03s.047.015.047.033S.822,13.5.8,13.5a.048.048,0,0,0-.06.03c-.013.034-.028.038-.056.015s-.057-.011-.108.042a.26.26,0,0,1-.1.073.028.028,0,0,0-.027.029c0,.019.027.019.072,0,.064-.024.07-.02.055.038-.01.037-.022.048-.03.027-.022-.067-.1.023-.1.117,0,.058-.019.091-.06.1s-.063.039-.059.121c0,.037-.079.1-.113.083s-.038,0-.038.019a.026.026,0,0,0,.034.026.047.047,0,0,1,.049.033c.01.028,0,.035-.042.023s-.056,0-.056.077c0,.058-.017.1-.045.109s-.038.007-.008-.026c.055-.058.046-.1-.009-.045-.026.026-.039.06-.029.076s-.006.043-.036.062c-.046.029-.045.031.014.015s.068-.01.068.149c0,.129-.01.168-.045.168s-.045.033-.045.121.013.121.045.121.045.013.045.028-.027.023-.06.017-.06,0-.06.02.021.024.046.014c.061-.023.091.059.044.117-.03.036-.029.045,0,.046s.022.016-.017.045-.053.044-.006.044c.029,0,.045.012.036.027s0,.035.028.044c.062.024.056.076-.008.066-.029,0-.036,0-.015.005a.03.03,0,0,1,.018.045c-.012.019-.006.024.015.011s.036-.007.038.01.006.049.009.07a.11.11,0,0,1-.018.07c-.016.022,0,.028.061.02s.084,0,.084.035c0,.057-.039.064-.06.01-.008-.021-.016-.006-.017.032s.01.062.033.048.029,0,.013.036-.014.05.016.02.1-.05.071-.008c-.01.017,0,.03.028.03s.047.026.047.06.011.06.025.06.043.033.065.074.054.067.073.058.007.005-.025.031-.043.048-.023.048.028.019.019.041a.048.048,0,0,0,.031.059c.055.021.058.007.016-.073-.024-.045-.021-.058.012-.058a.044.044,0,0,1,.039.053c0,.029.013.049.035.045s.032.006,0,.06-.032.065.017.024.06-.036.124.038c.081.094.109.1.082.029q-.019-.053.049.023c.037.042.084.072.1.068s.037.013.037.038a.045.045,0,0,1-.045.045c-.025,0-.037.008-.026.019s.043.008.073,0c.1-.043.134-.041.116.006-.011.029,0,.051.042.061s.054.025.047.037c-.019.03.1.019.126-.013.013-.014.008-.017-.01-.007a.09.09,0,0,1-.083-.018c-.043-.032-.035-.038.056-.044.058,0,.105.006.105.023s.034.03.075.03.075.015.075.034.011.025.041,0c.062-.051,9.748-.046,9.749.006,0,.02.019,0,.041-.036.038-.068.042-.069.071-.017s.04.049.074.02.051-.028.061-.018.01-.011,0-.045,0-.063.047-.063.063-.014.063-.032.012-.024.028-.015.048,0,.073-.028c.052-.052.14-.061.14-.014,0,.017.013.024.029.014a.065.065,0,0,0,.013-.07c-.015-.047-.012-.047.028,0s.046.049.063,0c.026-.067.023-.08-.012-.059s-.036-.013.013-.063c.027-.027.05-.032.062-.013.041.066.107.032.088-.045s.024-.109.055-.053c.007.013.009.006,0-.014-.013-.056.041-.075.109-.038s.059.029.023-.029c-.021-.034-.049-.062-.061-.062a.027.027,0,0,1-.023-.03c0-.017.02-.03.045-.03s.045-.015.045-.032.026-.024.06-.013.06.005.06-.015-.014-.025-.03-.015-.03-.009-.03-.043.014-.062.032-.062.022.016.01.035-.008.027.012.014a.055.055,0,0,0,.016-.065c-.01-.027,0-.044.027-.044s.04-.024.031-.083,0-.069.013-.046.043,0,.082-.1.075-.135.1-.136.042,0,0-.03-.033-.029-.007-.03a.035.035,0,0,0,.037-.031c0-.017-.01-.029-.023-.027-.117.019-.133-.068-.021-.119.042-.019.068-.049.058-.065s0-.03.015-.03.025-.013.015-.03c-.029-.047-.069-.036-.084.023-.008.032-.015.019-.017-.032s.009-.077.027-.066.03,0,.03-.03-.01-.043-.023-.035-.025-.069-.028-.172c-.007-.245-.006-.237-.035-.219-.014.009-.027-.034-.029-.094a.248.248,0,0,0-.028-.127.2.2,0,0,1-.021-.115c0-.054-.009-.1-.023-.1s-.038-.034-.054-.076a.177.177,0,0,0-.074-.094.073.073,0,0,1-.046-.062c0-.045-.069-.13-.105-.13s-.105-.089-.105-.149c0-.043-.019-.062-.062-.062s-.059-.015-.048-.09c.015-.1-.023-.151-.052-.074-.01.026-.032.038-.049.028a.035.035,0,0,1-.014-.047c.009-.015-.006-.019-.034-.008s-.045.008-.03-.016,0-.035-.04-.035-.062-.017-.062-.038-.007-.028-.026,0-.029.032-.043-.005c-.025-.065.061-.088.1-.026.017.028.03.036.031.017,0-.074-.076-.1-.147-.052s-.137,0-.087-.09c.021-.038.021-.052,0-.039a.027.027,0,0,1-.042-.016c-.008-.025-.031-.023-.078.007s-.071.036-.1,0-.029-.033-.029-.007a.035.035,0,0,1-.031.038c-.017,0-.03-.019-.03-.043s-.024-.039-.075-.03-.075,0-.076-.04,0-.051-.041,0-.138.071-.139.015q0-.038-.029.007c-.023.036-.036.037-.066.008s-9.154-.058-9.194-.017-.23.043-.23.009c0-.018.011-.026.025-.017s.025,0,.025-.023C1.732,13,1.659,12.989,1.634,13.028Zm13.238.016a.245.245,0,0,0,.105,0c.029-.008.005-.014-.052-.014S14.844,13.036,14.872,13.044Zm-6.063.062c-1.258,0-3.325,0-4.594,0S3.975,13.1,6.5,13.1,10.067,13.1,8.809,13.106Zm20.139.158c-.036.024-.032.029.023.03.037,0,.067-.013.067-.03C29.038,13.227,29.007,13.227,28.948,13.264Zm.282.194c.01.071.064.095.1.041.013-.022.012-.029,0-.017s-.042,0-.063-.03C29.225,13.4,29.223,13.4,29.23,13.459Zm-16.762.206c-.03.036-.029.048.006.062a.083.083,0,0,0,.083-.032c.023-.029.025-.04,0-.028a.029.029,0,0,1-.046-.013C12.509,13.632,12.492,13.636,12.468,13.665ZM.394,13.774a.141.141,0,0,1-.055.082C.3,13.882.3,13.9.325,13.9s.031.014.021.031-.005.03.011.03a.066.066,0,0,0,.049-.03c.01-.017,0-.03-.017-.03s-.027-.011,0-.044a.1.1,0,0,0,.021-.083C.4,13.741.4,13.742.394,13.774Zm29.328.269c.034.035.06.043.074.023s0-.041-.03-.052C29.678,13.978,29.667,13.986,29.722,14.043Zm.106.281c-.005.067.038.076.062.014a.043.043,0,0,0-.021-.057C29.848,14.273,29.829,14.292,29.827,14.323Zm-29.79.341c0,.04.016.067.028.06.029-.018.02-.133-.011-.133C.042,14.591.034,14.624.038,14.665Zm.264,1.4c0,.016.025.042.055.059s.055.019.055-.011-.019-.033-.045-.023-.037,0-.023-.018.007-.035-.01-.035A.031.031,0,0,0,.3,16.068Zm17.326.234c0,.023.011.035.025.026s.025,0,.025.026-.013.033-.07,0c-.08-.053-.09-.089-.025-.089A.044.044,0,0,1,17.628,16.3Zm.5.479c.018.048.058.055.083.015.009-.015-.01-.034-.041-.042S18.117,16.751,18.128,16.781Zm.323.045c-.015.024-.01.029.014.014s.034,0,.027.032c-.012.068.1.079.12.011.008-.025,0-.035-.01-.023s-.048,0-.076-.025S18.469,16.8,18.452,16.825Zm-7.308.058c0,.04-.537.044-4.657.038-3.126-.005-4.654,0-4.654.023s9.288.028,9.39,0c.02-.005.029-.021.021-.035a.03.03,0,0,0-.041-.01c-.014.009-.032,0-.041-.022S11.145,16.852,11.144,16.883Zm3.7.038c.015.045.143.07.143.027,0-.016-.029-.022-.065-.012s-.058.006-.043-.018.006-.035-.013-.035S14.835,16.9,14.842,16.921Zm-.424.033c-.046.056-.007.087.045.036a.151.151,0,0,0,.041-.059C14.5,16.9,14.452,16.913,14.418,16.954Zm.3.037c-.02.036-.053.047-.11.036s-.087,0-.095.019-.05.038-.094.042a.154.154,0,0,0-.1.044c-.019.03-.036.03-.085,0-.069-.043-.12-.026-.12.041,0,.033-.024.04-.095.027-.087-.015-.091-.012-.053.035s.036.05-.012.032c-.03-.011-.047-.008-.037.007a.037.037,0,0,1-.017.049c-.039.024-.092-.046-.066-.088.01-.016,0-.019-.017-.007a.038.038,0,0,0-.018.05c.009.015,0,.02-.03.01s-.047,0-.047.015.02.033.045.033.045.012.045.026-.045.022-.1.018c-.092-.007-.1,0-.1.079a.321.321,0,0,1-.021.118c-.03.048-.084.036-.064-.015.01-.025,0-.045-.012-.045s-.029.031-.03.068c0,.056-.006.06-.032.023s-.03-.04-.019,0a.058.058,0,0,0,.067.035c.048-.009.049-.005.008.036a.119.119,0,0,1-.117.027c-.068-.018-.069-.016-.019.034.07.071,0,.2-.11.2-.018,0-.049.034-.068.075-.027.058-.026.075,0,.075a.04.04,0,0,1,.037.043c0,.035-.014.033-.076-.007s-.075-.047-.056,0,.006.053-.024.053-.044.011-.044.025c0,.037.1.031.127-.007.012-.018.022.013.023.07s-.008.094-.019.083c-.032-.032-.1.04-.08.088.011.028,0,.038-.024.028s-.04.757-.033,4.865c.007,4.176,0,4.886-.035,4.916a.09.09,0,0,0,.08.157c.013,0,.018.044.012.1s0,.114.014.123a.1.1,0,0,1,.026.073.1.1,0,0,0,.031.076c.021.013.024-.01.01-.066-.02-.08-.018-.082.029-.034a.141.141,0,0,1,.047.075c-.013.074.007.131.038.112s.026-.008.014.011.014.067.055.109c.084.085.094.136.038.2-.031.035-.03.037.008.008s.063-.013.135.069a.324.324,0,0,0,.127.1.036.036,0,0,1,.038.033c0,.019-.022.025-.049.014s-.043-.012-.01.028a.08.08,0,0,0,.077.033.138.138,0,0,1,.1.043c.036.032.078.051.092.042s.018.005.008.031,0,.042.03.029.048,0,.048.03.01.046.023.043c.064-.017.16.043.128.08s-.02.044.014.057a.074.074,0,0,0,.083-.042c.043-.069.1-.08.072-.015s.029.091.053.039c.01-.021.012-.008.006.029s0,.066.007.064c.078-.01.108.006.064.035s-.037.029.007.03c.029,0,.053-.014.053-.031s.014-.024.03-.013.03,0,.03-.013.047-.032.105-.032.105.014.105.042c0,.058.117.082.282.059.1-.014.138-.033.138-.068s.01-.036.023-.018c.031.042.139.058.113.017-.011-.018,0-.032.027-.032a.047.047,0,0,0,.047-.047c0-.026.017-.044.038-.042a.258.258,0,0,0,.229-.065c.054-.051.075-.056.111-.026s.053.028.064.017,0-.019-.022-.019-.012-.021.028-.049c.059-.041.074-.042.1-.007s.026.023.027-.029.011-.068.09-.05c.061.013.09.008.09-.016s-.019-.029-.042-.02-.037,0-.027-.042a.08.08,0,0,1,.072-.058c.031,0,.056-.014.056-.03s.02-.03.045-.03.045-.014.045-.032.014-.024.03-.013.032-.013.03-.121a.91.91,0,0,1,.136-.142c.079-.073.13-.144.12-.168-.026-.068.021-.115.049-.049.013.032.016-.012.006-.1-.015-.13-.01-.158.028-.158s.043-.024.033-.1-.006-.087.017-.053.031.035.031.005.023-.033.068-.021c.062.017.063.015.015-.024s-.075-.129-.023-.1c.034.021.041-.024.009-.056s-.044-.147-.017-.13c.012.008.019-2.063.015-4.6-.006-3.425,0-4.622.026-4.637a.04.04,0,0,0,.013-.055.038.038,0,0,0-.051-.015c-.019.012-.026-.044-.019-.15.009-.145,0-.169-.042-.169s-.051-.022-.044-.1,0-.1-.031-.087-.039,0-.039-.016.034-.027.076-.022.071,0,.064-.025a.042.042,0,0,0-.046-.026.028.028,0,0,1-.034-.03q0-.038-.03.007c-.023.036-.029.032-.029-.024s-.013-.062-.035-.048-.03,0-.019-.059,0-.08-.013-.08c-.047,0-.119-.088-.1-.121.01-.017,0-.039-.028-.049a.076.076,0,0,1-.047-.065c0-.026-.008-.039-.019-.028-.027.027-.1-.056-.1-.112,0-.03-.027-.047-.075-.047s-.075-.016-.075-.062.014-.054.03-.043c.054.034.031-.063-.031-.13-.077-.083-.082-.083-.072.01,0,.041,0,.075-.006.075-.027,0-.1-.086-.1-.118s-.02-.024-.044-.014c-.046.018-.136-.052-.136-.1,0-.017.024-.036.052-.044s.021-.015-.03-.017-.083-.021-.083-.041-.026-.007-.057.03c-.07.084-.1.087-.083.006.012-.046.007-.054-.02-.032-.055.046-.236.033-.217-.015a.049.049,0,0,0-.014-.057c-.016-.01-.029-.006-.029.009a1.048,1.048,0,0,1-.518-.018C14.757,16.946,14.745,16.948,14.721,16.991Zm1.024.183c-.014.037-.022.038-.043.005-.038-.06-.032-.086.017-.067A.048.048,0,0,1,15.745,17.174Zm-2.451.839a.043.043,0,0,1-.039.045c-.022,0-.032-.019-.022-.045s.027-.045.039-.045S13.293,17.989,13.293,18.014Zm-.32,5.391.015,4.68L13,23.428c0-2.561,0-4.667-.015-4.68S12.965,20.831,12.973,23.405Zm.12,4.916a.041.041,0,0,1-.042.04.027.027,0,0,1-.027-.04c.008-.022.027-.04.042-.04S13.093,28.3,13.093,28.321Zm1.385,1.489c-.035.014-.035.021,0,.045s.033.027,0,.017c-.065-.018-.075-.084-.012-.081C14.5,29.792,14.506,29.8,14.479,29.81Zm.672.1a.05.05,0,0,1-.059.013.052.052,0,0,0-.061.017c-.028.045-.11.038-.18-.014-.053-.04-.042-.044.129-.044C15.093,29.879,15.162,29.891,15.151,29.908Z" fill="#f31259" fill-rule="evenodd"/>
  <path id="Path_2" data-name="Path 2" d="M14.272.018c-.037.007-.068.03-.068.051S14.173.1,14.122.1a.164.164,0,0,0-.2.155c0,.042-.012.077-.026.077S13.874.3,13.874.268s-.013-.06-.03-.06-.03.02-.03.045S13.8.3,13.784.3a.031.031,0,0,0-.03.032c0,.018.016.022.035.01s.027-.008.016.009-.055.024-.1.015C13.64.353,13.627.359,13.642.4s.005.043-.023.032-.17.1-.281.239c-.035.044-.035.06,0,.1.023.028.026.042.008.031-.044-.026-.162.076-.162.14,0,.027-.014.049-.03.049s-.03.026-.03.057a.084.084,0,0,1-.045.074.065.065,0,0,0-.008.12c.024.01.019.016-.012.018-.055,0-.086.063-.086.169a.122.122,0,0,1-.03.09c-.041.026-.042,9.955,0,9.981a.147.147,0,0,1,.03.1.178.178,0,0,0,.042.12.1.1,0,0,1,.027.094.059.059,0,0,0,.033.078.086.086,0,0,1,.049.076c0,.031.014.057.03.057s.03.027.03.06.014.06.03.06.03.02.03.045.014.045.03.045.03.018.03.04a1.148,1.148,0,0,0,.284.321c.021,0,.072.04.182.143a.244.244,0,0,0,.119.068c.026,0,.046.014.046.03s.027.03.06.03.06.015.06.034.033.027.089.016.085-.009.072.026.007.044.076.044c.051,0,.093.015.093.032s.056.028.153.02.157,0,.168.028.083.04.252.04c.238,0,.253-.008.238-.117,0-.027.011-.035.044-.023a.3.3,0,0,0,.07.02c.011,0,0,.014-.025.03s-.031.029.026.03.066-.012.052-.047a.3.3,0,0,1-.018-.06.565.565,0,0,0-.287.014.514.514,0,0,1-.334.026c-.011-.017,0-.022.013-.011a.037.037,0,0,0,.051-.01c.031-.05-.183-.036-.225.015a.124.124,0,0,1-.086.043c-.032,0-.025-.012.021-.03.062-.025.065-.033.025-.073s-.144-.062-.132-.018a.033.033,0,0,1-.02.038c-.015.006-.031-.014-.035-.045-.011-.075-.043-.1-.043-.038,0,.029-.014.043-.031.033a.036.036,0,0,1-.012-.049c.01-.017-.006-.028-.037-.025-.106.011-.164,0-.146-.031s-.01-.03-.045-.03-.056-.012-.042-.038-.01-.01-.05.023-.056.039-.037.014a.075.075,0,0,0,.007-.091c-.024-.039-.028-.038-.029,0s-.041,0-.063-.075a.447.447,0,0,0-.169-.166c-.014,0-.044-.027-.068-.06a.162.162,0,0,0-.117-.06c-.04,0-.065-.009-.054-.02s0-.037-.033-.058-.041-.049-.028-.062.037,0,.052.02.028.037.028-.005a.078.078,0,0,0-.047-.068c-.026-.01-.039-.032-.029-.048s0-.023-.024-.014-.04,0-.034-.063,0-.073-.007-.064c-.034.034-.094-.055-.063-.094s.017-.038-.018-.038-.046-.022-.035-.1c.008-.054.007-.08,0-.059s-.026.031-.059,0-.042-.026-.042,0a.031.031,0,0,1-.027.034c-.034,0-.026-.055.021-.141s.048-.242.006-.256c-.02-.007-.03-1.61-.031-4.789,0-2.948-.011-4.762-.028-4.735s-.031.036-.049-.01a.086.086,0,0,1,.018-.09c.03-.028.034-.027.017,0s-.007.038.01.038a.032.032,0,0,0,.032-.032c0-.018.013-.024.03-.013s.03,0,.03-.013a.036.036,0,0,0-.037-.032c-.028,0-.027-.007,0-.026s.039-.034.038-.045c-.008-.06,0-.08.042-.08a.045.045,0,0,0,.045-.045c0-.025-.014-.045-.032-.045s-.024.012-.015.027,0,.035-.031.045c-.079.03-.1.021-.088-.04.015-.079.115-.175.172-.166s.053-.05,0-.117c-.042-.05-.029-.063.093-.093.063-.015.083-.038.083-.095,0-.041.013-.075.028-.075s.033-.031.038-.068.028-.064.05-.059c.047.01.16-.11.137-.147-.008-.014.016-.04.053-.058.061-.03.063-.029.016.009-.029.023-.044.051-.034.061.03.03.108-.068.091-.114-.011-.028,0-.037.027-.026a.049.049,0,0,0,.062-.032c.016-.041.027-.042.066-.011s.039.025.027,0,0-.043.026-.053S13.99.316,13.981.3c-.028-.046.043-.071.09-.031.028.023.044.025.044,0a.068.068,0,0,0-.03-.051c-.048-.03-.035-.075.023-.075s.046,0,.007.03-.026.029.039.03c.046,0,.078-.01.07-.022s0-.047.025-.076C14.282.063,14.29.062,14.3.1a.076.076,0,0,0,.065.046c.03,0,.04-.014.026-.038s-.013-.03.019,0c.058.054.087.046.074-.021s0-.055.064-.024.081.026.1-.009.028-.029.028-.011a.038.038,0,0,0,.04.033.04.04,0,0,0,.04-.041c0-.05-.283-.049-.349,0-.033.026-.038.025-.021,0S14.4-.006,14.272.018Zm.661,0c-.192.023-.093.063.144.058.181,0,.248.006.268.038s.035.036.071.006.048-.029.06,0S15.5.148,15.538.1s.056-.049.067-.038.009.02-.005.02,0,.021.032.048c.052.043.053.046,0,.03-.032-.01-.046,0-.036.013a.079.079,0,0,0,.062.03.044.044,0,0,1,.043.045c0,.028.028.045.075.045s.075.015.075.033.02.026.044.016a.064.064,0,0,1,.073.035c.027.048.032.047.071-.006s.048-.049.066-.018.012.032-.007.02c-.053-.033-.071.072-.021.122s.052.041.1-.005.056-.048.041.009c-.011.042,0,.072.051.1s.063.028.045,0,.006-.01.039.027a.2.2,0,0,0,.092.068.032.032,0,0,1,.033.031c0,.021-.019.021-.06,0s-.06-.023-.06.014.014.046.03.046a.032.032,0,0,1,.03.034A.159.159,0,0,0,16.479.9a.833.833,0,0,1,.192.415c-.01.075.044.095.109.041.026-.022.028-.02.007,0s-.007.065.036.126.049.081.029.069c-.054-.033-.045.09.013.178.027.041.035.074.017.074a.046.046,0,0,1-.041-.03c-.006-.017-.01,2.107-.01,4.719,0,3.4.009,4.746.032,4.737s.033.005.033.027-.018.033-.04.024-.04.013-.04.078-.015.094-.045.094a.045.045,0,0,0-.045.045c0,.049.031.058.077.023.016-.012.006,0-.023.026-.059.056-.036.1.026.052.032-.027.037-.024.022.016s-.035.048-.053.046c-.069-.008-.109,0-.109.033s.01.028.023.027c.063-.01.128.007.128.033s-.021.021-.047.011c-.059-.023-.169.092-.157.163,0,.029-.007.05-.027.046s-.03.021-.022.068,0,.075-.019.075a.142.142,0,0,0-.076.043c-.047.048-.058.091-.016.064.015-.009.034,0,.044.027.022.056-.005.071-.108.059-.046-.005-.083,0-.083.019s-.022.028-.048.028-.042.016-.03.047.005.039-.012.028c-.039-.024-.129.066-.1.105.011.017,0,.022-.028.012s-.047,0-.047.03-.014.049-.032.049-.023.014-.013.03-.01.03-.044.03a.089.089,0,0,0-.08.045c-.01.025-.029.038-.044.028s-.027,0-.027.023-.009.028-.032-.006-.036-.036-.047-.008a.068.068,0,0,1-.06.038.149.149,0,0,0-.087.043.16.16,0,0,1-.133.028c-.1-.016-.116.019-.047.089.024.024.035.052.025.062s.012.019.05.019.063-.013.051-.044a.053.053,0,0,1,.012-.062c.016-.01.029,0,.03.022s.021,0,.044-.051c.042-.09.042-.09.025-.008-.013.063-.005.083.031.083s.048-.013.048-.028.03-.032.068-.038.068-.025.068-.045a.094.094,0,0,1,.027-.06c.016-.015.018-.009.006.013-.035.06.054.044.125-.023a.223.223,0,0,1,.1-.06.168.168,0,0,0,.119-.118.031.031,0,0,1,.03-.032c.016,0,.03-.021.03-.048s.016-.042.036-.036c.046.015.294-.231.294-.293,0-.025.014-.046.03-.046s.03-.02.03-.045.014-.045.03-.045.03-.027.03-.06.014-.06.03-.06.03-.028.03-.062-.013-.054-.035-.04-.027.008-.015-.011a.034.034,0,0,0-.018-.049c-.021-.009,0-.009.045,0,.076.016.083.009.083-.073a.187.187,0,0,1,.042-.125c.078-.065.084-.411.084-5.1,0-4.672-.006-5.03-.084-5.075a.169.169,0,0,1-.042-.128c0-.057-.014-.1-.03-.1s-.03-.034-.03-.075-.014-.075-.03-.075-.03-.024-.03-.054a.145.145,0,0,0-.06-.1.142.142,0,0,1-.06-.092c0-.065-.26-.34-.3-.315-.017.011-.031,0-.031-.028s-.027-.048-.067-.049S16.158.408,16.178.4c.059-.024-.043-.11-.11-.093-.043.011-.052,0-.039-.047s0-.054-.019-.04-.035.008-.035-.008c0-.033-.167-.125-.227-.125A.053.053,0,0,1,15.7.057a1.026,1.026,0,0,0-.536-.023c0,.024-.009.027-.022.008C15.117.008,15.07,0,14.932.019Zm-.68.124a.037.037,0,0,0,.014.051c.046.029.076-.011.037-.049C14.282.123,14.265.123,14.252.143Zm2.481,1.349c-.006.074.034.1.068.043.01-.017,0-.03-.015-.03s-.026-.013-.016-.028a.031.031,0,0,0-.007-.043C16.75,1.425,16.737,1.452,16.733,1.492ZM13,8.84c0,1.281-.008.233-.008-2.329s0-3.61.008-2.329S13,7.558,13,8.84ZM1.667,12.963a.259.259,0,0,1-.15.03.259.259,0,0,0-.15.03.119.119,0,0,1-.089.03.1.1,0,0,0-.087.045.046.046,0,0,1-.058.029.147.147,0,0,0-.111.046c-.039.034-.054.061-.034.061s.03.024.018.068c-.018.067-.018.067.029.008.1-.133.137-.166.166-.166.053,0,.032.045-.035.076a.146.146,0,0,0-.077.075c-.009.035,0,.034.03-.006s.07-.047.138-.036c.088.014.1.009.088-.054,0-.038,0-.07.021-.07s.027.01.023.023.006.023.023.023.032-.037.033-.083c0-.063.007-.068.018-.023a.233.233,0,0,0,.044.091c.019.02.022,0,.009-.053-.021-.087.026-.118.057-.038.023.061.074.058.068,0a.054.054,0,0,1,.043-.057.037.037,0,0,1,.048.033c0,.022-.011.034-.025.025s-.025,0-.025.016,1.49.029,4.692.025l4.692-.006-9.159-.031,4.581-.007c3.616-.006,4.589,0,4.618.03s.043.028.066-.008.028-.032.029-.007c0,.056.093.046.139-.015s.04-.05.041,0,.019.05.076.04.075,0,.075.03.013.043.03.043a.035.035,0,0,0,.031-.038c0-.025.01-.023.029.007s.038.039.094,0,.131,0,.1.073.033.113.1.063.149-.023.147.052c0,.019-.014.011-.031-.017-.036-.062-.122-.038-.1.026.014.037.022.038.043.005s.026-.031.026,0,.028.038.062.038.054.013.04.035-.005.029.03.016.044-.007.034.008a.035.035,0,0,0,.014.047c.017.01.039,0,.049-.028.03-.077.068-.024.052.074-.012.076,0,.09.048.09s.062.019.062.063c0,.059.063.149.105.149s.105.086.105.13a.073.073,0,0,0,.046.062.177.177,0,0,1,.074.094c.016.042.04.076.054.076s.024.044.023.1a.2.2,0,0,0,.021.115.248.248,0,0,1,.028.127c0,.06.015.1.029.094.029-.018.028-.026.035.219,0,.1.016.179.028.172s.023.008.023.035-.013.04-.03.03-.029.017-.027.066.009.066.018.03.032-.048.057-.039.042-.022.042-.169-.005-.179-.04-.131-.04.047-.04.007a.072.072,0,0,1,.04-.063c.026-.01.04-.069.04-.17,0-.119-.01-.151-.042-.139s-.038-.009-.027-.091c.014-.1.012-.107-.071-.088s-.075.013-.033-.012.074-.18.023-.18c-.017,0-.03-.024-.03-.055a.223.223,0,0,0-.06-.119.222.222,0,0,1-.06-.1.663.663,0,0,0-.289-.272c-.031,0-.04-.009-.02-.017.043-.018-.149-.222-.209-.222a.138.138,0,0,1-.083-.06.157.157,0,0,0-.112-.06c-.041,0-.068-.018-.068-.045,0-.055-.079-.061-.1-.008-.008.021-.016.007-.017-.03,0-.054-.02-.068-.086-.068a.2.2,0,0,1-.113-.027.48.48,0,0,0-.164-.05C11.256,12.941,1.689,12.927,1.667,12.963Zm17-.011c-.01.011,0,.048.014.083.031.06.03.061-.024.016s-.268-.074-.3-.028a.124.124,0,0,1-.092.031c-.059,0-.072.014-.067.073,0,.04.017.066.03.058a.035.035,0,0,0,0-.048c-.012-.02-.006-.024.014-.011a.068.068,0,0,1,0,.119c-.022.009-.016.016.015.017s.053-.015.053-.036c0-.058.121-.124.158-.087.021.021.048.01.085-.035s.055-.049.056-.029,1.033.035,4.723.031l4.722-.006-9.129-.031,4.572-.007c3.013,0,4.572-.018,4.572-.037s-1.549-.033-4.542-.038l-4.542-.008,9.134-.014.037.069a.142.142,0,0,0,.1.073c.034,0,.051-.009.039-.027a.042.042,0,0,1,.018-.055c.139-.087-.071-.09-4.816-.09C20.854,12.933,18.68,12.941,18.67,12.952Zm-12.141.034c-3.929.007-4.573.014-4.6.051s-.133.03-.1-.017a.033.033,0,0,1,.045-.01c.015.01.028,0,.028-.014s1.378-.03,4.6-.024l4.6.007ZM28.375,13c-.017.055-.018.111,0,.108.076-.01.155.01.14.035s0,.03.026.03a.064.064,0,0,0,.057-.038c.009-.027.031-.022.077.019s.055.071.045.088.006.024.046.014.065,0,.065.025.031.042.077.042.07.012.054.038,0,.019.034-.008.047-.03.034-.007,0,.038.026.038.042.011.033.025,0,.025.03.025a.028.028,0,0,0,.029-.042c-.01-.025,0-.034.016-.022a.067.067,0,0,1,.019.07.112.112,0,0,0,.1.124.159.159,0,0,1,.119.136.156.156,0,0,0,.043.093c.049.049.121.059.092.013-.01-.017,0-.03.027-.03.076,0,.087.059.016.086s-.062.027-.012.046a.064.064,0,0,0,.076-.013c.014-.022.027-.017.04.016s.007.042-.011.031-.027.014-.023.057.017.068.03.06.037.02.053.063.037.077.047.077.008-.016,0-.035-.008-.027.013-.013.028.064.015.145c-.019.121-.018.123.057.1s.075-.011.061.041c-.009.033-.028.06-.042.06-.052,0-.026.054.033.069.033.009.06.034.06.056s-.007.03-.029,0-.027-.03-.023.023c0,.037.019.063.036.057a.74.74,0,0,0-.012-.422.136.136,0,0,1-.032-.084c0-.078-.126-.3-.171-.3-.022,0-.039-.027-.039-.06s-.014-.06-.03-.06a.03.03,0,0,1-.03-.031,1.868,1.868,0,0,0-.429-.422.217.217,0,0,1-.1-.06.218.218,0,0,0-.111-.06.047.047,0,0,1-.046-.047c0-.033-.017-.042-.056-.029a.053.053,0,0,1-.074-.028c-.01-.027-.055-.046-.109-.046s-.091-.014-.091-.03A.41.41,0,0,0,28.375,13Zm-13.4.043a.245.245,0,0,1-.105,0c-.029-.008-.005-.014.053-.014S15.006,13.036,14.977,13.044Zm3.1.092a.293.293,0,0,0-.09.07.226.226,0,0,1-.105.064.056.056,0,0,0-.051.062.072.072,0,0,1-.022.068c-.018.011-.023,0-.013-.028s0-.047-.015-.047a.032.032,0,0,0-.033.03c0,.017-.021.03-.046.03a.826.826,0,0,0-.314.312.182.182,0,0,1-.075.1c-.041.031-.075.071-.075.089a.226.226,0,0,1-.06.1.228.228,0,0,0-.06.126c0,.034-.014.062-.03.062s-.03.042-.03.094c0,.068.012.089.042.078s.037,0,.026.045-.019.055-.043.013c-.05-.09-.091-.053-.079.071.007.078,0,.125-.027.135a1.939,1.939,0,0,0-.008.74c.017,0,.03.061.03.136s.014.136.03.136.03.033.03.074a.126.126,0,0,0,.03.092.1.1,0,0,1,.03.077c0,.032.01.059.023.059s.042.044.066.1a.7.7,0,0,0,.1.164c.034.036.1.111.144.166l.139.168c.065.077.163.094.136.023-.011-.029,0-.045.032-.045s.043-.007.011-.041a.08.08,0,0,0-.077-.027.089.089,0,0,1-.078-.019c-.022-.018-.051-.023-.064-.011s-.015.006,0-.013a.041.041,0,0,0-.01-.055.124.124,0,0,1-.031-.091c0-.083-.1-.159-.132-.1-.01.021-.01.009,0-.026.024-.1-.012-.167-.075-.133s-.091.014-.091-.038c0-.016.02-.021.045-.011s.045,0,.045-.056-.013-.069-.045-.056-.037.029-.028.044,0,.027-.015.027-.032-.021-.032-.047a.159.159,0,0,0-.045-.093.145.145,0,0,1-.044-.081c0-.022.015-.019.038.01.055.068.112.068.112,0,0-.035-.02-.06-.047-.06s-.038-.014-.028-.03,0-.03-.028-.03-.047-.014-.047-.032.017-.022.038-.009.03.012,0-.021a.144.144,0,0,1-.025-.1c0-.029,0-.053-.018-.053s-.019-.02-.009-.045,0-.046-.023-.046-.025-.013.012-.041c.057-.044.071-.109.022-.109-.017,0-.03-.054-.03-.121s.014-.121.03-.121.03-.024.03-.053-.009-.04-.022-.02a.1.1,0,0,1-.079.033c-.054,0-.054,0,0-.041a.21.21,0,0,1,.079-.04c.013,0,.024-.034.024-.075s-.017-.076-.038-.076-.026-.009-.007-.023a.305.305,0,0,0,.091-.258.211.211,0,0,1,.018-.128c.014-.008.018,0,.008.028a.057.057,0,0,0,.02.067c.021.013.029.01.018-.007a.169.169,0,0,1,.026-.115c.024-.047.037-.092.029-.1s.008-.033.037-.055c.049-.037.048-.04-.008-.041s-.052-.007-.015-.03a.056.056,0,0,1,.074,0c.048.048.069.033.069-.047,0-.059-.009-.069-.038-.044s-.045.021-.061-.007-.013-.03,0-.019.057,0,.1-.021a.161.161,0,0,1,.1-.027c.013.008.018-.017.012-.054s.017-.09.083-.144.084-.059.071-.038c-.037.06.014.043.072-.024a.207.207,0,0,1,.117-.067c.037,0,.057-.02.049-.042s0-.031.03-.02.038,0,.027-.028,0-.042.067-.03c.081.014.082.013.025-.031s-.055-.045.03-.032.083.009.042-.026a.085.085,0,0,1-.035-.077C18.144,13.111,18.144,13.111,18.078,13.136Zm10.96.129c0,.017-.03.03-.067.03-.055,0-.059-.006-.023-.03C29.007,13.227,29.038,13.227,29.038,13.264ZM.8,13.327a.191.191,0,0,1-.1.058.955.955,0,0,0-.309.3.031.031,0,0,1-.031.031c-.017,0-.027.018-.023.039s-.029.077-.074.122-.075.1-.066.112,0,.028-.012.028c-.041,0-.124.175-.124.261,0,.039-.014.071-.03.071s-.03.042-.03.093.013.088.038.079a.045.045,0,0,0,.03-.049.112.112,0,0,1,.038-.081c.055-.055.062-.011.008.047-.03.032-.029.037.008.026s.045-.051.045-.109c0-.079.009-.092.056-.077s.052.006.042-.023a.047.047,0,0,0-.049-.033A.026.026,0,0,1,.181,14.2c0-.018.017-.027.038-.019.058.022.112-.047.112-.142,0-.024.027-.052.06-.062s.06-.046.06-.1c0-.094.075-.184.1-.117.007.022.02.01.03-.027.015-.058.009-.062-.055-.038-.045.017-.072.017-.072,0a.028.028,0,0,1,.027-.029.26.26,0,0,0,.1-.073c.051-.053.08-.065.108-.042s.043.018.056-.015A.048.048,0,0,1,.8,13.5c.023.009.043,0,.043-.017s-.021-.033-.047-.033-.038-.014-.028-.03a.1.1,0,0,1,.079-.03c.033,0,.053.011.045.025s0,.025.028.025.038-.006.031-.013,0-.046.014-.085C1,13.244.888,13.237.8,13.327Zm28.525.156c.013-.012.014,0,0,.017-.031.054-.085.031-.1-.041-.008-.055-.005-.055.03-.006C29.282,13.481,29.31,13.495,29.324,13.483Zm-16.761.183c.02-.012.019,0,0,.028a.083.083,0,0,1-.083.032c-.035-.013-.036-.026-.006-.062s.041-.033.048-.011A.029.029,0,0,0,12.563,13.666ZM.39,13.854c-.028.033-.028.044,0,.044s.027.013.017.03a.066.066,0,0,1-.049.03c-.017,0-.022-.014-.011-.03s0-.031-.021-.031-.022-.014.013-.041a.141.141,0,0,0,.055-.082c0-.032.006-.033.018,0A.1.1,0,0,1,.39,13.854Zm29.375.159c.028.011.042.035.03.052s-.04.013-.074-.023C29.667,13.986,29.678,13.978,29.765,14.013Zm.124.325c-.024.062-.067.052-.062-.014,0-.032.021-.051.041-.043A.043.043,0,0,1,29.889,14.337ZM.04,14.555c-.063.04-.037.587.029.6.029,0,.053,0,.053-.02S.1,15.1.076,15.1s-.045-.033-.045-.121.013-.121.045-.121.045-.039.045-.166C.121,14.532.109,14.511.04,14.555Zm.043.1a.094.094,0,0,1-.017.073c-.012.007-.024-.019-.028-.06s0-.073.017-.073S.08,14.618.083,14.651Zm29.836.144a.181.181,0,0,0,.033.1c.025.033.024.038,0,.021s-.038,0-.038.055.017.077.046.077.044-.032.038-.151C29.985,14.756,29.92,14.67,29.918,14.795Zm.009.327c-.03.078-.021.157.019.174.021.008.007.016-.03.017-.058,0-.068.019-.067.116s.008.1.03.068.034-.03.029.053c0,.012-.028.018-.06.013-.066-.01-.087.124-.025.162.023.014.021.028-.007.045a.045.045,0,0,1-.065-.011c-.017-.026-.023-.023-.02.009.013.12-.005.181-.053.181s-.043.006.007.044.056.043-.008.027-.174.055-.137.092c.01.01,0,.019-.031.019a.05.05,0,0,0-.05.049c0,.04.008.042.045.011s.045-.025.045-.01a.092.092,0,0,1-.109.079c-.03-.011-.036,0-.021.037s.01.047-.015.032-.035,0-.035.038c0,.069-.047.11-.075.064s-.075-.033-.076.037c0,.055-.006.059-.03.023s-.029-.038-.03.007-.016.046-.045.035-.045,0-.045.016-.028.033-.062.033-.054.014-.043.03,0,.03-.027.03-.039.017-.031.038-.017.038-.083.038-.1.01-.088.06,0,.052-.026.025-.128-.019-.1.024c.009.015,0,.027-.015.027s-.032-.02-.032-.045-.014-.045-.03-.045-.027.017-.022.037-.022.034-.078.028-.083,0-.075.046c.014.074.233.1.271.028.018-.033.052-.041.115-.028s.089.005.089-.016.027-.034.06-.034.061-.021.062-.068.009-.051.017-.03c.018.045.1.051.1.008,0-.017.027-.03.06-.03s.06-.014.06-.03a.031.031,0,0,1,.031-.03.583.583,0,0,0,.239-.257c0-.026.01-.042.022-.034s.04-.005.061-.028.027-.042.006-.042-.024-.014-.014-.031a.035.035,0,0,1,.047-.013c.032.02.118-.056.118-.1a.306.306,0,0,1,.075-.112c.082-.089.1-.151.038-.171-.021-.007-.007-.008.03,0,.076.013.1-.122.03-.151-.021-.008-.008-.016.028-.018.083,0,.141-.38.066-.427-.03-.019-.031-.026,0-.027s.038-.034.038-.076C30,15.065,29.955,15.048,29.927,15.122ZM.038,15.186c-.046.017-.053.431-.008.431.017,0,.03.041.03.09s.014.09.03.09.03.026.03.057a.085.085,0,0,0,.047.075c.026.01.04.03.031.045s.009.055.039.091c.065.075.1.084.074.019-.01-.025,0-.045.018-.045s.025.016.013.035-.006.029.023.018.045,0,.045.022-.018.033-.04.024c-.094-.036-.028.093.137.266.122.128.192.18.225.167s.045,0,.041.018.015.035.043.033.044.012.036.034.025.056.077.079.092.053.092.067.041.02.09.013.09,0,.09.027.025.035.068.027a.216.216,0,0,0,.068-.019.2.2,0,0,1,.067-.013c.037,0,.06,0,.052.018s-.035.017-.059.008-.044,0-.044.031.031.048.137.048a.3.3,0,0,1,.182.045c.073.073,9.575.068,9.655,0a.257.257,0,0,1,.177-.045.256.256,0,0,0,.164-.038.118.118,0,0,1,.1-.027c.034.009.061,0,.061-.018s.026-.034.058-.034a.075.075,0,0,0,.07-.037.075.075,0,0,1,.07-.038c.032,0,.054-.017.05-.037s.012-.029.038-.019.045,0,.045-.016.021-.033.046-.033a.374.374,0,0,0,.151-.106c.058-.058.1-.106.083-.106s.009-.029.048-.065c.061-.057.064-.068.02-.092s-.109-.008-.1.045c0,.02,0,.027,0,.014-.031-.056-.073-.016-.055.053s-.047.111-.088.045c-.012-.019-.035-.014-.062.013-.052.052-.057.09-.008.059.024-.015.029,0,.015.031a.318.318,0,0,0-.02.071c0,.01-.021-.008-.047-.04-.039-.049-.045-.05-.031-.007a.065.065,0,0,1-.013.07c-.016.01-.029,0-.029-.014,0-.047-.088-.039-.14.014-.025.025-.058.038-.073.028s-.028,0-.028.015-.029.032-.063.032-.06.014-.047.063.009.055,0,.045-.037,0-.061.018-.049.025-.074-.02-.034-.052-.071.017c-.022.04-.04.056-.041.036,0-.052-9.687-.057-9.749-.006-.03.025-.041.025-.041,0s-.034-.034-.075-.034-.075-.014-.075-.03-.046-.027-.1-.023-.1.019-.087.033-.01.02-.04.014a.055.055,0,0,1-.048-.061c.008-.05-.024-.052-.122-.01-.03.013-.062.015-.073,0s0-.019.026-.019a.045.045,0,0,0,.045-.045c0-.025-.017-.042-.037-.038s-.068-.026-.1-.068-.061-.058-.049-.023c.027.075,0,.065-.082-.029-.063-.074-.076-.078-.124-.038s-.051.039-.017-.024.028-.067,0-.06-.037-.016-.035-.045a.044.044,0,0,0-.039-.053c-.033,0-.036.013-.012.058.042.079.039.094-.016.073a.048.048,0,0,1-.031-.059c.009-.023,0-.041-.019-.041s-.009-.021.023-.048.043-.04.025-.031S.563,16.244.541,16.2s-.051-.074-.065-.074-.025-.027-.025-.06-.02-.06-.047-.06-.038-.014-.028-.03c.026-.043-.026-.037-.071.008s-.033.026-.016-.02S.3,15.915.276,15.93s-.034,0-.033-.048.009-.053.017-.032c.021.053.06.047.06-.01C.321,15.8.3,15.8.237,15.8s-.076,0-.061-.02a.11.11,0,0,0,.018-.07c0-.021-.007-.052-.009-.07s-.021-.022-.041-.009-.02,0,.006-.032c.039-.048.038-.059-.007-.092-.028-.021-.042-.046-.031-.057s-.006-.02-.036-.02c-.053,0-.053,0,0-.044.033-.025.042-.045.02-.045s-.03-.013,0-.061C.138,15.22.1,15.162.038,15.186Zm12.95.039c.01.017-.016.046-.058.065-.112.051-.1.138.021.119.038-.006.025.05-.015.069-.021.009-.01.014.023.01.068-.008.111-.293.045-.293C12.985,15.194,12.978,15.208,12.988,15.224Zm-.151.437c-.039.094-.064.124-.082.1s-.022-.007-.013.046,0,.083-.031.083-.037.018-.027.044a.055.055,0,0,1-.016.065c-.02.012-.025.007-.012-.014s.007-.035-.01-.035-.032.028-.032.062.014.054.03.043.03,0,.03.015-.024.026-.06.015-.06-.006-.06.013-.02.032-.045.032c-.06,0-.057.016.019.1l.064.073.071-.072a.239.239,0,0,0,.072-.118c0-.026.014-.047.03-.047s.03-.02.03-.045.014-.045.03-.045.03-.027.03-.06.014-.06.03-.06.03-.041.03-.09.014-.09.03-.09.03-.02.03-.045a.043.043,0,0,0-.037-.046c-.025,0-.023-.01.007-.03s.039-.029,0-.03S12.87,15.58,12.837,15.661Zm16.781.441a.091.091,0,0,0-.018.083c.013.04.01.041-.015.007s-.014-.123.034-.123C29.641,16.069,29.641,16.079,29.617,16.1Zm-12.08.179c0,.012.032.042.07.068.057.038.07.038.07,0s-.011-.034-.025-.026-.025,0-.025-.026a.044.044,0,0,0-.045-.042C17.558,16.26,17.537,16.27,17.537,16.281Zm.226.293c-.02.053.053.128.125.128a.146.146,0,0,1,.1.06c.049.069.166.084.141.018-.011-.029,0-.037.038-.028a.051.051,0,0,1,.039.072c-.012.046,0,.058.062.058a.131.131,0,0,1,.1.03.07.07,0,0,0,.127-.031c0-.037-.008-.053-.028-.041s-.024.006-.01-.016.035-.025.075.01.063.037.076.025.018,0,.011.021c-.05.161-.35.152,4.869.152,4.667,0,4.962-.006,4.835-.089-.025-.016-.034-.03-.02-.03s0-.021-.02-.046c-.051-.051-9.483-.07-9.563-.019s.261.064,4.69.064a40.372,40.372,0,0,1,4.764.056c0,.01-2.123.012-4.717,0l-4.717-.015-.056-.07c-.031-.038-.071-.061-.088-.051s-.039,0-.049-.028-.049-.044-.15-.033c-.078.008-.132,0-.132-.017s.014-.022.03-.012.03,0,.03-.015-.024-.03-.053-.025a.53.53,0,0,1-.3-.134C17.934,16.522,17.783,16.524,17.764,16.574Zm-3.027.281c-.029.017-.044.046-.033.064s.006.024-.022.006c-.055-.035-.177-.038-.177,0s-.085.114-.1.084a.035.035,0,0,1,.013-.047.069.069,0,0,0,.03-.055c0-.02-.021-.009-.046.024a.125.125,0,0,1-.119.051c-.049-.006-.074.005-.074.034s-.026.04-.073.035-.08.01-.089.034a.047.047,0,0,1-.062.024c-.025-.01-.046,0-.046.016s-.027.033-.061.033c-.057,0-.069.121-.018.173.024.024.08-.024.062-.054s.007-.019.037-.007c.048.018.049.014.012-.032s-.034-.051.053-.035c.071.013.095.006.095-.027,0-.067.051-.084.12-.041.049.031.067.031.085,0a.154.154,0,0,1,.1-.044c.044,0,.086-.022.094-.042s.047-.028.095-.019.09,0,.11-.036.036-.045.076-.012a1.048,1.048,0,0,0,.518.018c0-.015.013-.019.029-.009a.049.049,0,0,1,.014.057c-.019.048.162.061.217.015.027-.022.032-.014.02.032-.02.076.015.081.069.009s.049-.128-.045-.128a.179.179,0,0,1-.121-.042c-.039-.048-.183-.056-.183-.011,0,.017-.023.011-.051-.011-.044-.036-.048-.035-.031.011.028.075-.005.065-.074-.023A.427.427,0,0,0,14.737,16.856ZM11.2,16.9a.03.03,0,0,1,.041.01c.009.014,0,.03-.021.035-.1.028-9.39.028-9.39,0s1.528-.028,4.654-.023c4.12.007,4.655,0,4.657-.038s.007-.033.018-.007S11.188,16.906,11.2,16.9Zm3.675.02c-.015.024,0,.03.043.018s.065,0,.065.012c0,.042-.128.018-.143-.027-.007-.021,0-.038.022-.038S14.889,16.9,14.877,16.918Zm.859.146c0,.017.028.03.062.03s.053-.014.043-.03a.079.079,0,0,0-.062-.03C15.755,17.034,15.736,17.047,15.736,17.064Zm-.06.054c0,.06.052.1.069.057a.048.048,0,0,0-.026-.062C15.7,17.1,15.676,17.106,15.676,17.118Zm.172,0c-.029.007-.052.027-.052.044,0,.053.09.123.136.1.024-.009.044,0,.044.014s.073.118.1.118c.008,0,.011-.034.006-.075-.01-.092,0-.093.072-.01.063.067.086.164.031.13-.017-.01-.03.009-.03.043s.019.062.075.062.075.017.075.047c0,.056.075.139.1.112.01-.01.019,0,.019.028a.076.076,0,0,0,.047.065c.026.01.038.032.028.049-.02.033.052.121.1.121.015,0,.021.036.013.08s0,.073.019.059.035,0,.035.048.006.061.029.024.029-.033.03-.007a.028.028,0,0,0,.034.03.042.042,0,0,1,.046.026c.007.02-.018.03-.064.025s-.076.006-.076.022.018.024.039.016.037.013.031.087,0,.1.044.1.051.024.042.169c-.007.107,0,.162.019.15a.038.038,0,0,1,.051.015.04.04,0,0,1-.013.055c-.025.016-.032,1.213-.026,4.637,0,2.539,0,4.61-.015,4.6-.027-.017-.012.1.017.13s.025.077-.009.056c-.052-.032-.032.052.023.1s.047.041-.015.024c-.045-.012-.068-.005-.068.021s-.009.028-.031-.005-.027-.021-.017.053,0,.1-.033.1-.043.028-.028.158c.01.088.007.132-.006.1-.027-.066-.074-.018-.049.049.009.024-.042.095-.12.168a.91.91,0,0,0-.136.142c0,.108,0,.137-.03.121s-.03,0-.03.013-.02.032-.045.032-.045.014-.045.03-.025.03-.056.03a.08.08,0,0,0-.072.058c-.011.041,0,.053.027.042s.042,0,.042.02-.029.029-.09.016c-.08-.018-.09-.012-.09.05s-.007.059-.027.029-.038-.034-.1.007c-.04.028-.052.049-.028.049s.033.009.022.019-.04,0-.064-.018-.054-.028-.093.011-.063.04-.081.028-.023-.006-.011.015-.054.05-.155.037c-.021,0-.038.016-.038.042a.047.047,0,0,1-.047.047c-.026,0-.038.014-.027.032.025.041-.083.025-.113-.017-.012-.017-.022-.007-.023.023s-.025.053-.092.053-.084-.012-.072-.032a.052.052,0,0,1,.061-.017.05.05,0,0,0,.059-.013c.011-.017-.059-.029-.171-.029-.186,0-.188,0-.116.051a1.218,1.218,0,0,0,.639.043.135.135,0,0,1,.083-.034.233.233,0,0,0,.116-.058.139.139,0,0,1,.11-.042c.024.009.043,0,.043-.017s.024-.033.054-.033a.144.144,0,0,0,.1-.06.139.139,0,0,1,.084-.06.162.162,0,0,0,.126-.12c0-.019.014-.026.03-.016s.03.007.03-.008.034-.045.075-.067.075-.059.075-.082.014-.033.03-.023.03,0,.03-.022a.139.139,0,0,1,.06-.084.141.141,0,0,0,.06-.09.141.141,0,0,1,.06-.09.145.145,0,0,0,.06-.1c0-.03.014-.054.03-.054s.03-.033.03-.074a.126.126,0,0,1,.03-.092.148.148,0,0,0,.03-.1.179.179,0,0,1,.042-.12c.078-.065.084-.411.084-5.083s-.006-5.041-.084-5.071c-.023-.009-.042-.055-.042-.1a.149.149,0,0,0-.03-.1.125.125,0,0,1-.03-.092c0-.041-.014-.074-.03-.074s-.031-.024-.031-.053c0-.071-.078-.169-.114-.146-.017.01-.023-.007-.014-.041.018-.068-.083-.192-.1-.129a.053.053,0,0,1-.044.037c-.019,0-.016-.019.007-.046s.028-.056.016-.067-.035,0-.051.031-.043.053-.06.053-.009-.021.017-.048c.081-.081.028-.175-.058-.1a.092.092,0,0,1-.081.02q-.038-.015.011-.018c.066,0,.1-.093.035-.093-.027,0-.041-.008-.031-.018s-.115-.163-.165-.163a.138.138,0,0,1-.083-.06C15.962,17.094,15.945,17.089,15.848,17.115Zm-2.373.344a.958.958,0,0,0-.172.22.139.139,0,0,1-.06.079.145.145,0,0,0-.06.1c0,.03-.014.054-.03.054s-.03.033-.03.073-.016.078-.035.084c-.05.017-.058.114-.009.114.027,0,.035-.018.021-.053-.019-.05-.016-.05.056,0s.076.042.076.007a.04.04,0,0,0-.037-.043c-.029,0-.03-.017,0-.075.019-.041.049-.075.068-.075.11,0,.18-.129.11-.2-.05-.05-.049-.052.019-.034a.119.119,0,0,0,.117-.027c.041-.041.04-.045-.008-.036a.058.058,0,0,1-.067-.035c-.012-.04-.009-.04.019,0s.032.034.032-.023c0-.037.014-.068.03-.068s.021.02.012.045c-.019.05.035.063.064.015a.321.321,0,0,0,.021-.118c0-.08.011-.087.1-.079.055,0,.1,0,.1-.018s-.02-.026-.045-.026-.045-.014-.045-.03C13.724,17.233,13.636,17.288,13.476,17.459Zm-.243.555c-.01.026,0,.045.022.045a.043.043,0,0,0,.039-.045c0-.025-.01-.045-.022-.045S13.242,17.989,13.233,18.014Zm-.079.2a.03.03,0,0,1-.038.027c-.117-.015-.143,0-.143.106a.189.189,0,0,1-.03.122c-.039.024-.042,9.941,0,9.982a.262.262,0,0,1,.038.119c.005.05.025.088.043.084s.03.026.025.067a.137.137,0,0,0,.034.108.135.135,0,0,1,.042.092c0,.031.014.057.03.057a.03.03,0,0,0,.03-.03.033.033,0,0,1,.035-.03c.019,0,.026.009.015.02s0,.042.017.068c.033.042.031.043-.015.007s-.053-.034-.053.016a.148.148,0,0,0,.06.1.139.139,0,0,1,.06.082.859.859,0,0,0,.3.34.032.032,0,0,1,.033.03c0,.017.027.03.06.03s.06.016.06.036.019.01.043-.022.053-.048.065-.036.007.022-.012.022-.035.029-.035.064.015.058.039.048.07.017.108.057a.219.219,0,0,0,.149.07c.044,0,.062-.009.041-.018s-.03-.026-.006-.055-.063-.1-.128-.081c-.012,0-.023-.016-.023-.043s-.016-.042-.048-.03-.043.006-.03-.029.006-.04-.008-.031-.056-.01-.092-.042a.138.138,0,0,0-.1-.043.08.08,0,0,1-.077-.033c-.033-.04-.032-.044.01-.028s.049,0,.049-.014a.036.036,0,0,0-.038-.033.324.324,0,0,1-.127-.1c-.072-.083-.1-.1-.135-.069s-.039.027-.008-.008c.056-.063.046-.115-.038-.2-.042-.042-.067-.091-.055-.109s.006-.024-.014-.011-.05-.038-.038-.112a.141.141,0,0,0-.047-.075c-.047-.048-.049-.046-.029.034.014.056.011.079-.01.066a.1.1,0,0,1-.031-.076.1.1,0,0,0-.026-.073c-.014-.009-.021-.064-.014-.123s0-.1-.012-.1a.09.09,0,0,1-.08-.157c.036-.03.041-.74.035-4.916-.007-4.108,0-4.879.033-4.865s.035,0,.024-.028c-.018-.047.048-.12.08-.088.011.011.02-.023.02-.076s-.007-.1-.015-.1S13.153,18.194,13.153,18.211ZM13,23.428l-.008,4.657-.015-4.68c-.008-2.574,0-4.67.008-4.657S13,20.866,13,23.428Zm.029,4.893a.027.027,0,0,0,.027.04.041.041,0,0,0,.042-.04c0-.022-.012-.04-.027-.04S13.033,28.3,13.024,28.321Zm1.217,1.467c-.063.1-.046.151.053.151.049,0,.09.014.09.03s.1.029.248.027.224-.01.2-.017a.068.068,0,0,1-.053-.057c0-.029-.034-.043-.105-.043s-.105.014-.105.032-.014.024-.03.013-.03,0-.03.013-.024.032-.053.031c-.045,0-.046,0-.007-.03s.013-.045-.064-.035c-.011,0-.014-.027-.007-.064s0-.05-.006-.029c-.025.052-.074.016-.053-.039S14.285,29.719,14.241,29.788Zm.18.036a.086.086,0,0,0,.055.047c.036.01.036.007,0-.017s-.035-.031,0-.045.023-.017-.014-.019S14.415,29.8,14.421,29.824Z" fill="#f31259" fill-rule="evenodd"/>
</svg>
