<svg id="Settings" xmlns="http://www.w3.org/2000/svg" width="52" height="52" viewBox="0 0 52 52">
    <path id="Path_22" data-name="Path 22" d="M26,52A26,26,0,1,1,52,26,26,26,0,0,1,26,52Zm14.273-7.487a15.534,15.534,0,0,0-28.552-.005,23.286,23.286,0,0,0,28.552.005ZM33.8,23.4A7.8,7.8,0,1,0,26,31.2,7.8,7.8,0,0,0,33.8,23.4ZM26,2.6A23.388,23.388,0,0,0,9.673,42.746,18.207,18.207,0,0,1,21.93,32.972a10.4,10.4,0,1,1,8.14,0,18.2,18.2,0,0,1,12.257,9.774A23.388,23.388,0,0,0,26,2.6Z" fill="#404040"/>
</svg>
