<svg id="LogOut" xmlns="http://www.w3.org/2000/svg" width="52" height="52" viewBox="0 0 52 52">
    <path id="Path_23" data-name="Path 23" d="M25.992,0A26,26,0,1,0,50.326,35.039a1.083,1.083,0,1,0-2.031-.745,23.833,23.833,0,1,1,0-16.589,1.083,1.083,0,1,0,2.031-.745A25.974,25.974,0,0,0,25.992,0ZM24.774,16.25a1.083,1.083,0,0,0-.643.3l-8.664,8.667a1.083,1.083,0,0,0,0,1.557l8.664,8.667a1.1,1.1,0,0,0,1.557-1.557l-6.8-6.8H50.9a1.083,1.083,0,1,0,0-2.167H18.885l6.8-6.8a1.083,1.083,0,0,0-.914-1.862Z" fill="#404040"/>
</svg>

