<svg id="PERSON_ICON" data-name="PERSON ICON" xmlns="http://www.w3.org/2000/svg" width="25.893" height="29.777" viewBox="0 0 25.893 29.777">
  <path id="Path_17" data-name="Path 17" d="M11.768,0a7.852,7.852,0,1,0,7.768,7.851A7.819,7.819,0,0,0,11.768,0Z" transform="translate(1.179)" fill="#f37944"/>
  <path id="Path_18" data-name="Path 18" d="M22.611,16.861a11.016,11.016,0,0,0-7.939-3.384H11.22a11.016,11.016,0,0,0-7.938,3.384A11.505,11.505,0,0,0,0,24.934a.868.868,0,0,0,.863.872H25.03a.868.868,0,0,0,.863-.872A11.506,11.506,0,0,0,22.611,16.861Z" transform="translate(0 3.971)" fill="#f37944"/>
</svg>
