<svg xmlns="http://www.w3.org/2000/svg" width="44" height="44" viewBox="0 0 44 44">
    <path id="Icon_material-add-shopping-cart" data-name="Icon material-add-shopping-cart" d="M23.325,18.262H27.69V11.976h6.548V7.786H27.69V1.5H23.325V7.786H16.778v4.19h6.548ZM14.6,37.119a4.194,4.194,0,1,0,4.365,4.19A4.274,4.274,0,0,0,14.6,37.119Zm21.825,0a4.194,4.194,0,1,0,4.365,4.19A4.274,4.274,0,0,0,36.421,37.119ZM14.966,30.31l.065-.251L17,26.643h16.26a4.376,4.376,0,0,0,3.819-2.158L45.5,9.8,41.7,7.786h-.022l-2.4,4.19L33.256,22.452H17.935l-.284-.566-4.889-9.91-2.073-4.19L8.637,3.6H1.5v4.19H5.865l7.857,15.9-2.946,5.133a3.926,3.926,0,0,0-.546,2.011,4.293,4.293,0,0,0,4.365,4.19h26.19v-4.19H15.512A.544.544,0,0,1,14.966,30.31Z" transform="translate(-1.5 -1.5)" fill="#0bd1b8"/>
</svg>

