<svg xmlns="http://www.w3.org/2000/svg" width="44" height="44" viewBox="0 0 44 44">
    <path id="Icon_material-remove-shopping-cart" data-name="Icon material-remove-shopping-cart" d="M44,43.447,5.362,4.809,3.872,3.318,2.458,1.9,0,4.363l8.5,8.5,4.278,9.021-2.613,4.743a3.743,3.743,0,0,0-.484,1.858,3.883,3.883,0,0,0,3.872,3.872H27.991l2.671,2.671a3.86,3.86,0,1,0,5.381,5.381l5.5,5.5L44,43.447ZM14.363,28.483A.479.479,0,0,1,13.879,28l.058-.232,1.742-3.155h4.568l3.872,3.872ZM30.1,24.612a3.853,3.853,0,0,0,3.388-1.994l6.93-12.563a1.891,1.891,0,0,0,.232-.929A1.941,1.941,0,0,0,38.715,7.19H12.66ZM13.55,34.29a3.872,3.872,0,1,0,3.872,3.872A3.866,3.866,0,0,0,13.55,34.29Z" transform="translate(0 -1.905)" fill="#ff0a57"/>
</svg>
